<svg width="1162" height="532" viewBox="0 0 1162 532" fill="none" xmlns="http://www.w3.org/2000/svg">
<g filter="url(#filter0_d_1_97)">
<path d="M794.471 37H217.529C199.012 37 184 52.0116 184 70.5294V340.471C184 358.988 199.012 374 217.529 374H794.471C812.988 374 828 358.988 828 340.471V70.5294C828 52.0116 812.988 37 794.471 37Z" fill="white"/>
</g>
<path d="M802.018 153.13H495.952V340.092H802.018V153.13Z" fill="white" stroke="#000D19" stroke-width="1.11765" stroke-miterlimit="10"/>
<path d="M600.549 131.411C595.323 131.411 590.66 128.131 588.892 123.214C587.124 118.296 582.461 115.017 577.235 115.017H506.765C497.506 115.017 490 122.523 490 131.782V337.048C490 346.307 497.506 353.813 506.765 353.813H791.206C800.465 353.813 807.971 346.307 807.971 337.048V148.175C807.971 138.916 800.465 131.411 791.206 131.411H600.549ZM802.037 323.344C802.038 332.604 794.531 340.111 785.272 340.111H512.717C503.458 340.111 495.952 332.605 495.952 323.346V169.894C495.952 160.635 503.458 153.13 512.717 153.13H785.256C794.514 153.13 802.02 160.634 802.02 169.893L802.037 323.344Z" fill="url(#paint0_linear_1_97)" stroke="#000D19" stroke-width="1.11765" stroke-miterlimit="10"/>
<path d="M743.85 137.589H591.799V146.572H743.85V137.589Z" fill="white" stroke="#000D19" stroke-width="1.11765" stroke-miterlimit="10"/>
<path d="M387.992 136.167L383.611 140.242L388.149 144.942" stroke="#000D19" stroke-width="1.11765" stroke-linecap="round" stroke-linejoin="round"/>
<path d="M383.611 140.242H393.355" stroke="#000D19" stroke-width="1.11765" stroke-linecap="round" stroke-linejoin="round"/>
<path d="M412.862 136.167L417.243 140.242L412.685 144.942" stroke="#000D19" stroke-width="1.11765" stroke-linecap="round" stroke-linejoin="round"/>
<path d="M417.243 140.242H407.499" stroke="#000D19" stroke-width="1.11765" stroke-linecap="round" stroke-linejoin="round"/>
<path d="M438.184 139.712C437.909 138.765 437.328 137.928 436.526 137.321C435.724 136.714 434.743 136.37 433.725 136.338C433.123 136.299 432.52 136.38 431.953 136.575C431.385 136.771 430.865 137.076 430.425 137.473C429.985 137.871 429.634 138.351 429.394 138.884C429.154 139.417 429.03 139.992 429.03 140.574C429.03 141.155 429.154 141.73 429.394 142.264C429.634 142.797 429.985 143.277 430.425 143.674C430.865 144.071 431.385 144.377 431.953 144.572C432.52 144.768 433.123 144.848 433.725 144.81C434.737 144.812 435.718 144.47 436.494 143.843" stroke="#000D19" stroke-width="1.11765" stroke-linecap="round" stroke-linejoin="round"/>
<path d="M435.237 140.166H438.636V136.243" stroke="#000D19" stroke-width="1.11765" stroke-linecap="round" stroke-linejoin="round"/>
<path d="M461.424 138.783L457.377 135.618L453.527 138.783V145.663H461.424V138.783Z" stroke="#000D19" stroke-width="1.11765" stroke-linecap="round" stroke-linejoin="round"/>
<path d="M458.929 140.64H455.845V145.416H458.929V140.64Z" fill="#000D19"/>
<path d="M453.527 138.783L451.209 140.83" stroke="#000D19" stroke-width="1.11765" stroke-linecap="round" stroke-linejoin="round"/>
<path d="M461.424 138.783L463.605 140.64" stroke="#000D19" stroke-width="1.11765" stroke-linecap="round" stroke-linejoin="round"/>
<path d="M459.97 123.508L466.139 129.629" stroke="#000D19" stroke-width="1.11765" stroke-linecap="round" stroke-linejoin="round"/>
<path d="M466.237 123.602L459.872 129.534" stroke="#000D19" stroke-width="1.11765" stroke-linecap="round" stroke-linejoin="round"/>
<path d="M785.89 139.238H798.09" stroke="#000D19" stroke-width="1.11765" stroke-linecap="round" stroke-linejoin="round"/>
<path d="M785.89 141.891H798.09" stroke="#000D19" stroke-width="1.11765" stroke-linecap="round" stroke-linejoin="round"/>
<path d="M785.89 144.544H798.09" stroke="#000D19" stroke-width="1.11765" stroke-linecap="round" stroke-linejoin="round"/>
<path d="M785.89 147.198H798.09" stroke="#000D19" stroke-width="1.11765" stroke-linecap="round" stroke-linejoin="round"/>
<path d="M721.887 175.209H737.249" stroke="#000D19" stroke-width="1.11765" stroke-linecap="round" stroke-linejoin="round"/>
<path d="M702.007 175.209H715.483" stroke="#000D19" stroke-width="1.11765" stroke-linecap="round" stroke-linejoin="round"/>
<path d="M668.944 175.209H697.017" stroke="#000D19" stroke-width="1.11765" stroke-linecap="round" stroke-linejoin="round"/>
<path d="M668.944 184.249H737.249" stroke="#000D19" stroke-width="1.11765" stroke-linecap="round" stroke-linejoin="round"/>
<path d="M727.211 193.308H737.249" stroke="#000D19" stroke-width="1.11765" stroke-linecap="round" stroke-linejoin="round"/>
<path d="M679.985 193.308H720.807" stroke="#000D19" stroke-width="1.11765" stroke-linecap="round" stroke-linejoin="round"/>
<path d="M668.944 193.308H674.307" stroke="#000D19" stroke-width="1.11765" stroke-linecap="round" stroke-linejoin="round"/>
<path d="M668.944 202.348H737.249" stroke="#000D19" stroke-width="1.11765" stroke-linecap="round" stroke-linejoin="round"/>
<path d="M692.754 277.815H677.568V322.826H692.754V277.815Z" fill="#000D19" stroke="#000D19" stroke-width="1.11765" stroke-linecap="round" stroke-linejoin="round"/>
<path d="M714.461 224.427H699.276V322.845H714.461V224.427Z" fill="#F94A76" stroke="#000D19" stroke-width="1.11765" stroke-miterlimit="10"/>
<path d="M736.169 253.727H720.983V322.826H736.169V253.727Z" fill="#000D19" stroke="#000D19" stroke-width="1.11765" stroke-linecap="round" stroke-linejoin="round"/>
<path d="M757.857 224.427H742.671V322.845H757.857V224.427Z" fill="url(#paint1_linear_1_97)" stroke="#000D19" stroke-width="1.11765" stroke-miterlimit="10"/>
<path d="M779.564 181.501H764.379V322.845H779.564V181.501Z" fill="#003B73" stroke="#000D19" stroke-width="1.11765" stroke-linecap="round" stroke-linejoin="round"/>
<path d="M514.066 96H208V282.962H514.066V96Z" fill="white" stroke="#000D19" stroke-width="1.11765" stroke-miterlimit="10"/>
<path d="M312.692 74.5355C307.471 74.5355 302.812 71.2603 301.044 66.3482C299.276 61.436 294.616 58.1609 289.395 58.1609H218.877C209.618 58.1609 202.112 65.6667 202.112 74.9256V280.078C202.112 289.337 209.618 296.843 218.877 296.843H503.358C512.617 296.843 520.123 289.337 520.123 280.078V91.3002C520.123 82.0413 512.617 74.5355 503.358 74.5355H312.692ZM514.19 266.471C514.19 275.73 506.684 283.235 497.425 283.235H224.888C215.629 283.235 208.124 275.73 208.124 266.471V113.038C208.124 103.779 215.629 96.2735 224.888 96.2735H497.425C506.684 96.2735 514.19 103.779 514.19 113.038V266.471Z" fill="url(#paint2_linear_1_97)" stroke="#000D19" stroke-width="1.11765" stroke-miterlimit="10"/>
<path d="M456.002 80.7329H303.951V89.7162H456.002V80.7329Z" fill="white" stroke="#000D19" stroke-width="1.11765" stroke-miterlimit="10"/>
<path d="M215.491 79.2925L211.09 83.3672L215.648 88.0673" stroke="url(#paint3_linear_1_97)" stroke-width="1.11765" stroke-linecap="round" stroke-linejoin="round"/>
<path d="M211.09 83.3672H220.854" stroke="url(#paint4_linear_1_97)" stroke-width="1.11765" stroke-linecap="round" stroke-linejoin="round"/>
<path d="M240.341 79.2925L244.742 83.3672L240.184 88.0673" stroke="url(#paint5_linear_1_97)" stroke-width="1.11765" stroke-linecap="round" stroke-linejoin="round"/>
<path d="M244.742 83.3672H234.978" stroke="url(#paint6_linear_1_97)" stroke-width="1.11765" stroke-linecap="round" stroke-linejoin="round"/>
<path d="M265.683 82.8554C265.407 81.9058 264.823 81.0662 264.017 80.4593C263.211 79.8524 262.226 79.51 261.204 79.4819C260.09 79.5538 259.046 80.0314 258.284 80.8178C257.521 81.6043 257.097 82.6409 257.097 83.7177C257.097 84.7946 257.521 85.8312 258.284 86.6176C259.046 87.4041 260.09 87.8816 261.204 87.9535C262.218 87.953 263.202 87.6187 263.993 87.0059" stroke="url(#paint7_linear_1_97)" stroke-width="1.11765" stroke-linecap="round" stroke-linejoin="round"/>
<path d="M262.717 83.2913H266.135V79.3872" stroke="url(#paint8_linear_1_97)" stroke-width="1.11765" stroke-linecap="round" stroke-linejoin="round"/>
<path d="M288.923 81.9079L284.876 78.7429L281.025 81.9079V88.7875H288.923V81.9079Z" stroke="url(#paint9_linear_1_97)" stroke-width="1.11765" stroke-linecap="round" stroke-linejoin="round"/>
<path d="M283.883 87.9822V84.324H285.85V87.9822H283.883Z" fill="url(#paint10_linear_1_97)" stroke="url(#paint11_linear_1_97)" stroke-width="1.11765"/>
<path d="M281.026 81.9077L278.708 83.9545" stroke="url(#paint12_linear_1_97)" stroke-width="1.11765" stroke-linecap="round" stroke-linejoin="round"/>
<path d="M288.923 81.9077L291.103 83.765" stroke="url(#paint13_linear_1_97)" stroke-width="1.11765" stroke-linecap="round" stroke-linejoin="round"/>
<path d="M287.469 66.6326L293.618 72.773" stroke="url(#paint14_linear_1_97)" stroke-width="1.11765" stroke-linecap="round" stroke-linejoin="round"/>
<path d="M293.716 66.7273L287.371 72.6782" stroke="url(#paint15_linear_1_97)" stroke-width="1.11765" stroke-linecap="round" stroke-linejoin="round"/>
<path d="M498.062 82.3816H510.261" stroke="#000D19" stroke-width="1.11765" stroke-linecap="round" stroke-linejoin="round"/>
<path d="M498.062 85.0349H510.261" stroke="#000D19" stroke-width="1.11765" stroke-linecap="round" stroke-linejoin="round"/>
<path d="M498.062 87.6882H510.261" stroke="#000D19" stroke-width="1.11765" stroke-linecap="round" stroke-linejoin="round"/>
<path d="M498.062 90.3416H510.261" stroke="#000D19" stroke-width="1.11765" stroke-linecap="round" stroke-linejoin="round"/>
<path d="M223.859 265.193V200.604L245.154 244.118L263.247 236.5L283.717 252.097L318.587 230.208L339.882 258.92L354.792 251.737L367.561 258.92L383.533 257.119L404.808 262.066L427.164 260.266L441.387 265.193H223.859Z" fill="#000D19"/>
<path d="M448.007 153.13H471.207" stroke="#000D19" stroke-width="1.11765" stroke-linecap="round" stroke-linejoin="round"/>
<path d="M417.97 153.13H438.341" stroke="#000D19" stroke-width="1.11765" stroke-linecap="round" stroke-linejoin="round"/>
<path d="M368.033 153.13H410.466" stroke="#000D19" stroke-width="1.11765" stroke-linecap="round" stroke-linejoin="round"/>
<path d="M368.033 162.189H471.207" stroke="#000D19" stroke-width="1.11765" stroke-linecap="round" stroke-linejoin="round"/>
<path d="M456.042 171.229H471.207" stroke="#000D19" stroke-width="1.11765" stroke-linecap="round" stroke-linejoin="round"/>
<path d="M384.711 171.229H446.396" stroke="#000D19" stroke-width="1.11765" stroke-linecap="round" stroke-linejoin="round"/>
<path d="M368.033 171.229H376.126" stroke="#000D19" stroke-width="1.11765" stroke-linecap="round" stroke-linejoin="round"/>
<path d="M368.033 180.288H471.207" stroke="#000D19" stroke-width="1.11765" stroke-linecap="round" stroke-linejoin="round"/>
<path d="M471.207 194.824H448.007" stroke="#000D19" stroke-width="1.11765" stroke-linecap="round" stroke-linejoin="round"/>
<path d="M417.97 194.824H438.341" stroke="#000D19" stroke-width="1.11765" stroke-linecap="round" stroke-linejoin="round"/>
<path d="M368.033 194.824H410.466" stroke="#000D19" stroke-width="1.11765" stroke-linecap="round" stroke-linejoin="round"/>
<path d="M368.033 203.883H471.207" stroke="#000D19" stroke-width="1.11765" stroke-linecap="round" stroke-linejoin="round"/>
<path d="M471.207 212.923H456.042" stroke="#000D19" stroke-width="1.11765" stroke-linecap="round" stroke-linejoin="round"/>
<path d="M384.711 212.923H446.396" stroke="#000D19" stroke-width="1.11765" stroke-linecap="round" stroke-linejoin="round"/>
<path d="M368.033 212.923H376.126" stroke="#000D19" stroke-width="1.11765" stroke-linecap="round" stroke-linejoin="round"/>
<path d="M368.033 221.982H471.207" stroke="#000D19" stroke-width="1.11765" stroke-linecap="round" stroke-linejoin="round"/>
<path d="M250.321 168.14L238.121 194.672C230.853 191.551 225.168 185.772 222.317 178.607C219.465 171.442 219.681 163.477 222.916 156.465C225.238 151.327 229.073 146.961 233.945 143.908C238.817 140.855 244.511 139.251 250.321 139.295V168.14Z" fill="#5FA3DA"/>
<path d="M250.321 168.14L264.406 193.687C260.403 195.811 255.939 196.998 251.374 197.152C246.808 197.307 242.269 196.425 238.122 194.578L250.321 168.14Z" fill="#000D19"/>
<path d="M250.321 168.14L273.639 149.927C276.119 152.881 277.971 156.277 279.09 159.922C280.209 163.566 280.573 167.388 280.161 171.169C279.748 174.949 278.568 178.614 276.687 181.954C274.807 185.294 272.262 188.244 269.199 190.636C267.716 191.81 266.109 192.833 264.406 193.687L250.321 168.14Z" fill="#0274B6"/>
<path d="M250.321 168.14V139.105C254.807 139.006 259.254 139.925 263.305 141.788C267.355 143.652 270.895 146.407 273.639 149.832L250.321 168.14Z" fill="#000D19"/>
<path d="M250.321 183.851C259.337 183.851 266.646 176.8 266.646 168.102C266.646 159.404 259.337 152.353 250.321 152.353C241.305 152.353 233.996 159.404 233.996 168.102C233.996 176.8 241.305 183.851 250.321 183.851Z" fill="white"/>
<path d="M331.611 168.14L319.412 194.673C315.794 193.122 312.53 190.897 309.808 188.124C307.086 185.351 304.959 182.086 303.551 178.517C302.143 174.947 301.482 171.145 301.604 167.327C301.727 163.51 302.631 159.754 304.266 156.276C306.592 151.121 310.441 146.743 315.333 143.689C320.225 140.635 325.942 139.041 331.769 139.105L331.611 168.14Z" fill="#F94A76"/>
<path d="M331.611 168.14L345.696 193.687C341.693 195.811 337.229 196.998 332.664 197.152C328.099 197.307 323.559 196.425 319.412 194.578L331.611 168.14Z" fill="#003B73"/>
<path d="M331.611 168.14L354.91 149.927C357.391 152.88 359.244 156.275 360.365 159.919C361.485 163.563 361.851 167.384 361.44 171.165C361.03 174.945 359.851 178.61 357.973 181.951C356.094 185.292 353.551 188.243 350.49 190.636C349.002 191.806 347.396 192.828 345.696 193.687L331.611 168.14Z" fill="#0274B6"/>
<path d="M331.611 168.14V139.105C336.094 139.006 340.539 139.925 344.586 141.788C348.633 143.652 352.17 146.407 354.91 149.832L331.611 168.14Z" fill="#000D19"/>
<path d="M331.611 183.851C340.627 183.851 347.936 176.8 347.936 168.102C347.936 159.404 340.627 152.353 331.611 152.353C322.595 152.353 315.286 159.404 315.286 168.102C315.286 176.8 322.595 183.851 331.611 183.851Z" fill="white"/>
<path d="M222.798 116.666H415.514" stroke="#000D19" stroke-width="1.11765" stroke-linecap="round" stroke-linejoin="round"/>
<path d="M222.798 125.706H451.326" stroke="#000D19" stroke-width="1.11765" stroke-linecap="round" stroke-linejoin="round"/>
<g clip-path="url(#clip0_1_97)">
<path d="M666.69 168H462.125V338.912H666.69V168Z" fill="white"/>
<path d="M518.004 323.53H660.513" stroke="#8C8C8C" stroke-width="0.547794" stroke-miterlimit="10"/>
<path d="M660.513 323.53V322.227" stroke="#8C8C8C" stroke-width="0.547794" stroke-miterlimit="10"/>
<path d="M525.03 323.53V271.481" stroke="#8C8C8C" stroke-width="0.547794" stroke-miterlimit="10"/>
<path d="M525.03 323.53H528.593" stroke="#8C8C8C" stroke-width="0.547794" stroke-miterlimit="10"/>
<path d="M525.03 317.023H528.593" stroke="#8C8C8C" stroke-width="0.547794" stroke-miterlimit="10"/>
<path d="M525.03 310.516H528.593" stroke="#8C8C8C" stroke-width="0.547794" stroke-miterlimit="10"/>
<path d="M525.03 304.009H528.593" stroke="#8C8C8C" stroke-width="0.547794" stroke-miterlimit="10"/>
<path d="M525.03 297.501H528.593" stroke="#8C8C8C" stroke-width="0.547794" stroke-miterlimit="10"/>
<path d="M525.03 291.002H528.593" stroke="#8C8C8C" stroke-width="0.547794" stroke-miterlimit="10"/>
<path d="M525.03 284.495H528.593" stroke="#8C8C8C" stroke-width="0.547794" stroke-miterlimit="10"/>
<path d="M525.03 277.988H528.593" stroke="#8C8C8C" stroke-width="0.547794" stroke-miterlimit="10"/>
<path d="M525.03 271.481H528.593" stroke="#8C8C8C" stroke-width="0.547794" stroke-miterlimit="10"/>
<path d="M645.826 284.495H637.934V323.539H645.826V284.495Z" fill="#A1A1A1"/>
<path d="M637.052 313.773H629.16V323.53H637.052V313.773Z" fill="url(#paint16_linear_1_97)"/>
<path d="M628.285 311.819H620.393V323.53H628.285V311.819Z" fill="#A1A1A1"/>
<path d="M619.511 291.002H611.619V323.539H619.511V291.002Z" fill="url(#paint17_linear_1_97)"/>
<path d="M610.745 304.009H602.853V323.53H610.745V304.009Z" fill="#A1A1A1"/>
<path d="M601.979 307.266H594.087V323.53H601.979V307.266Z" fill="url(#paint18_linear_1_97)"/>
<path d="M593.204 310.516H585.312V323.53H593.204V310.516Z" fill="#A1A1A1"/>
<path d="M584.439 277.988H576.547V323.53H584.439V277.988Z" fill="#C6FF00"/>
<path d="M575.664 317.023H567.772V323.53H575.664V317.023Z" fill="#A1A1A1"/>
<path d="M566.898 304.009H559.006V323.53H566.898V304.009Z" fill="#C6FF00"/>
<path d="M558.124 291.002H550.232V323.539H558.124V291.002Z" fill="#A1A1A1"/>
<path d="M549.357 297.501H541.465V323.53H549.357V297.501Z" fill="url(#paint19_linear_1_97)"/>
<path d="M540.591 310.516H532.699V323.53H540.591V310.516Z" fill="#A1A1A1"/>
<path d="M468.5 246.491H656.093" stroke="#8C8C8C" stroke-width="0.547794" stroke-miterlimit="10"/>
<path d="M527.743 246.491V244.652" stroke="#8C8C8C" stroke-width="0.547794" stroke-miterlimit="10"/>
<path d="M537.615 246.491V244.652" stroke="#8C8C8C" stroke-width="0.547794" stroke-miterlimit="10"/>
<path d="M547.486 246.491V244.652" stroke="#8C8C8C" stroke-width="0.547794" stroke-miterlimit="10"/>
<path d="M557.365 246.491V244.652" stroke="#8C8C8C" stroke-width="0.547794" stroke-miterlimit="10"/>
<path d="M567.236 246.491V244.652" stroke="#8C8C8C" stroke-width="0.547794" stroke-miterlimit="10"/>
<path d="M577.107 246.491V244.652" stroke="#8C8C8C" stroke-width="0.547794" stroke-miterlimit="10"/>
<path d="M586.987 246.491V244.652" stroke="#8C8C8C" stroke-width="0.547794" stroke-miterlimit="10"/>
<path d="M596.858 246.491V244.652" stroke="#8C8C8C" stroke-width="0.547794" stroke-miterlimit="10"/>
<path d="M606.729 246.491V244.652" stroke="#8C8C8C" stroke-width="0.547794" stroke-miterlimit="10"/>
<path d="M616.6 246.491V244.652" stroke="#8C8C8C" stroke-width="0.547794" stroke-miterlimit="10"/>
<path d="M626.479 246.491V244.652" stroke="#8C8C8C" stroke-width="0.547794" stroke-miterlimit="10"/>
<path d="M636.35 246.491V244.652" stroke="#8C8C8C" stroke-width="0.547794" stroke-miterlimit="10"/>
<path d="M646.221 246.491V244.652" stroke="#8C8C8C" stroke-width="0.547794" stroke-miterlimit="10"/>
<path d="M656.093 246.491V244.652" stroke="#8C8C8C" stroke-width="0.547794" stroke-miterlimit="10"/>
<path d="M522.804 187.621L512.932 228.833" stroke="url(#paint20_linear_1_97)" stroke-width="2.19118" stroke-miterlimit="10" stroke-linecap="round"/>
<path d="M532.683 172.907L522.803 187.621" stroke="url(#paint21_linear_1_97)" stroke-width="2.19118" stroke-miterlimit="10" stroke-linecap="round"/>
<path d="M542.554 239.134L532.683 172.907" stroke="url(#paint22_linear_1_97)" stroke-width="2.19118" stroke-miterlimit="10" stroke-linecap="round"/>
<path d="M552.425 234.722L542.554 239.134" stroke="url(#paint23_linear_1_97)" stroke-width="2.19118" stroke-miterlimit="10" stroke-linecap="round"/>
<path d="M562.296 233.245L552.425 234.722" stroke="#C6FF00" stroke-width="2.19118" stroke-miterlimit="10" stroke-linecap="round"/>
<path d="M572.175 228.833L562.296 233.246" stroke="#C6FF00" stroke-width="2.19118" stroke-miterlimit="10" stroke-linecap="round"/>
<path d="M582.047 222.944L572.175 228.833" stroke="#C6FF00" stroke-width="2.19118" stroke-miterlimit="10" stroke-linecap="round"/>
<path d="M591.918 225.889L582.046 222.944" stroke="#C6FF00" stroke-width="2.19118" stroke-miterlimit="10" stroke-linecap="round"/>
<path d="M601.79 231.778L591.919 225.889" stroke="url(#paint24_linear_1_97)" stroke-width="2.19118" stroke-miterlimit="10" stroke-linecap="round"/>
<path d="M611.669 200.866L601.789 231.778" stroke="url(#paint25_linear_1_97)" stroke-width="2.19118" stroke-miterlimit="10" stroke-linecap="round"/>
<path d="M621.54 196.454L611.669 200.866" stroke="url(#paint26_linear_1_97)" stroke-width="2.19118" stroke-miterlimit="10" stroke-linecap="round"/>
<path d="M631.411 190.565L621.54 196.454" stroke="url(#paint27_linear_1_97)" stroke-width="2.19118" stroke-miterlimit="10" stroke-linecap="round"/>
<path d="M641.29 196.454L631.411 190.565" stroke="url(#paint28_linear_1_97)" stroke-width="2.19118" stroke-miterlimit="10" stroke-linecap="round"/>
<path d="M651.162 202.342L641.291 196.454" stroke="url(#paint29_linear_1_97)" stroke-width="2.19118" stroke-miterlimit="10" stroke-linecap="round"/>
<path d="M522.803 185.913C523.032 185.912 523.26 185.956 523.472 186.043C523.684 186.13 523.876 186.258 524.039 186.42C524.201 186.582 524.33 186.774 524.418 186.986C524.506 187.197 524.551 187.424 524.551 187.654C524.551 188.117 524.367 188.562 524.039 188.89C523.712 189.218 523.267 189.402 522.803 189.402C522.574 189.402 522.347 189.357 522.135 189.269C521.924 189.181 521.732 189.052 521.57 188.889C521.408 188.727 521.28 188.534 521.193 188.322C521.106 188.11 521.062 187.883 521.063 187.654C521.062 187.425 521.106 187.198 521.193 186.986C521.28 186.775 521.409 186.582 521.57 186.421C521.732 186.259 521.924 186.131 522.136 186.044C522.348 185.957 522.574 185.912 522.803 185.913Z" fill="white" stroke="url(#paint30_linear_1_97)" stroke-width="1.09559" stroke-linecap="round" stroke-linejoin="round"/>
<path d="M532.682 171.159C533.145 171.161 533.587 171.346 533.913 171.674C534.239 172.001 534.422 172.445 534.422 172.907C534.42 173.368 534.236 173.809 533.91 174.135C533.585 174.461 533.143 174.645 532.682 174.647C532.22 174.647 531.777 174.464 531.449 174.138C531.121 173.812 530.936 173.369 530.934 172.907C530.934 172.443 531.118 171.999 531.446 171.671C531.774 171.343 532.219 171.159 532.682 171.159Z" fill="white" stroke="url(#paint31_linear_1_97)" stroke-width="1.09559" stroke-linecap="round" stroke-linejoin="round"/>
<path d="M542.554 237.394C542.783 237.393 543.01 237.437 543.221 237.524C543.433 237.611 543.625 237.739 543.787 237.901C543.949 238.063 544.077 238.255 544.164 238.467C544.251 238.678 544.295 238.905 544.294 239.134C544.295 239.363 544.251 239.59 544.164 239.803C544.077 240.015 543.949 240.207 543.787 240.37C543.626 240.532 543.433 240.661 543.222 240.749C543.01 240.837 542.783 240.882 542.554 240.882C542.09 240.882 541.646 240.698 541.318 240.37C540.99 240.042 540.806 239.598 540.806 239.134C540.806 238.905 540.851 238.678 540.939 238.466C541.027 238.254 541.156 238.062 541.318 237.901C541.481 237.739 541.673 237.611 541.886 237.524C542.098 237.437 542.325 237.393 542.554 237.394Z" fill="white" stroke="url(#paint32_linear_1_97)" stroke-width="1.09559" stroke-linecap="round" stroke-linejoin="round"/>
<path d="M552.425 232.973C552.889 232.973 553.334 233.158 553.662 233.486C553.99 233.813 554.174 234.258 554.174 234.722C554.174 234.951 554.128 235.178 554.041 235.39C553.953 235.601 553.824 235.794 553.661 235.955C553.499 236.117 553.306 236.245 553.094 236.332C552.882 236.419 552.655 236.463 552.425 236.462C552.196 236.463 551.969 236.419 551.757 236.332C551.545 236.245 551.352 236.117 551.19 235.955C551.027 235.794 550.898 235.601 550.81 235.39C550.722 235.178 550.677 234.951 550.677 234.722C550.677 234.258 550.861 233.813 551.189 233.486C551.517 233.158 551.962 232.973 552.425 232.973Z" fill="white" stroke="url(#paint33_linear_1_97)" stroke-width="1.09559" stroke-linecap="round" stroke-linejoin="round"/>
<path d="M562.296 231.505C562.525 231.504 562.753 231.549 562.965 231.635C563.177 231.722 563.37 231.85 563.532 232.012C563.694 232.174 563.823 232.366 563.911 232.578C563.999 232.789 564.045 233.016 564.045 233.246C564.045 233.475 563.999 233.703 563.911 233.915C563.824 234.127 563.695 234.32 563.532 234.482C563.37 234.644 563.177 234.773 562.965 234.861C562.753 234.949 562.526 234.994 562.296 234.994C561.834 234.992 561.391 234.807 561.065 234.479C560.739 234.151 560.556 233.708 560.556 233.246C560.556 232.784 560.74 232.341 561.066 232.015C561.392 231.689 561.835 231.505 562.296 231.505Z" fill="white" stroke="#C6FF00" stroke-width="1.09559" stroke-linecap="round" stroke-linejoin="round"/>
<path d="M572.176 227.085C572.405 227.085 572.632 227.13 572.844 227.218C573.055 227.306 573.248 227.435 573.409 227.597C573.571 227.76 573.699 227.953 573.786 228.165C573.873 228.377 573.917 228.604 573.916 228.833C573.917 229.062 573.873 229.29 573.786 229.502C573.699 229.714 573.571 229.907 573.409 230.069C573.248 230.231 573.055 230.36 572.844 230.448C572.632 230.536 572.405 230.582 572.176 230.582C571.946 230.582 571.719 230.536 571.507 230.449C571.295 230.361 571.102 230.232 570.94 230.07C570.777 229.907 570.649 229.714 570.561 229.502C570.473 229.29 570.428 229.063 570.428 228.833C570.428 228.604 570.473 228.376 570.561 228.164C570.649 227.952 570.777 227.759 570.94 227.597C571.102 227.434 571.295 227.306 571.507 227.218C571.719 227.13 571.946 227.085 572.176 227.085Z" fill="white" stroke="#C6FF00" stroke-width="1.09559" stroke-linecap="round" stroke-linejoin="round"/>
<path d="M582.047 221.204C582.276 221.203 582.503 221.247 582.715 221.334C582.928 221.421 583.12 221.549 583.283 221.711C583.445 221.873 583.574 222.065 583.662 222.276C583.75 222.488 583.795 222.715 583.795 222.944C583.795 223.174 583.75 223.401 583.662 223.613C583.574 223.826 583.446 224.018 583.283 224.181C583.121 224.343 582.928 224.472 582.716 224.56C582.504 224.648 582.277 224.693 582.047 224.693C581.817 224.693 581.59 224.648 581.378 224.56C581.166 224.472 580.973 224.343 580.811 224.181C580.648 224.018 580.52 223.826 580.432 223.613C580.344 223.401 580.299 223.174 580.299 222.944C580.299 222.715 580.344 222.488 580.432 222.276C580.52 222.065 580.649 221.873 580.811 221.711C580.974 221.549 581.167 221.421 581.379 221.334C581.591 221.247 581.818 221.203 582.047 221.204Z" fill="white" stroke="#C6FF00" stroke-width="1.09559" stroke-linecap="round" stroke-linejoin="round"/>
<path d="M591.918 224.14C592.382 224.14 592.827 224.325 593.155 224.652C593.482 224.98 593.667 225.425 593.667 225.889C593.667 226.353 593.482 226.797 593.155 227.125C592.827 227.453 592.382 227.637 591.918 227.637C591.689 227.637 591.462 227.592 591.251 227.504C591.039 227.416 590.847 227.287 590.685 227.125C590.523 226.962 590.395 226.769 590.308 226.557C590.221 226.345 590.177 226.118 590.178 225.889C590.177 225.66 590.221 225.432 590.308 225.22C590.395 225.008 590.523 224.815 590.685 224.653C590.847 224.491 591.039 224.362 591.251 224.274C591.462 224.186 591.689 224.14 591.918 224.14Z" fill="white" stroke="url(#paint34_linear_1_97)" stroke-width="1.09559" stroke-linecap="round" stroke-linejoin="round"/>
<path d="M601.789 230.029C602.253 230.029 602.698 230.213 603.026 230.541C603.353 230.869 603.538 231.314 603.538 231.778C603.538 232.241 603.353 232.686 603.026 233.014C602.698 233.342 602.253 233.526 601.789 233.526C601.327 233.524 600.885 233.339 600.558 233.011C600.232 232.683 600.049 232.24 600.049 231.778C600.049 231.315 600.232 230.872 600.558 230.544C600.885 230.216 601.327 230.031 601.789 230.029Z" fill="white" stroke="url(#paint35_linear_1_97)" stroke-width="1.09559" stroke-linecap="round" stroke-linejoin="round"/>
<path d="M611.669 199.109C611.897 199.108 612.124 199.153 612.336 199.24C612.547 199.327 612.74 199.455 612.901 199.617C613.063 199.778 613.191 199.971 613.278 200.182C613.365 200.394 613.41 200.621 613.409 200.85C613.41 201.079 613.365 201.306 613.279 201.518C613.192 201.73 613.064 201.923 612.902 202.085C612.74 202.248 612.548 202.377 612.336 202.465C612.125 202.553 611.898 202.598 611.669 202.598C611.439 202.598 611.212 202.553 611 202.465C610.787 202.377 610.595 202.248 610.432 202.086C610.27 201.924 610.141 201.731 610.053 201.519C609.966 201.307 609.92 201.079 609.92 200.85C609.92 200.62 609.966 200.393 610.054 200.182C610.141 199.97 610.27 199.778 610.433 199.616C610.595 199.454 610.788 199.326 611 199.239C611.212 199.153 611.439 199.108 611.669 199.109Z" fill="white" stroke="url(#paint36_linear_1_97)" stroke-width="1.09559" stroke-linecap="round" stroke-linejoin="round"/>
<path d="M621.54 194.705C622.003 194.705 622.448 194.89 622.776 195.217C623.104 195.545 623.288 195.99 623.288 196.454C623.288 196.917 623.104 197.362 622.776 197.69C622.448 198.018 622.003 198.202 621.54 198.202C621.076 198.202 620.631 198.018 620.303 197.69C619.975 197.362 619.791 196.917 619.791 196.454C619.791 195.99 619.975 195.545 620.303 195.217C620.631 194.89 621.076 194.705 621.54 194.705Z" fill="white" stroke="url(#paint37_linear_1_97)" stroke-width="1.09559" stroke-linecap="round" stroke-linejoin="round"/>
<path d="M631.411 188.816C631.874 188.816 632.319 189.001 632.647 189.329C632.975 189.656 633.159 190.101 633.159 190.565C633.159 191.029 632.975 191.473 632.647 191.801C632.319 192.129 631.874 192.313 631.411 192.313C631.18 192.316 630.951 192.272 630.738 192.185C630.524 192.098 630.33 191.969 630.167 191.807C630.003 191.644 629.874 191.45 629.786 191.237C629.698 191.024 629.653 190.796 629.654 190.565C629.653 190.334 629.698 190.106 629.786 189.893C629.874 189.679 630.003 189.486 630.167 189.323C630.33 189.161 630.524 189.032 630.738 188.945C630.951 188.858 631.18 188.814 631.411 188.816Z" fill="white" stroke="url(#paint38_linear_1_97)" stroke-width="1.09559" stroke-linecap="round" stroke-linejoin="round"/>
<path d="M641.29 194.705C641.752 194.708 642.195 194.893 642.521 195.22C642.847 195.548 643.03 195.991 643.03 196.454C643.03 196.916 642.847 197.36 642.521 197.687C642.195 198.015 641.752 198.2 641.29 198.202C640.826 198.202 640.382 198.018 640.054 197.69C639.726 197.362 639.542 196.917 639.542 196.454C639.542 195.99 639.726 195.545 640.054 195.217C640.382 194.89 640.826 194.705 641.29 194.705Z" fill="white" stroke="url(#paint39_linear_1_97)" stroke-width="1.09559" stroke-linecap="round" stroke-linejoin="round"/>
<path d="M651.161 200.594C651.39 200.594 651.617 200.639 651.829 200.727C652.041 200.815 652.233 200.944 652.394 201.106C652.556 201.269 652.684 201.462 652.771 201.674C652.858 201.886 652.902 202.113 652.901 202.342C652.902 202.571 652.858 202.798 652.771 203.009C652.684 203.221 652.556 203.413 652.394 203.575C652.232 203.737 652.04 203.865 651.828 203.952C651.617 204.039 651.39 204.084 651.161 204.082C650.932 204.084 650.705 204.039 650.493 203.952C650.281 203.865 650.088 203.737 649.925 203.576C649.763 203.414 649.634 203.222 649.546 203.01C649.458 202.798 649.413 202.571 649.413 202.342C649.413 202.113 649.458 201.885 649.546 201.673C649.634 201.461 649.763 201.268 649.925 201.106C650.087 200.944 650.28 200.815 650.492 200.727C650.704 200.639 650.932 200.594 651.161 200.594Z" fill="white" stroke="url(#paint40_linear_1_97)" stroke-width="1.09559" stroke-linecap="round" stroke-linejoin="round"/>
<path d="M571.953 310.639L562.428 306.343" stroke="white" stroke-width="1.09559" stroke-linecap="round" stroke-linejoin="round"/>
</g>
<path d="M743.836 303.23C743.836 303.23 734.309 313.881 735.311 315.814C736.312 317.747 744.347 322.599 744.838 319.699C745.778 315.059 746.434 310.37 746.803 305.656C746.881 302.263 747.372 301.297 743.836 303.23Z" fill="white" stroke="#000D19" stroke-width="1.11765" stroke-linecap="round" stroke-linejoin="round"/>
<path d="M748.885 280.487C748.885 280.487 742.363 294.038 741.852 296.938C741.341 299.837 744.367 303.723 744.367 305.182C744.367 306.641 740.438 310.981 740.438 317.766C740.438 324.551 739.907 340.035 745.801 343.901C751.694 347.767 761.851 343.408 761.851 343.408L771.378 361.318L809.509 340.035L803.989 331.791C803.989 331.791 812.023 310.943 805.953 295.005C799.883 279.066 778.45 276.621 769.826 276.053C761.202 275.484 751.891 274.688 748.885 280.487Z" fill="white"/>
<mask id="mask0_1_97" style="mask-type:luminance" maskUnits="userSpaceOnUse" x="740" y="275" width="70" height="87">
<path d="M748.885 280.487C748.885 280.487 742.363 294.038 741.852 296.938C741.341 299.837 744.367 303.723 744.367 305.182C744.367 306.641 740.438 310.981 740.438 317.766C740.438 324.551 739.907 340.035 745.801 343.901C751.694 347.767 761.851 343.408 761.851 343.408L771.378 361.318L809.509 340.035L803.989 331.791C803.989 331.791 812.023 310.943 805.953 295.005C799.883 279.066 778.45 276.621 769.826 276.053C761.202 275.484 751.891 274.688 748.885 280.487Z" fill="white"/>
</mask>
<g mask="url(#mask0_1_97)">
<path d="M804.067 331.791C804.067 331.791 812.102 310.943 806.032 295.005C799.962 279.066 778.529 276.621 769.905 276.053L765.642 275.806L754.484 284.259C754.484 284.259 745.329 296.881 749.258 301.941C753.187 307.001 755.8 312.042 754.484 320.268C753.168 328.493 744.485 342.669 753.187 343.01C754.975 343.01 757.804 343.313 761.163 343.617C761.411 343.536 761.653 343.441 761.89 343.332L762.086 343.711C774.934 344.981 794.441 347.502 794.441 347.502L796.406 347.388L809.587 340.035L804.067 331.791Z" fill="url(#paint41_linear_1_97)"/>
<path opacity="0.88" d="M804.067 331.791C804.067 331.791 812.102 310.943 806.032 295.005C799.962 279.066 778.529 276.621 769.905 276.053L765.642 275.806L754.484 284.259C754.484 284.259 745.329 296.881 749.258 301.941C753.187 307.001 755.8 312.042 754.484 320.268C753.168 328.493 744.485 342.669 753.187 343.01C754.975 343.01 757.804 343.313 761.163 343.617C761.411 343.536 761.653 343.441 761.89 343.332L762.086 343.711C774.934 344.981 794.441 347.502 794.441 347.502L796.406 347.388L809.587 340.035L804.067 331.791Z" fill="white"/>
</g>
<path d="M748.885 280.487C748.885 280.487 742.363 294.038 741.852 296.938C741.341 299.837 744.367 303.723 744.367 305.182C744.367 306.641 740.438 310.981 740.438 317.766C740.438 324.551 739.907 340.035 745.801 343.901C751.694 347.767 761.851 343.408 761.851 343.408L771.378 361.318L809.509 340.035L803.989 331.791C803.989 331.791 812.023 310.943 805.953 295.005C799.883 279.066 778.45 276.621 769.826 276.053C761.202 275.484 751.891 274.688 748.885 280.487Z" stroke="#000D19" stroke-width="1.11765" stroke-linecap="round" stroke-linejoin="round"/>
<path d="M801.062 265.477C801.062 265.477 782.497 260.152 766.448 260.645C750.398 261.137 734.328 265.477 734.839 273.702C735.35 281.928 750.378 284.846 750.378 284.846C750.378 284.846 758.924 285.32 756.409 287.746C753.894 290.172 747.372 295.005 752.48 300.823C757.588 306.641 762.499 311.474 761.006 313.407C759.513 315.34 761.517 319.756 763.481 318.24C765.446 316.724 762.479 310.981 767.999 309.048C773.52 307.115 779.04 315.34 777.036 320.666C775.032 325.991 771.516 325.498 773.52 329.384C775.523 333.269 788.076 339.542 796.602 339.542C805.128 339.542 807.643 328.891 816.679 311.948C825.716 295.005 819.626 270.329 801.062 265.477Z" fill="#000D19" stroke="#000D19" stroke-width="1.11765" stroke-linecap="round" stroke-linejoin="round"/>
<path d="M753.403 365.677L758.413 374.869L813.615 340.035L808.094 333.724C808.094 333.724 761.929 358.418 753.403 365.677Z" fill="white" stroke="#000D19" stroke-width="1.11765" stroke-linecap="round" stroke-linejoin="round"/>
<path d="M763.933 367.136C763.933 367.136 752.893 381.653 748.885 388.912C744.877 396.171 727.806 438.775 720.262 453.785C715.866 462.409 712.378 471.438 709.851 480.735H815.088C815.088 480.735 827.13 422.798 827.13 397.63C827.13 372.462 821.119 353.585 819.096 348.734C817.072 343.882 809.568 340.035 809.568 340.035L763.933 367.136Z" fill="white"/>
<mask id="mask1_1_97" style="mask-type:luminance" maskUnits="userSpaceOnUse" x="709" y="340" width="119" height="141">
<path d="M763.933 367.136C763.933 367.136 752.893 381.653 748.885 388.912C744.877 396.171 727.806 438.775 720.262 453.785C715.866 462.409 712.378 471.438 709.851 480.735H815.088C815.088 480.735 827.13 422.798 827.13 397.63C827.13 372.462 821.119 353.585 819.096 348.734C817.072 343.882 809.568 340.035 809.568 340.035L763.933 367.136Z" fill="white"/>
</mask>
<g mask="url(#mask1_1_97)">
<path d="M763.933 367.136C763.933 367.136 752.893 381.653 748.885 388.912C744.878 396.17 727.806 438.775 720.263 453.785C715.866 462.409 712.378 471.438 709.851 480.734H815.088C815.088 480.734 827.131 422.798 827.131 397.63C827.131 372.461 821.119 353.585 819.096 348.733C817.072 343.882 809.568 340.034 809.568 340.034L763.933 367.136Z" fill="#BDBDBD" stroke="#000D19" stroke-width="1.11765" stroke-linecap="round" stroke-linejoin="round"/>
<path d="M735.075 421.566C735.075 421.566 758.649 385.974 767.528 376.764C776.408 367.553 820.451 345.739 820.451 345.739L813.497 338.48C813.497 338.48 768.177 360.181 761.163 366.909C754.15 373.637 733.818 413.587 735.075 421.566Z" fill="#BDBDBD" stroke="#000D19" stroke-width="1.11765" stroke-linecap="round" stroke-linejoin="round"/>
</g>
<path d="M763.933 367.136C763.933 367.136 752.893 381.653 748.885 388.912C744.877 396.171 727.806 438.775 720.262 453.785C715.866 462.409 712.378 471.438 709.851 480.735H815.088C815.088 480.735 827.13 422.798 827.13 397.63C827.13 372.462 821.119 353.585 819.096 348.734C817.072 343.882 809.568 340.035 809.568 340.035L763.933 367.136Z" stroke="#000D19" stroke-width="1.11765" stroke-linecap="round" stroke-linejoin="round"/>
<path d="M792.948 367.136C792.948 367.136 765.446 384.553 761.34 391.338C757.234 398.123 760.849 408.755 760.849 410.29C760.849 411.825 756.822 416.582 756.822 418.041V422.874L735.212 479.029H784.324C784.324 479.029 805.403 429.659 809.411 419.975C813.418 410.29 815.442 392.854 813.34 383.189" stroke="#000D19" stroke-width="1.11765" stroke-linecap="round" stroke-linejoin="round"/>
<path d="M765.446 408.831C765.446 408.831 777.488 395.28 795.542 393.347" stroke="#000D19" stroke-width="1.11765" stroke-linecap="round" stroke-linejoin="round"/>
<path d="M882.352 309.56C882.352 309.56 847.699 302.87 837.994 310.887C828.29 318.903 833.829 367.743 831.059 380.441C828.29 393.138 821.355 406.519 824.125 419.88C826.895 433.241 833.142 442.622 835.912 449.312C838.682 456.002 835.205 480.735 835.205 480.735H936.356C936.356 480.735 954.37 434.587 954.37 399.829C954.37 365.07 943.33 334.918 926.71 323.547C910.091 312.175 882.352 309.56 882.352 309.56Z" fill="url(#paint42_linear_1_97)"/>
<mask id="mask2_1_97" style="mask-type:luminance" maskUnits="userSpaceOnUse" x="823" y="306" width="132" height="175">
<path d="M882.352 309.56C882.352 309.56 847.699 302.87 837.994 310.887C828.29 318.903 833.829 367.743 831.059 380.441C828.29 393.138 821.355 406.519 824.125 419.88C826.895 433.241 833.142 442.622 835.912 449.312C838.682 456.002 835.205 480.735 835.205 480.735H936.356C936.356 480.735 954.37 434.587 954.37 399.829C954.37 365.07 943.33 334.918 926.71 323.547C910.091 312.175 882.352 309.56 882.352 309.56Z" fill="white"/>
</mask>
<g mask="url(#mask2_1_97)">
<path opacity="0.26" d="M845.243 330.445C835.421 346.232 846.559 432.786 849.172 440.992C851.785 449.199 832.808 441.637 838.701 446.053C844.595 450.468 855.812 458.106 855.812 458.106C855.812 458.106 843.907 453.197 836.54 451.208C836.885 453.187 837.063 455.19 837.071 457.196C843.651 462.137 850.569 466.645 857.776 470.69L836.265 472.415C835.814 477.191 835.303 480.735 835.303 480.735H936.356C936.356 480.735 954.37 434.587 954.37 399.829C954.483 385.34 952.384 370.915 948.143 357.016L887.754 332.378C887.754 332.378 855.065 314.658 845.243 330.445Z" fill="#000D19"/>
</g>
<path d="M882.352 309.56C882.352 309.56 847.699 302.87 837.994 310.887C828.29 318.903 833.829 367.743 831.059 380.441C828.29 393.138 821.355 406.519 824.125 419.88C826.895 433.241 833.142 442.622 835.912 449.312C838.682 456.002 835.205 480.735 835.205 480.735H936.356C936.356 480.735 954.37 434.587 954.37 399.829C954.37 365.07 943.33 334.918 926.71 323.547C910.091 312.175 882.352 309.56 882.352 309.56Z" stroke="#000D19" stroke-width="1.11765" stroke-linecap="round" stroke-linejoin="round"/>
<path d="M881.645 189.195C881.645 189.195 866.401 177.161 851.844 185.841C837.287 194.521 812.338 234.661 815.108 254.713C817.878 274.764 842.847 293.507 826.207 304.196C809.568 314.885 815.815 334.292 824.125 339.637L828.977 340.319C828.977 340.319 828.977 320.912 842.847 315.568C856.716 310.223 876.793 314.904 881.645 320.912C886.497 326.92 877.421 357.66 889.208 365.715C900.995 373.769 917.634 375.077 914.177 383.113C910.719 391.148 898.913 403.827 906.535 415.199C914.157 426.57 932.879 437.941 939.126 433.923C945.373 429.905 936.356 425.224 939.813 422.552C943.271 419.88 971.697 410.517 966.845 399.146C961.992 387.775 951.6 381.767 956.453 377.086C961.305 372.405 979.319 361.034 977.237 345C975.154 328.967 935.649 316.913 934.274 299.515C932.898 282.117 957.847 280.127 949.518 240.764C941.189 201.401 915.552 183.908 903.078 183.908C895.587 183.912 888.218 185.73 881.645 189.195Z" fill="#000D19" stroke="#000D19" stroke-width="1.11765" stroke-linecap="round" stroke-linejoin="round"/>
<path d="M895.102 210.175C905.553 224.143 918.675 244.763 919.127 260.341C919.776 286.287 896.163 297.033 900.091 317.198C904.02 337.362 949.891 340.925 953.231 358.892C956.57 376.859 935.55 370.263 940.756 380.403C945.962 390.542 966.294 399.355 957.828 410.726" stroke="white" stroke-width="1.11765" stroke-linecap="round" stroke-linejoin="round"/>
<path d="M882.333 194.521C882.333 194.521 884.533 196.966 887.853 201.022" stroke="white" stroke-width="1.11765" stroke-linecap="round" stroke-linejoin="round"/>
<path d="M871.94 297.108C874.337 299.534 875.869 301.79 875.869 304.007" stroke="white" stroke-width="1.11765" stroke-linecap="round" stroke-linejoin="round"/>
<path d="M831.826 219.841C831.826 219.841 821.335 247.738 837.071 266.69C845.459 276.792 855.891 284.221 863.808 290.286" stroke="white" stroke-width="1.11765" stroke-linecap="round" stroke-linejoin="round"/>
<path d="M926.298 335.24C929.343 336.32 932.663 337.23 936.12 338.178" stroke="white" stroke-width="1.11765" stroke-linecap="round" stroke-linejoin="round"/>
<path d="M930.207 214.155C930.207 214.155 952.504 241.351 944.646 264.776C936.788 288.201 910.542 300.785 910.542 315.947C910.268 320.571 911.867 325.117 915.002 328.626" stroke="white" stroke-width="1.11765" stroke-linecap="round" stroke-linejoin="round"/>
<path d="M665.257 458.447C665.257 458.447 661.092 463.375 661.092 466.464C661.092 469.553 659.501 475.732 661.426 475.94C663.352 476.148 664.609 469.458 666.534 466.995C668.459 464.531 673.253 463.905 672.938 460.513C672.624 457.121 668.086 454.107 665.257 458.447Z" fill="white" stroke="#000D19" stroke-width="1.11765" stroke-linecap="round" stroke-linejoin="round"/>
<path d="M711.305 462.768C711.305 462.768 693.369 448.251 688.831 446.735C684.293 445.219 675.374 455.074 669.933 464.645C664.491 474.215 667.379 476.395 670.267 476.698C673.154 477.001 685.629 471.752 685.629 471.752C690.051 475.145 695.186 477.57 700.677 478.859C709.32 480.754 721.795 475.769 722.129 470.823C722.463 465.876 711.305 462.768 711.305 462.768Z" fill="white" stroke="#000D19" stroke-width="1.11765" stroke-linecap="round" stroke-linejoin="round"/>
<path d="M878.188 363.668C878.188 363.668 878.875 464.683 876.105 472.699C873.335 480.716 863.631 480.735 847.699 481.398C831.767 482.062 734.721 479.389 734.721 479.389C729.211 480.184 723.653 480.633 718.082 480.735C710.46 480.735 697.278 479.389 692.426 476.054C687.574 472.718 683.429 472.036 681.346 472.699C679.264 473.363 673.724 480.072 668.872 480.072C664.02 480.072 658.48 478.063 661.937 477.38C665.395 476.698 684.116 457.329 688.281 457.329C692.446 457.329 722.227 464.682 727.787 464.019C733.346 463.356 832.435 444.631 832.435 444.631L828.977 340.395C828.977 340.395 825.5 322.334 842.846 315.644" fill="url(#paint43_linear_1_97)"/>
<mask id="mask3_1_97" style="mask-type:luminance" maskUnits="userSpaceOnUse" x="660" y="315" width="219" height="167">
<path d="M878.188 363.668C878.188 363.668 878.875 464.683 876.105 472.699C873.335 480.716 863.631 480.735 847.699 481.398C831.767 482.062 734.721 479.389 734.721 479.389C729.211 480.184 723.653 480.633 718.082 480.735C710.46 480.735 697.278 479.389 692.426 476.054C687.574 472.718 683.429 472.036 681.346 472.699C679.264 473.363 673.724 480.072 668.872 480.072C664.02 480.072 658.48 478.063 661.937 477.38C665.395 476.698 684.116 457.329 688.281 457.329C692.446 457.329 722.227 464.682 727.787 464.019C733.346 463.356 832.435 444.631 832.435 444.631L828.977 340.395C828.977 340.395 825.5 322.334 842.846 315.644" fill="white"/>
</mask>
<g mask="url(#mask3_1_97)">
<path opacity="0.26" d="M850.567 325.669C848.352 326.733 846.503 328.391 845.243 330.445C835.421 346.232 846.559 432.786 849.172 440.992C851.785 449.199 832.808 441.637 838.702 446.053C844.595 450.468 855.812 458.106 855.812 458.106C855.812 458.106 823.732 444.84 832.238 453.065C840.745 461.29 857.777 470.747 857.777 470.747L745.801 479.749C771.693 480.413 835.107 481.986 847.738 481.455C863.67 480.792 873.375 480.792 876.145 472.756C878.914 464.72 878.227 361.773 878.227 361.773L850.567 325.669Z" fill="#000D19"/>
</g>
<path d="M878.188 363.668C878.188 363.668 878.875 464.683 876.105 472.699C873.335 480.716 863.631 480.735 847.699 481.398C831.767 482.062 734.721 479.389 734.721 479.389C729.211 480.184 723.653 480.633 718.082 480.735C710.46 480.735 697.278 479.389 692.426 476.054C687.574 472.718 683.429 472.036 681.346 472.699C679.264 473.363 673.724 480.072 668.872 480.072C664.02 480.072 658.48 478.063 661.937 477.38C665.395 476.698 684.116 457.329 688.281 457.329C692.446 457.329 722.227 464.682 727.787 464.019C733.346 463.356 832.435 444.631 832.435 444.631L828.977 340.395C828.977 340.395 825.5 322.334 842.846 315.644" stroke="#000D19" stroke-width="1.11765" stroke-linecap="round" stroke-linejoin="round"/>
<path d="M763.58 480.147C761.442 472.589 761.918 464.565 764.935 457.291C745.997 460.816 729.928 463.754 727.787 464.019C722.227 464.683 692.426 457.329 688.281 457.329C684.136 457.329 665.395 476.717 661.937 477.38C658.48 478.044 664.02 480.072 668.872 480.072C673.724 480.072 679.264 473.382 681.346 472.699C683.429 472.017 687.574 472.699 692.426 476.054C697.278 479.408 710.46 480.735 718.082 480.735C723.653 480.633 729.211 480.184 734.721 479.389L763.58 480.147Z" fill="white" stroke="#000D19" stroke-width="1.11765" stroke-linecap="round" stroke-linejoin="round"/>
<path d="M672.565 451.34C669.53 453.075 666.997 455.519 665.198 458.447C663.234 462.446 665.198 474.803 668.4 474.803C671.602 474.803 673.842 471.41 673.842 467.089C673.842 462.768 672.565 451.34 672.565 451.34Z" fill="white" stroke="#000D19" stroke-width="1.11765" stroke-linecap="round" stroke-linejoin="round"/>
<path d="M677.044 448.857C677.044 448.857 671.917 449.18 669.992 452.875C668.066 456.571 668.4 472.339 671.602 472.945C674.805 473.552 676.081 468.321 676.081 464.929C676.081 461.536 677.044 448.857 677.044 448.857Z" fill="white" stroke="#000D19" stroke-width="1.11765" stroke-linecap="round" stroke-linejoin="round"/>
<path d="M688.831 446.735C688.831 446.735 681.15 445.503 677.948 447.663C674.746 449.824 674.019 468.984 676.337 470.52C678.655 472.055 682.427 468.056 682.427 465.895C682.427 463.735 686.906 451.984 686.906 451.984" fill="white"/>
<path d="M688.831 446.735C688.831 446.735 681.15 445.503 677.948 447.663C674.746 449.824 674.019 468.984 676.337 470.52C678.655 472.055 682.427 468.056 682.427 465.895C682.427 463.735 686.906 451.984 686.906 451.984" stroke="#000D19" stroke-width="1.11765" stroke-linecap="round" stroke-linejoin="round"/>
<mask id="mask4_1_97" style="mask-type:luminance" maskUnits="userSpaceOnUse" x="361" y="145" width="324" height="336">
<path d="M684.784 145.928H361.411V480.867H684.784V145.928Z" fill="white"/>
</mask>
<g mask="url(#mask4_1_97)">
<path d="M496.528 383.511C496.528 383.511 487.334 396.967 491.204 403.505C495.074 410.044 509.12 423.575 538.136 421.699C567.151 419.823 549.746 372.689 553.125 343.768C556.503 314.847 543.95 310.621 533.774 318.088C523.598 325.555 511.045 361.451 506.134 367.572C502.467 372.611 499.253 377.943 496.528 383.511Z" fill="url(#paint44_linear_1_97)"/>
<mask id="mask5_1_97" style="mask-type:luminance" maskUnits="userSpaceOnUse" x="490" y="314" width="66" height="108">
<path d="M496.528 383.511C496.528 383.511 487.334 396.967 491.204 403.505C495.074 410.044 509.12 423.575 538.136 421.699C567.151 419.823 549.746 372.689 553.125 343.768C556.503 314.847 543.95 310.621 533.774 318.088C523.598 325.555 511.045 361.451 506.134 367.572C502.467 372.611 499.253 377.943 496.528 383.511Z" fill="white"/>
</mask>
<g mask="url(#mask5_1_97)">
<path opacity="0.42" d="M496.528 383.511C496.528 383.511 487.334 396.967 491.204 403.505C495.074 410.044 509.12 423.575 538.136 421.699C567.151 419.823 549.746 372.689 553.125 343.768C556.503 314.847 543.95 310.621 533.774 318.088C523.598 325.555 511.045 361.451 506.134 367.572C502.467 372.611 499.253 377.943 496.528 383.511Z" fill="#000D19" stroke="#000D19" stroke-width="1.11765" stroke-linecap="round" stroke-linejoin="round"/>
</g>
<path d="M496.528 383.511C496.528 383.511 487.334 396.967 491.204 403.505C495.074 410.044 509.12 423.575 538.136 421.699C567.151 419.823 549.746 372.689 553.125 343.768C556.503 314.847 543.95 310.621 533.774 318.088C523.598 325.555 511.045 361.451 506.134 367.572C502.467 372.611 499.253 377.943 496.528 383.511Z" stroke="#000D19" stroke-width="1.11765" stroke-linecap="round" stroke-linejoin="round"/>
<path d="M531.849 391.357C531.849 391.357 531.849 432.9 532.34 445.977C532.831 459.054 534.757 490.779 534.757 490.779H625.693L620.86 396.019L619.406 391.338L531.849 391.357Z" fill="#000D19" stroke="#000D19" stroke-width="1.11765" stroke-linecap="round" stroke-linejoin="round"/>
<path d="M584.772 402.368L621.253 403.771L620.86 396.038L619.406 391.357H584.203L584.772 402.368Z" fill="white" stroke="#000D19" stroke-width="1.11765" stroke-linecap="round" stroke-linejoin="round"/>
<path d="M541.495 391.357H531.829C531.829 391.357 531.829 394.958 531.829 400.321L541.475 400.7L541.495 391.357Z" fill="white" stroke="#000D19" stroke-width="1.11765" stroke-linecap="round" stroke-linejoin="round"/>
<path d="M544.618 391.357L545.149 400.833L578.191 402.122L577.857 391.357H544.618Z" fill="white" stroke="#000D19" stroke-width="1.11765" stroke-linecap="round" stroke-linejoin="round"/>
<path d="M532.34 319.491C532.34 319.491 531.849 373.163 532.34 381.559C532.831 389.954 528.411 392.759 535.719 394.162C543.027 395.564 602.001 396.967 607.796 396.057C613.591 395.147 613.689 392.267 615.065 389.519C616.44 386.77 635.79 266.69 631.507 263.487C627.225 260.285 599.585 250.429 597.149 250.429C594.713 250.429 558.939 252.325 552.162 253.215C545.384 254.106 537.644 252.287 537.173 256.02C536.701 259.754 532.34 319.491 532.34 319.491Z" fill="white"/>
<mask id="mask6_1_97" style="mask-type:luminance" maskUnits="userSpaceOnUse" x="531" y="250" width="102" height="147">
<path d="M532.34 319.491C532.34 319.491 531.849 373.163 532.34 381.559C532.831 389.954 528.411 392.759 535.719 394.162C543.027 395.564 602.001 396.967 607.796 396.057C613.591 395.147 613.689 392.267 615.065 389.519C616.44 386.77 635.79 266.69 631.507 263.487C627.225 260.285 599.585 250.429 597.149 250.429C594.713 250.429 558.939 252.325 552.162 253.215C545.384 254.106 537.644 252.287 537.173 256.02C536.701 259.754 532.34 319.491 532.34 319.491Z" fill="white"/>
</mask>
<g mask="url(#mask6_1_97)">
<path d="M561.984 268.244C561.984 268.244 550.649 267.714 548.488 268.756C547.27 269.344 539.844 286.931 533.617 302.093C532.89 311.967 532.34 319.491 532.34 319.491C532.34 319.491 531.849 373.163 532.34 381.559C532.654 387.074 530.906 390.163 531.692 392.039C534.147 383.833 538.057 369.619 542.555 349.435C550.119 315.606 561.984 268.244 561.984 268.244Z" fill="#BDBDBD"/>
</g>
<path d="M532.34 319.491C532.34 319.491 531.849 373.163 532.34 381.559C532.831 389.954 528.411 392.759 535.719 394.162C543.027 395.564 602.001 396.967 607.796 396.057C613.591 395.147 613.689 392.267 615.065 389.519C616.44 386.77 635.79 266.69 631.507 263.487C627.225 260.285 599.585 250.429 597.149 250.429C594.713 250.429 558.939 252.325 552.162 253.215C545.384 254.106 537.644 252.287 537.173 256.02C536.701 259.754 532.34 319.491 532.34 319.491Z" stroke="#000D19" stroke-width="1.11765" stroke-linecap="round" stroke-linejoin="round"/>
<path d="M431.7 290.096C431.7 290.096 414.295 281.681 408.008 280.298C401.722 278.914 381.389 274.271 379.936 276.166C378.482 278.061 380.427 279.957 382.372 279.957C384.317 279.957 396.87 285.093 396.87 285.093C396.87 285.093 395.436 296.293 395.436 299.098C395.436 301.903 410.916 307.494 414.295 307.949C417.673 308.404 424.49 305.94 424.49 305.94L429.284 304.689L431.7 290.096Z" fill="white" stroke="#000D19" stroke-width="1.11765" stroke-linecap="round" stroke-linejoin="round"/>
<path d="M395.435 286.817C395.435 286.817 393.471 299.42 394.944 300.823C396.418 302.225 406.554 308.764 408.008 305.485C409.462 302.206 408.971 289.622 408.971 288.22C408.971 286.817 395.435 286.817 395.435 286.817Z" fill="white" stroke="#000D19" stroke-width="1.11765" stroke-linecap="round" stroke-linejoin="round"/>
<path d="M425.905 290.551C425.905 290.551 409.462 284.486 405.592 284.486C401.722 284.486 395.435 289.622 392.037 290.551C388.638 291.479 393 294.341 395.435 293.829C397.871 293.318 404.61 291.498 404.61 291.498C406.114 294.274 408.274 296.67 410.916 298.492C414.845 300.823 422.997 299.42 422.997 299.42" fill="white"/>
<path d="M425.905 290.551C425.905 290.551 409.462 284.486 405.592 284.486C401.722 284.486 395.435 289.622 392.037 290.551C388.638 291.479 393 294.341 395.435 293.829C397.871 293.318 404.61 291.498 404.61 291.498C406.114 294.274 408.274 296.67 410.916 298.492C414.845 300.823 422.997 299.42 422.997 299.42" stroke="#000D19" stroke-width="1.11765" stroke-linecap="round" stroke-linejoin="round"/>
<path d="M573.339 250.088C573.339 250.088 544.324 247.681 538.43 248.951C532.537 250.221 518.785 282.439 516.821 286.855C514.856 291.271 493.247 311.493 493.247 311.493L431.052 288.125L424.49 305.807C424.49 305.807 474.919 337.4 483.425 341.191C491.931 344.981 503.737 344.393 507.666 344.393C510.549 344.113 513.283 343.019 515.524 341.247L496.528 383.567C496.528 383.567 527.311 348.184 536.466 331.127C545.62 314.07 566.601 264.169 568.565 262.9C570.53 261.63 573.339 250.088 573.339 250.088Z" fill="url(#paint45_linear_1_97)"/>
<mask id="mask7_1_97" style="mask-type:luminance" maskUnits="userSpaceOnUse" x="424" y="248" width="150" height="136">
<path d="M573.339 250.088C573.339 250.088 544.324 247.681 538.43 248.951C532.537 250.221 518.785 282.439 516.821 286.855C514.856 291.271 493.247 311.493 493.247 311.493L431.052 288.125L424.49 305.807C424.49 305.807 474.919 337.4 483.425 341.191C491.931 344.981 503.737 344.393 507.666 344.393C510.549 344.113 513.283 343.019 515.524 341.247L496.528 383.567C496.528 383.567 527.311 348.184 536.466 331.127C545.62 314.07 566.601 264.169 568.565 262.9C570.53 261.63 573.339 250.088 573.339 250.088Z" fill="white"/>
</mask>
<g mask="url(#mask7_1_97)">
<path opacity="0.26" d="M506.134 323.433C504.563 323.433 502.461 322.428 500.359 322.428C498.257 322.428 502.991 330.009 501.93 332.567C500.869 335.126 425.63 304.139 425.63 304.139L425.59 306.489C432.702 310.943 475.685 337.741 483.484 341.229C492.01 345.019 503.796 344.375 507.725 344.375C510.298 344.181 512.759 343.28 514.817 341.778C520.554 327.64 524.64 304.177 524.64 304.177C524.64 304.177 507.765 323.433 506.134 323.433Z" fill="#000D19"/>
</g>
<path d="M573.339 250.088C573.339 250.088 544.324 247.681 538.43 248.951C532.537 250.221 518.785 282.439 516.821 286.855C514.856 291.271 493.247 311.493 493.247 311.493L431.052 288.125L424.49 305.807C424.49 305.807 474.919 337.4 483.425 341.191C491.931 344.981 503.737 344.393 507.666 344.393C510.549 344.113 513.283 343.019 515.524 341.247L496.528 383.567C496.528 383.567 527.311 348.184 536.466 331.127C545.62 314.07 566.601 264.169 568.565 262.9C570.53 261.63 573.339 250.088 573.339 250.088Z" stroke="#000D19" stroke-width="1.11765" stroke-linecap="round" stroke-linejoin="round"/>
<path d="M573.339 250.088L565.265 257.46L565.697 272.205L574.184 264.435L573.339 250.088Z" fill="white" stroke="#000D19" stroke-width="1.11765" stroke-linecap="round" stroke-linejoin="round"/>
<path d="M558.055 178.241C558.055 178.241 549.372 191.109 549.922 193.82C550.473 196.53 551.887 199.259 551.887 201.4C551.887 203.542 542.065 211.104 543.204 212.772C544.343 214.439 549.903 217.093 549.903 217.093C549.903 217.093 549.667 238.092 554.677 240.783C559.686 243.474 569.214 239.172 569.214 239.172L574.223 266.103L602.708 246.715V227.27C602.708 227.27 619.465 208.943 620.585 194.407C621.705 179.871 600.94 163.705 580.372 160.995C559.804 158.284 548.547 171.778 551.887 176.156C555.227 180.534 558.055 178.241 558.055 178.241Z" fill="white"/>
<mask id="mask8_1_97" style="mask-type:luminance" maskUnits="userSpaceOnUse" x="543" y="160" width="78" height="107">
<path d="M558.055 178.241C558.055 178.241 549.372 191.109 549.922 193.82C550.473 196.53 551.887 199.259 551.887 201.4C551.887 203.542 542.065 211.104 543.204 212.772C544.343 214.439 549.903 217.093 549.903 217.093C549.903 217.093 549.667 238.092 554.677 240.783C559.686 243.474 569.214 239.172 569.214 239.172L574.223 266.103L602.708 246.715V227.27C602.708 227.27 619.465 208.943 620.585 194.407C621.705 179.871 600.94 163.705 580.372 160.995C559.804 158.284 548.547 171.778 551.887 176.156C555.227 180.534 558.055 178.241 558.055 178.241Z" fill="white"/>
</mask>
<g mask="url(#mask8_1_97)">
<path d="M592.1 253.898L602.728 246.658V227.27C602.728 227.27 619.485 208.943 620.605 194.407C621.331 184.931 612.747 174.697 600.96 168.026L571.335 179.871C571.335 179.871 557.427 191.659 559.254 193.232C561.081 194.805 566.424 201.438 565.147 204.452C565.147 204.452 560.177 206.347 560.688 209.645C561.199 212.942 572.769 234.282 572.769 234.282L569.312 239.172L592.1 253.898Z" fill="url(#paint46_linear_1_97)"/>
<path opacity="0.88" d="M592.1 253.898L602.728 246.658V227.27C602.728 227.27 619.485 208.943 620.605 194.407C621.331 184.931 612.747 174.697 600.96 168.026L571.335 179.871C571.335 179.871 557.427 191.659 559.254 193.232C561.081 194.805 566.424 201.438 565.147 204.452C565.147 204.452 560.177 206.347 560.688 209.645C561.199 212.942 572.769 234.282 572.769 234.282L569.312 239.172L592.1 253.898Z" fill="white"/>
</g>
<path d="M558.055 178.241C558.055 178.241 549.372 191.109 549.922 193.82C550.473 196.53 551.887 199.259 551.887 201.4C551.887 203.542 542.065 211.104 543.204 212.772C544.343 214.439 549.903 217.093 549.903 217.093C549.903 217.093 549.667 238.092 554.677 240.783C559.686 243.474 569.214 239.172 569.214 239.172L574.223 266.103L602.708 246.715V227.27C602.708 227.27 619.465 208.943 620.585 194.407C621.705 179.871 600.94 163.705 580.372 160.995C559.804 158.284 548.547 171.778 551.887 176.156C555.227 180.534 558.055 178.241 558.055 178.241Z" stroke="#000D19" stroke-width="1.11765" stroke-linecap="round" stroke-linejoin="round"/>
<path d="M602.394 250.884C602.394 250.884 596.107 272.357 588.367 299.42C580.627 326.484 582.081 410.498 582.081 415.161C582.081 419.823 593.2 436.633 605.792 441.296C614.014 444.248 622.599 446.159 631.33 446.981C631.33 446.981 622.628 391.433 622.628 375.57C622.628 359.707 630.545 334.918 630.545 334.918C630.545 334.918 642.155 362.91 646.987 366.643C651.82 370.377 671.17 374.584 670.699 357.319C670.227 340.054 653.765 278.441 649.404 272.376C645.043 266.311 624.239 260.247 624.239 260.247L602.394 250.884Z" fill="url(#paint47_linear_1_97)"/>
<mask id="mask9_1_97" style="mask-type:luminance" maskUnits="userSpaceOnUse" x="581" y="250" width="90" height="197">
<path d="M602.394 250.884C602.394 250.884 596.107 272.357 588.367 299.42C580.627 326.484 582.081 410.498 582.081 415.161C582.081 419.823 593.2 436.633 605.792 441.296C614.014 444.248 622.599 446.159 631.33 446.981C631.33 446.981 622.628 391.433 622.628 375.57C622.628 359.707 630.545 334.918 630.545 334.918C630.545 334.918 642.155 362.91 646.987 366.643C651.82 370.377 671.17 374.584 670.699 357.319C670.227 340.054 653.765 278.441 649.404 272.376C645.043 266.311 624.239 260.247 624.239 260.247L602.394 250.884Z" fill="white"/>
</mask>
<g mask="url(#mask9_1_97)">
<g opacity="0.26">
<path d="M622.804 375.494C611.803 378.223 603.003 380.213 603.003 380.213C603.003 380.213 616.479 406.234 621.881 406.234H625.692C624.101 393.669 622.804 381.615 622.804 375.494Z" fill="#000D19"/>
<path d="M633.216 298.435C639.11 304.67 651.545 301.543 651.545 303.628C651.545 305.713 641.84 310.394 645.651 317.69C649.463 324.987 671.563 356.201 665.08 361.924C663.214 363.592 657.222 365.81 649.718 368.122C656.751 371.116 671.15 372.215 670.738 357.3C670.247 340.035 653.804 278.422 649.443 272.357C649.404 272.376 627.264 292.181 633.216 298.435Z" fill="#000D19"/>
<path d="M617.5 305.713C615.878 307.079 614.701 308.869 614.112 310.867C613.523 312.865 613.547 314.985 614.18 316.97C616.4 323.945 624.73 330.919 622.51 334.671C620.29 338.424 603.611 335.733 604.181 341.096C604.751 346.46 622.038 364.161 622.038 364.161L629.248 332.53L617.5 305.713Z" fill="#000D19"/>
</g>
</g>
<path d="M602.394 250.884C602.394 250.884 596.107 272.357 588.367 299.42C580.627 326.484 582.081 410.498 582.081 415.161C582.081 419.823 593.2 436.633 605.792 441.296C614.014 444.248 622.599 446.159 631.33 446.981C631.33 446.981 622.628 391.433 622.628 375.57C622.628 359.707 630.545 334.918 630.545 334.918C630.545 334.918 642.155 362.91 646.987 366.643C651.82 370.377 671.17 374.584 670.699 357.319C670.227 340.054 653.765 278.441 649.404 272.376C645.043 266.311 624.239 260.247 624.239 260.247L602.394 250.884Z" stroke="#000D19" stroke-width="1.11765" stroke-linecap="round" stroke-linejoin="round"/>
<path d="M602.649 241.484L577.582 258.692L579.291 273.854L606.892 249.69L602.649 241.484Z" fill="white" stroke="#000D19" stroke-width="1.11765" stroke-linecap="round" stroke-linejoin="round"/>
<path d="M610.703 367.572C610.703 367.572 592.316 359.631 590.862 359.631C589.408 359.631 574.891 367.136 572.003 367.136C569.115 367.136 567.642 369.031 569.587 370.396C571.2 371.313 573.038 371.798 574.911 371.798C574.911 371.798 568.133 375.589 568.624 377.484C569.115 379.379 572.966 380.744 572.966 380.744C574.952 383.683 577.825 385.965 581.197 387.282C586.03 388.685 602.963 383.075 602.963 383.075L616.027 382.146L610.703 367.572Z" fill="white"/>
<mask id="mask10_1_97" style="mask-type:luminance" maskUnits="userSpaceOnUse" x="568" y="359" width="49" height="29">
<path d="M610.703 367.572C610.703 367.572 592.316 359.631 590.862 359.631C589.408 359.631 574.891 367.136 572.003 367.136C569.115 367.136 567.642 369.031 569.587 370.396C571.2 371.313 573.038 371.798 574.911 371.798C574.911 371.798 568.133 375.589 568.624 377.484C569.115 379.379 572.966 380.744 572.966 380.744C574.952 383.683 577.825 385.965 581.197 387.282C586.03 388.685 602.963 383.075 602.963 383.075L616.027 382.146L610.703 367.572Z" fill="white"/>
</mask>
<g mask="url(#mask10_1_97)">
<path d="M590.823 367.724C584.929 368.975 572.966 380.63 572.966 380.63C574.952 383.57 577.825 385.852 581.197 387.169C586.029 388.571 602.963 382.961 602.963 382.961L616.027 382.033L610.703 367.572C610.703 367.572 596.716 366.454 590.823 367.724Z" fill="url(#paint48_linear_1_97)"/>
<path opacity="0.5" d="M590.823 367.724C584.929 368.975 572.966 380.63 572.966 380.63C574.952 383.57 577.825 385.852 581.197 387.169C586.029 388.571 602.963 382.961 602.963 382.961L616.027 382.033L610.703 367.572C610.703 367.572 596.716 366.454 590.823 367.724Z" fill="white"/>
</g>
<path d="M610.703 367.572C610.703 367.572 592.316 359.631 590.862 359.631C589.408 359.631 574.891 367.136 572.003 367.136C569.115 367.136 567.642 369.031 569.587 370.396C571.2 371.313 573.038 371.798 574.911 371.798C574.911 371.798 568.133 375.589 568.624 377.484C569.115 379.379 572.966 380.744 572.966 380.744C574.952 383.683 577.825 385.965 581.197 387.282C586.03 388.685 602.963 383.075 602.963 383.075L616.027 382.146L610.703 367.572Z" stroke="#000D19" stroke-width="1.11765" stroke-linecap="round" stroke-linejoin="round"/>
<path d="M654.728 347.502L609.25 365.241L612.629 383.909C612.629 383.909 673.528 375.513 676.494 371.324C679.46 367.136 668.263 343.313 668.263 343.313" fill="url(#paint49_linear_1_97)"/>
<mask id="mask11_1_97" style="mask-type:luminance" maskUnits="userSpaceOnUse" x="609" y="343" width="68" height="41">
<path d="M654.728 347.502L609.25 365.241L612.629 383.909C612.629 383.909 673.528 375.513 676.494 371.324C679.46 367.136 668.263 343.313 668.263 343.313" fill="white"/>
</mask>
<g mask="url(#mask11_1_97)">
<path opacity="0.26" d="M611.588 378.147L612.629 383.833C612.629 383.833 673.528 375.437 676.494 371.248C679.461 367.06 668.263 343.237 668.263 343.237L661.761 345.265C665.513 352.846 667.654 359.517 665.041 361.867C660.169 366.245 627.461 374.394 611.588 378.147Z" fill="#000D19"/>
</g>
<path d="M654.728 347.502L609.25 365.241L612.629 383.909C612.629 383.909 673.528 375.513 676.494 371.324C679.46 367.136 668.263 343.313 668.263 343.313" stroke="#000D19" stroke-width="1.11765" stroke-linecap="round" stroke-linejoin="round"/>
<path d="M515.524 341.191C515.524 341.191 524.6 307.361 527.488 288.694L515.524 341.191Z" fill="white"/>
<path d="M515.524 341.191C515.524 341.191 524.6 307.361 527.488 288.694" stroke="#000D19" stroke-width="1.11765" stroke-linecap="round" stroke-linejoin="round"/>
<path d="M555.56 438.32L568.624 448.838L570.785 490.836" stroke="white" stroke-width="1.11765" stroke-linecap="round" stroke-linejoin="round"/>
<path d="M630.545 334.918L617.697 312.175C617.697 312.175 613.984 307.399 621.41 295.459" stroke="#000D19" stroke-width="1.11765" stroke-linecap="round" stroke-linejoin="round"/>
<path d="M580.391 160.995C559.725 158.303 548.567 171.778 551.906 176.156C552.734 177.414 554.003 178.343 555.482 178.772L558.055 178.317C558.055 178.317 577.052 178.847 575.932 184.779C574.812 190.711 563.634 191.242 568.074 196.151C569.251 197.389 570.569 198.495 572.003 199.448H571.355C572.557 200.441 573.477 201.713 574.027 203.144C574.793 205.342 570.589 223.783 569.823 225.261C569.056 226.739 564.852 224.882 559.509 221.205C556.721 219.117 553.441 217.724 549.962 217.149L549.588 220.466C549.588 220.466 554.932 221.925 555.698 224.882C556.464 227.838 551.494 228.199 551.494 230.776C551.494 233.353 551.121 238.016 554.735 240.84C558.35 243.663 569.273 239.229 569.273 239.229C569.273 239.229 577.464 233.733 578.623 227.857C579.547 223.025 580.234 214.591 581.079 210.384C582.293 208.963 583.384 207.448 584.34 205.854C584.34 205.854 593.278 203.694 590.489 212.317C587.699 220.94 582.101 220.94 582.101 220.94C588.449 224.477 595.483 226.715 602.767 227.516V227.403C602.767 227.403 619.524 209.076 620.644 194.54C621.763 180.003 601.058 163.705 580.391 160.995Z" fill="#000D19" stroke="#000D19" stroke-width="1.11765" stroke-linecap="round" stroke-linejoin="round"/>
</g>
<path d="M633.138 433.715H600.056V480.868H633.138V433.715Z" fill="white" stroke="#000D19" stroke-width="1.11765" stroke-linecap="round" stroke-linejoin="round"/>
<path d="M631.664 474.443H628.207C627.83 474.474 627.451 474.429 627.093 474.311C626.735 474.193 626.407 474.005 626.128 473.758C625.85 473.511 625.627 473.211 625.475 472.877C625.323 472.543 625.245 472.183 625.245 471.818C625.245 471.453 625.323 471.092 625.475 470.758C625.627 470.424 625.85 470.124 626.128 469.878C626.407 469.631 626.735 469.443 627.093 469.325C627.451 469.207 627.83 469.162 628.207 469.193H631.664C633.034 469.193 634.349 468.668 635.318 467.733C636.286 466.798 636.831 465.53 636.831 464.209V452.837C636.831 451.515 636.286 450.248 635.318 449.313C634.349 448.378 633.034 447.853 631.664 447.853H627.224C626.5 447.853 625.806 447.575 625.294 447.081C624.782 446.587 624.494 445.917 624.494 445.219C624.494 444.52 624.782 443.85 625.294 443.356C625.806 442.862 626.5 442.584 627.224 442.584H631.664C634.481 442.589 637.182 443.671 639.173 445.593C641.165 447.515 642.287 450.12 642.292 452.837V464.209C642.287 466.925 641.165 469.528 639.172 471.446C637.18 473.365 634.479 474.443 631.664 474.443Z" fill="white" stroke="#000D19" stroke-width="1.11765" stroke-linecap="round" stroke-linejoin="round"/>
<path d="M457.788 480.242H367.893C367.553 480.244 367.219 480.15 366.932 479.972C366.646 479.793 366.42 479.538 366.282 479.237L341.392 424.485C341.267 424.221 341.214 423.929 341.239 423.639C341.264 423.349 341.367 423.07 341.537 422.83C341.707 422.59 341.939 422.396 342.21 422.267C342.48 422.139 342.781 422.08 343.082 422.097H432.898C433.235 422.098 433.565 422.194 433.848 422.372C434.13 422.551 434.353 422.804 434.489 423.101L459.379 477.854C459.501 478.111 459.554 478.393 459.533 478.675C459.512 478.957 459.418 479.23 459.26 479.467C459.101 479.705 458.884 479.901 458.626 480.036C458.369 480.171 458.081 480.242 457.788 480.242Z" fill="white" stroke="#000D19" stroke-width="1.11765" stroke-linecap="round" stroke-linejoin="round"/>
<path d="M449.36 475.978H372.745C372.456 475.977 372.173 475.894 371.931 475.739C371.69 475.584 371.502 475.364 371.39 475.106L350.056 428.389C349.959 428.171 349.919 427.934 349.94 427.697C349.961 427.461 350.042 427.234 350.176 427.035C350.31 426.836 350.493 426.672 350.709 426.558C350.924 426.444 351.165 426.383 351.411 426.38H428.124C428.416 426.384 428.7 426.469 428.943 426.623C429.187 426.777 429.38 426.996 429.499 427.252L450.735 473.969C450.833 474.188 450.873 474.428 450.851 474.665C450.829 474.903 450.746 475.132 450.609 475.331C450.473 475.53 450.288 475.694 450.069 475.807C449.851 475.92 449.608 475.978 449.36 475.978Z" fill="#000D19" stroke="#000D19" stroke-width="1.11765" stroke-linecap="round" stroke-linejoin="round"/>
<path d="M366.636 480.867H501.694V476.603H366.636V480.867Z" fill="white" stroke="#000D19" stroke-width="1.11765" stroke-linecap="round" stroke-linejoin="round"/>
<path d="M366.636 480.867H432.112V476.603H366.636V480.867Z" fill="white" stroke="#000D19" stroke-width="1.11765" stroke-linecap="round" stroke-linejoin="round"/>
<path d="M243.837 374.812C246.648 375.532 249.554 375.845 252.461 375.74C252.461 375.74 251.145 371.95 251.027 371.628C249.691 368.918 245.428 364.445 241.97 364.9C241.4 364.991 240.856 365.197 240.374 365.505C239.892 365.812 239.481 366.213 239.17 366.683C238.859 367.153 238.654 367.681 238.568 368.233C238.481 368.784 238.516 369.347 238.67 369.884C239.105 371.02 239.794 372.05 240.686 372.901C241.579 373.753 242.654 374.405 243.837 374.812Z" fill="#000D19"/>
<path d="M245.939 391.925C248.824 391.9 251.69 391.466 254.445 390.637C255.332 393.657 256.435 396.614 257.745 399.487C258.492 401.155 259.317 402.823 260.142 404.491C259.651 403.789 259.199 403.164 259.12 403.088C257.156 400.814 251.773 397.573 248.552 398.881C248.02 399.113 247.546 399.451 247.161 399.873C246.775 400.295 246.486 400.79 246.314 401.328C246.141 401.865 246.088 402.431 246.159 402.99C246.23 403.548 246.423 404.085 246.725 404.566C247.456 405.548 248.402 406.364 249.494 406.956C250.587 407.549 251.8 407.904 253.05 407.997C255.848 407.992 258.629 407.583 261.301 406.784C261.635 407.409 261.949 408.054 262.283 408.679C263.874 411.711 265.466 414.744 266.919 417.757C267.45 418.818 267.921 419.88 268.393 420.96L267.509 419.728C265.544 417.454 260.142 414.213 256.92 415.54C256.389 415.772 255.915 416.11 255.529 416.532C255.144 416.953 254.855 417.449 254.682 417.986C254.51 418.524 254.457 419.09 254.528 419.648C254.599 420.207 254.791 420.744 255.093 421.225C255.829 422.205 256.774 423.02 257.866 423.616C258.958 424.211 260.169 424.572 261.419 424.675C264.144 424.686 266.854 424.289 269.454 423.5C269.905 424.599 270.357 425.717 270.75 426.797C271.006 427.555 271.281 428.257 271.497 429.015L272.145 431.251C272.499 432.691 272.872 434.17 273.186 435.591C273.422 436.558 273.599 437.486 273.815 438.453C273.304 437.391 272.282 435.326 272.165 435.155C270.514 432.616 265.76 428.636 262.342 429.469C261.785 429.623 261.268 429.887 260.823 430.246C260.379 430.605 260.019 431.05 259.765 431.553C259.511 432.055 259.369 432.604 259.35 433.162C259.33 433.721 259.433 434.277 259.651 434.795C260.219 435.885 261.03 436.841 262.025 437.594C263.019 438.348 264.174 438.88 265.407 439.154C268.239 439.563 271.12 439.563 273.952 439.154C274.267 440.708 274.581 442.243 274.836 443.684C275.74 448.668 276.31 452.875 276.663 455.813C276.663 456.325 276.781 456.798 276.82 457.234H266.33L267.607 481.19H290.611L291.888 457.234H282.183L282.4 456.798C283.735 454.107 285.602 450.222 287.605 445.427C288.254 443.93 288.902 442.319 289.57 440.651C292.361 441.282 295.236 441.5 298.096 441.296C299.332 441.085 300.504 440.615 301.53 439.917C302.555 439.219 303.409 438.311 304.029 437.259C304.288 436.759 304.434 436.211 304.458 435.652C304.482 435.094 304.383 434.536 304.168 434.017C303.953 433.498 303.626 433.029 303.209 432.64C302.792 432.252 302.295 431.953 301.75 431.763C298.449 430.701 293.401 434.321 291.554 436.728C291.436 436.88 290.434 438.623 289.825 439.609C290.081 438.945 290.356 438.282 290.611 437.581C291.142 436.197 291.633 434.795 292.143 433.279L292.851 431.061C293.086 430.322 293.244 429.507 293.46 428.73C293.911 426.835 294.285 424.94 294.599 423.158C297.185 424.153 299.915 424.754 302.693 424.94C303.937 424.952 305.17 424.705 306.306 424.214C307.442 423.723 308.454 423.001 309.274 422.097C309.608 421.639 309.838 421.118 309.948 420.568C310.059 420.018 310.048 419.452 309.917 418.906C309.785 418.36 309.536 417.848 309.184 417.401C308.833 416.955 308.388 416.586 307.879 416.317C304.775 414.782 299.216 417.624 297.015 419.728C296.878 419.861 295.463 421.623 294.717 422.514C294.894 421.377 295.09 420.24 295.247 419.084C295.66 415.748 295.994 412.356 296.328 408.963C296.446 407.94 296.563 406.898 296.662 405.874C299.337 406.908 302.158 407.547 305.03 407.769C306.295 407.766 307.544 407.495 308.688 406.974C309.833 406.453 310.844 405.696 311.651 404.756C311.968 404.301 312.184 403.787 312.286 403.247C312.388 402.707 312.372 402.153 312.241 401.619C312.11 401.085 311.866 400.583 311.525 400.145C311.183 399.706 310.751 399.34 310.256 399.07C307.172 397.535 301.612 400.378 299.392 402.501C299.235 402.652 297.212 405.097 296.721 405.741C296.976 403.467 297.251 401.212 297.605 398.995C298.056 395.993 298.713 393.024 299.569 390.106C302.257 391.141 305.092 391.78 307.977 392.001C309.231 392 310.469 391.734 311.606 391.224C312.742 390.713 313.75 389.969 314.558 389.045C314.873 388.589 315.086 388.075 315.186 387.536C315.287 386.996 315.271 386.443 315.14 385.91C315.009 385.377 314.766 384.875 314.426 384.436C314.086 383.998 313.656 383.631 313.163 383.359C310.059 381.824 304.5 384.667 302.3 386.789C302.123 386.941 299.942 389.575 299.589 390.068C299.644 389.9 299.69 389.729 299.726 389.556C300.686 386.653 301.909 383.838 303.38 381.142C304.166 379.645 305.011 378.261 305.875 376.934C308.34 378.207 310.989 379.114 313.733 379.626C314.98 379.757 316.242 379.624 317.43 379.234C318.618 378.844 319.703 378.208 320.609 377.37C320.991 376.952 321.277 376.46 321.45 375.928C321.623 375.396 321.677 374.835 321.611 374.281C321.544 373.727 321.357 373.193 321.063 372.713C320.768 372.233 320.373 371.818 319.902 371.495C316.994 369.6 311.14 371.874 308.704 373.731C308.566 373.845 307.348 375.02 306.464 375.892C306.857 375.304 307.25 374.679 307.643 374.111C309.097 371.988 310.57 370.131 311.886 368.425L314.008 365.923C316.828 365.953 319.637 365.569 322.337 364.786C323.547 364.343 324.638 363.642 325.529 362.737C326.42 361.831 327.088 360.744 327.484 359.555C327.622 359.012 327.64 358.447 327.536 357.896C327.433 357.346 327.212 356.823 326.886 356.36C326.56 355.898 326.137 355.506 325.645 355.211C325.152 354.916 324.601 354.724 324.027 354.647C320.55 354.287 316.444 358.873 315.167 361.621C315.167 361.867 313.792 365.753 313.851 365.753C313.183 366.473 312.495 367.25 311.749 368.122C310.393 369.733 308.881 371.552 307.368 373.656C305.709 375.895 304.194 378.231 302.83 380.649C301.259 383.34 299.944 386.163 298.901 389.083C298.901 389.083 298.901 389.083 298.901 389.196C298.901 388.211 298.901 385.406 298.901 385.235C298.508 382.26 295.915 376.726 292.497 376.119C291.92 376.03 291.329 376.061 290.765 376.209C290.201 376.356 289.676 376.618 289.225 376.977C288.773 377.335 288.406 377.782 288.147 378.288C287.888 378.793 287.744 379.346 287.723 379.91C287.788 381.111 288.119 382.284 288.696 383.35C289.272 384.416 290.079 385.35 291.063 386.088C293.487 387.614 296.136 388.777 298.921 389.538C297.952 392.532 297.185 395.583 296.622 398.672C296.288 400.568 296.013 402.292 295.758 404.131C295.758 403.278 295.758 402.52 295.758 402.406C295.346 399.43 292.772 393.896 289.334 393.29C288.758 393.204 288.17 393.237 287.608 393.386C287.047 393.535 286.524 393.797 286.075 394.155C285.626 394.513 285.26 394.959 285.003 395.463C284.745 395.968 284.601 396.519 284.58 397.08C284.628 398.286 284.948 399.467 285.518 400.541C286.088 401.614 286.894 402.555 287.88 403.297C290.217 404.797 292.782 405.936 295.483 406.67C295.385 407.39 295.287 408.092 295.208 408.793C294.776 412.166 294.383 415.54 293.872 418.837C293.695 419.993 293.479 421.131 293.283 422.268C293.283 421.51 293.283 420.865 293.283 420.77C292.89 417.795 290.297 412.261 286.879 411.655C286.302 411.569 285.713 411.601 285.15 411.75C284.587 411.899 284.063 412.161 283.612 412.519C283.162 412.877 282.795 413.322 282.535 413.827C282.275 414.331 282.128 414.882 282.105 415.445C282.156 416.652 282.48 417.833 283.053 418.907C283.627 419.98 284.436 420.92 285.425 421.661C287.684 423.134 290.171 424.253 292.792 424.978C292.536 426.134 292.281 427.29 291.986 428.408C291.751 429.166 291.593 429.905 291.338 430.663C291.083 431.422 290.827 432.142 290.591 432.862C290.061 434.264 289.531 435.686 288.981 437.031C288.607 437.979 288.234 438.927 287.861 439.76C288.057 438.604 288.372 436.33 288.391 436.141C288.357 433.477 287.613 430.866 286.23 428.56C286.269 428.27 286.269 427.977 286.23 427.688C286.157 427.133 285.965 426.599 285.664 426.12C285.364 425.642 284.963 425.229 284.487 424.91C284.011 424.59 283.471 424.37 282.902 424.264C282.333 424.159 281.746 424.169 281.182 424.296C277.822 425.167 275.681 430.872 275.524 433.885C275.524 434.056 275.524 435.989 275.72 437.202C275.563 436.501 275.406 435.799 275.21 435.079C274.856 433.639 274.463 432.218 274.051 430.682L273.343 428.465C273.127 427.707 272.813 426.949 272.538 426.191C271.87 424.428 271.104 422.685 270.298 420.922C273.053 420.387 275.704 419.44 278.156 418.117C279.194 417.444 280.069 416.562 280.72 415.531C281.371 414.5 281.783 413.346 281.928 412.147C281.944 411.588 281.837 411.033 281.616 410.516C281.394 410 281.062 409.534 280.641 409.15C280.22 408.765 279.72 408.471 279.174 408.285C278.627 408.1 278.046 408.027 277.469 408.073C274.011 408.433 271.006 413.758 270.377 416.696C270.377 416.885 270.122 419.046 270.043 420.24C269.532 419.178 269.041 418.136 268.511 417.094C266.959 414.08 265.289 411.086 263.639 408.092C263.148 407.163 262.657 406.196 262.146 405.325C264.97 404.754 267.69 403.783 270.22 402.444C271.261 401.773 272.137 400.892 272.789 399.861C273.44 398.83 273.851 397.674 273.992 396.474C274.01 395.916 273.906 395.361 273.687 394.844C273.467 394.328 273.137 393.862 272.718 393.477C272.299 393.092 271.8 392.797 271.254 392.612C270.709 392.426 270.129 392.354 269.552 392.399C266.075 392.759 263.069 398.085 262.44 401.022C262.44 401.25 262.106 404.358 262.067 405.154C260.967 403.126 259.906 401.098 258.924 399.051C257.601 396.296 256.466 393.459 255.525 390.561C258.365 390 261.1 389.029 263.639 387.68C264.682 387.011 265.562 386.13 266.217 385.099C266.872 384.068 267.286 382.911 267.43 381.71C267.446 381.151 267.339 380.596 267.118 380.079C266.896 379.563 266.564 379.097 266.143 378.713C265.722 378.328 265.223 378.034 264.676 377.848C264.129 377.663 263.548 377.59 262.971 377.636C259.494 377.996 256.488 383.321 255.859 386.259C255.859 386.505 255.506 389.841 255.486 390.447L255.309 389.954C254.451 387.022 253.859 384.022 253.541 380.99C253.345 379.322 253.266 377.711 253.207 376.138C256.023 375.92 258.787 375.281 261.399 374.243C262.511 373.682 263.484 372.895 264.25 371.936C265.017 370.978 265.559 369.87 265.839 368.69C265.919 368.14 265.879 367.58 265.72 367.046C265.561 366.511 265.287 366.016 264.917 365.59C264.546 365.165 264.087 364.819 263.569 364.576C263.051 364.333 262.486 364.198 261.91 364.18C258.433 364.18 254.838 369.145 253.875 372.007C253.875 372.158 253.463 373.788 253.227 374.982C253.227 374.281 253.227 373.561 253.227 372.879C253.227 370.339 253.404 368.008 253.581 365.942C253.679 364.767 253.797 363.706 253.915 362.72C256.285 361.249 258.405 359.433 260.201 357.338C260.919 356.35 261.407 355.223 261.631 354.035C261.855 352.848 261.809 351.627 261.497 350.458C261.319 349.881 261.007 349.351 260.584 348.908C260.161 348.464 259.639 348.12 259.058 347.901C258.476 347.681 257.85 347.593 257.228 347.642C256.606 347.691 256.003 347.877 255.467 348.184C252.363 349.719 251.538 355.765 252.068 358.703C252.068 358.968 253.266 362.891 253.325 362.853C253.188 363.801 253.05 364.748 252.932 365.942C252.716 368.008 252.5 370.339 252.441 372.879C252.334 375.634 252.4 378.394 252.638 381.142C252.887 384.214 253.419 387.258 254.229 390.239C254.22 390.276 254.22 390.315 254.229 390.352C253.679 389.519 252.068 387.244 251.911 387.074C249.946 384.799 244.564 381.578 241.342 382.885C240.811 383.117 240.337 383.456 239.951 383.877C239.565 384.299 239.277 384.795 239.104 385.332C238.931 385.869 238.879 386.436 238.95 386.994C239.02 387.552 239.213 388.09 239.515 388.571C240.268 389.548 241.233 390.354 242.342 390.933C243.452 391.513 244.679 391.851 245.939 391.925ZM280.533 436.027C282.636 437.766 284.976 439.22 287.488 440.348C286.859 441.826 286.23 443.248 285.621 444.593C283.539 449.255 281.594 453.046 280.219 455.68L279.453 457.121H279.217C279.217 456.603 279.139 456.034 278.981 455.415C278.569 452.439 277.901 448.232 276.86 443.191C276.545 441.618 276.172 439.912 275.76 438.187C277.393 437.557 278.987 436.835 280.533 436.027Z" fill="#000D19"/>
<path d="M305.757 376.119C305.757 376.119 306.857 372.196 306.896 371.931C307.329 368.956 306.346 362.967 303.203 361.488C302.674 361.262 302.101 361.145 301.522 361.145C300.943 361.145 300.37 361.262 299.84 361.489C299.311 361.716 298.837 362.047 298.448 362.462C298.06 362.876 297.766 363.364 297.585 363.895C297.304 365.075 297.292 366.299 297.55 367.484C297.807 368.669 298.329 369.785 299.078 370.756C301.02 372.85 303.27 374.657 305.757 376.119Z" fill="#000D19"/>
<path d="M156 481L985 481" stroke="#000D19" stroke-width="2.23529" stroke-linecap="round" stroke-linejoin="round"/>
<defs>
<filter id="filter0_d_1_97" x="118.953" y="8.83529" width="774.094" height="467.094" filterUnits="userSpaceOnUse" color-interpolation-filters="sRGB">
<feFlood flood-opacity="0" result="BackgroundImageFix"/>
<feColorMatrix in="SourceAlpha" type="matrix" values="0 0 0 0 0 0 0 0 0 0 0 0 0 0 0 0 0 0 127 0" result="hardAlpha"/>
<feOffset dy="36.8824"/>
<feGaussianBlur stdDeviation="32.5235"/>
<feComposite in2="hardAlpha" operator="out"/>
<feColorMatrix type="matrix" values="0 0 0 0 0.00842256 0 0 0 0 0.10829 0 0 0 0 0.0642694 0 0 0 0.44 0"/>
<feBlend mode="normal" in2="BackgroundImageFix" result="effect1_dropShadow_1_97"/>
<feBlend mode="normal" in="SourceGraphic" in2="effect1_dropShadow_1_97" result="shape"/>
</filter>
<linearGradient id="paint0_linear_1_97" x1="420.444" y1="234.415" x2="860.364" y2="234.415" gradientUnits="userSpaceOnUse">
<stop stop-color="#0274B6"/>
<stop offset="1" stop-color="#5FA3DA"/>
</linearGradient>
<linearGradient id="paint1_linear_1_97" x1="739.35" y1="273.636" x2="760.359" y2="273.636" gradientUnits="userSpaceOnUse">
<stop stop-color="#0274B6"/>
<stop offset="1" stop-color="#5FA3DA"/>
</linearGradient>
<linearGradient id="paint2_linear_1_97" x1="132.548" y1="177.502" x2="572.522" y2="177.502" gradientUnits="userSpaceOnUse">
<stop stop-color="#0274B6"/>
<stop offset="1" stop-color="#5FA3DA"/>
</linearGradient>
<linearGradient id="paint3_linear_1_97" x1="211.09" y1="83.6799" x2="215.648" y2="83.6799" gradientUnits="userSpaceOnUse">
<stop stop-color="#E6E9F0"/>
<stop offset="1" stop-color="#EEF1F5"/>
</linearGradient>
<linearGradient id="paint4_linear_1_97" x1="211.09" y1="83.8672" x2="220.854" y2="83.8672" gradientUnits="userSpaceOnUse">
<stop stop-color="#E6E9F0"/>
<stop offset="1" stop-color="#EEF1F5"/>
</linearGradient>
<linearGradient id="paint5_linear_1_97" x1="240.184" y1="83.6799" x2="244.742" y2="83.6799" gradientUnits="userSpaceOnUse">
<stop stop-color="#E6E9F0"/>
<stop offset="1" stop-color="#EEF1F5"/>
</linearGradient>
<linearGradient id="paint6_linear_1_97" x1="234.978" y1="83.8672" x2="244.742" y2="83.8672" gradientUnits="userSpaceOnUse">
<stop stop-color="#E6E9F0"/>
<stop offset="1" stop-color="#EEF1F5"/>
</linearGradient>
<linearGradient id="paint7_linear_1_97" x1="257.097" y1="83.7177" x2="265.683" y2="83.7177" gradientUnits="userSpaceOnUse">
<stop stop-color="#E6E9F0"/>
<stop offset="1" stop-color="#EEF1F5"/>
</linearGradient>
<linearGradient id="paint8_linear_1_97" x1="262.717" y1="81.3393" x2="266.135" y2="81.3393" gradientUnits="userSpaceOnUse">
<stop stop-color="#E6E9F0"/>
<stop offset="1" stop-color="#EEF1F5"/>
</linearGradient>
<linearGradient id="paint9_linear_1_97" x1="281.025" y1="83.7652" x2="288.923" y2="83.7652" gradientUnits="userSpaceOnUse">
<stop stop-color="#E6E9F0"/>
<stop offset="1" stop-color="#EEF1F5"/>
</linearGradient>
<linearGradient id="paint10_linear_1_97" x1="283.324" y1="86.1531" x2="286.408" y2="86.1531" gradientUnits="userSpaceOnUse">
<stop stop-color="#E6E9F0"/>
<stop offset="1" stop-color="#EEF1F5"/>
</linearGradient>
<linearGradient id="paint11_linear_1_97" x1="283.324" y1="86.1531" x2="286.408" y2="86.1531" gradientUnits="userSpaceOnUse">
<stop stop-color="#E6E9F0"/>
<stop offset="1" stop-color="#EEF1F5"/>
</linearGradient>
<linearGradient id="paint12_linear_1_97" x1="278.708" y1="82.9311" x2="281.026" y2="82.9311" gradientUnits="userSpaceOnUse">
<stop stop-color="#E6E9F0"/>
<stop offset="1" stop-color="#EEF1F5"/>
</linearGradient>
<linearGradient id="paint13_linear_1_97" x1="288.923" y1="82.8364" x2="291.103" y2="82.8364" gradientUnits="userSpaceOnUse">
<stop stop-color="#E6E9F0"/>
<stop offset="1" stop-color="#EEF1F5"/>
</linearGradient>
<linearGradient id="paint14_linear_1_97" x1="287.469" y1="69.7028" x2="293.618" y2="69.7028" gradientUnits="userSpaceOnUse">
<stop stop-color="#E6E9F0"/>
<stop offset="1" stop-color="#EEF1F5"/>
</linearGradient>
<linearGradient id="paint15_linear_1_97" x1="287.371" y1="69.7028" x2="293.716" y2="69.7028" gradientUnits="userSpaceOnUse">
<stop stop-color="#E6E9F0"/>
<stop offset="1" stop-color="#EEF1F5"/>
</linearGradient>
<linearGradient id="paint16_linear_1_97" x1="629.16" y1="318.652" x2="637.052" y2="318.652" gradientUnits="userSpaceOnUse">
<stop stop-color="#F6D365"/>
<stop offset="1" stop-color="#FF9900"/>
</linearGradient>
<linearGradient id="paint17_linear_1_97" x1="611.619" y1="307.271" x2="619.511" y2="307.271" gradientUnits="userSpaceOnUse">
<stop stop-color="#F6D365"/>
<stop offset="1" stop-color="#FF9900"/>
</linearGradient>
<linearGradient id="paint18_linear_1_97" x1="594.087" y1="315.398" x2="601.979" y2="315.398" gradientUnits="userSpaceOnUse">
<stop stop-color="#F6D365"/>
<stop offset="1" stop-color="#FF9900"/>
</linearGradient>
<linearGradient id="paint19_linear_1_97" x1="541.465" y1="310.516" x2="549.357" y2="310.516" gradientUnits="userSpaceOnUse">
<stop stop-color="#F6D365"/>
<stop offset="1" stop-color="#FF9900"/>
</linearGradient>
<linearGradient id="paint20_linear_1_97" x1="512.932" y1="208.227" x2="522.804" y2="208.227" gradientUnits="userSpaceOnUse">
<stop stop-color="#F77062"/>
<stop offset="1" stop-color="#FE5196"/>
</linearGradient>
<linearGradient id="paint21_linear_1_97" x1="522.803" y1="180.264" x2="532.683" y2="180.264" gradientUnits="userSpaceOnUse">
<stop stop-color="#F77062"/>
<stop offset="1" stop-color="#FE5196"/>
</linearGradient>
<linearGradient id="paint22_linear_1_97" x1="532.683" y1="206.021" x2="542.554" y2="206.021" gradientUnits="userSpaceOnUse">
<stop stop-color="#F77062"/>
<stop offset="1" stop-color="#FE5196"/>
</linearGradient>
<linearGradient id="paint23_linear_1_97" x1="542.554" y1="236.928" x2="552.425" y2="236.928" gradientUnits="userSpaceOnUse">
<stop stop-color="#F77062"/>
<stop offset="1" stop-color="#FE5196"/>
</linearGradient>
<linearGradient id="paint24_linear_1_97" x1="591.919" y1="228.833" x2="601.79" y2="228.833" gradientUnits="userSpaceOnUse">
<stop stop-color="#F77062"/>
<stop offset="1" stop-color="#FE5196"/>
</linearGradient>
<linearGradient id="paint25_linear_1_97" x1="601.789" y1="216.322" x2="611.669" y2="216.322" gradientUnits="userSpaceOnUse">
<stop stop-color="#F77062"/>
<stop offset="1" stop-color="#FE5196"/>
</linearGradient>
<linearGradient id="paint26_linear_1_97" x1="611.669" y1="198.66" x2="621.54" y2="198.66" gradientUnits="userSpaceOnUse">
<stop stop-color="#F77062"/>
<stop offset="1" stop-color="#FE5196"/>
</linearGradient>
<linearGradient id="paint27_linear_1_97" x1="621.54" y1="193.509" x2="631.411" y2="193.509" gradientUnits="userSpaceOnUse">
<stop stop-color="#F77062"/>
<stop offset="1" stop-color="#FE5196"/>
</linearGradient>
<linearGradient id="paint28_linear_1_97" x1="631.411" y1="193.509" x2="641.29" y2="193.509" gradientUnits="userSpaceOnUse">
<stop stop-color="#F77062"/>
<stop offset="1" stop-color="#FE5196"/>
</linearGradient>
<linearGradient id="paint29_linear_1_97" x1="641.291" y1="199.398" x2="651.162" y2="199.398" gradientUnits="userSpaceOnUse">
<stop stop-color="#F77062"/>
<stop offset="1" stop-color="#FE5196"/>
</linearGradient>
<linearGradient id="paint30_linear_1_97" x1="521.063" y1="187.658" x2="524.551" y2="187.658" gradientUnits="userSpaceOnUse">
<stop stop-color="#F77062"/>
<stop offset="1" stop-color="#FE5196"/>
</linearGradient>
<linearGradient id="paint31_linear_1_97" x1="530.934" y1="172.903" x2="534.422" y2="172.903" gradientUnits="userSpaceOnUse">
<stop stop-color="#F77062"/>
<stop offset="1" stop-color="#FE5196"/>
</linearGradient>
<linearGradient id="paint32_linear_1_97" x1="540.806" y1="239.138" x2="544.294" y2="239.138" gradientUnits="userSpaceOnUse">
<stop stop-color="#F77062"/>
<stop offset="1" stop-color="#FE5196"/>
</linearGradient>
<linearGradient id="paint33_linear_1_97" x1="550.677" y1="234.718" x2="554.174" y2="234.718" gradientUnits="userSpaceOnUse">
<stop stop-color="#F77062"/>
<stop offset="1" stop-color="#FE5196"/>
</linearGradient>
<linearGradient id="paint34_linear_1_97" x1="590.178" y1="225.889" x2="593.667" y2="225.889" gradientUnits="userSpaceOnUse">
<stop stop-color="#F77062"/>
<stop offset="1" stop-color="#FE5196"/>
</linearGradient>
<linearGradient id="paint35_linear_1_97" x1="600.049" y1="231.778" x2="603.538" y2="231.778" gradientUnits="userSpaceOnUse">
<stop stop-color="#F77062"/>
<stop offset="1" stop-color="#FE5196"/>
</linearGradient>
<linearGradient id="paint36_linear_1_97" x1="609.92" y1="200.854" x2="613.409" y2="200.854" gradientUnits="userSpaceOnUse">
<stop stop-color="#F77062"/>
<stop offset="1" stop-color="#FE5196"/>
</linearGradient>
<linearGradient id="paint37_linear_1_97" x1="619.791" y1="196.454" x2="623.288" y2="196.454" gradientUnits="userSpaceOnUse">
<stop stop-color="#F77062"/>
<stop offset="1" stop-color="#FE5196"/>
</linearGradient>
<linearGradient id="paint38_linear_1_97" x1="629.654" y1="190.565" x2="633.159" y2="190.565" gradientUnits="userSpaceOnUse">
<stop stop-color="#F77062"/>
<stop offset="1" stop-color="#FE5196"/>
</linearGradient>
<linearGradient id="paint39_linear_1_97" x1="639.542" y1="196.454" x2="643.03" y2="196.454" gradientUnits="userSpaceOnUse">
<stop stop-color="#F77062"/>
<stop offset="1" stop-color="#FE5196"/>
</linearGradient>
<linearGradient id="paint40_linear_1_97" x1="649.413" y1="202.338" x2="652.901" y2="202.338" gradientUnits="userSpaceOnUse">
<stop stop-color="#F77062"/>
<stop offset="1" stop-color="#FE5196"/>
</linearGradient>
<linearGradient id="paint41_linear_1_97" x1="734.867" y1="311.654" x2="819.69" y2="311.654" gradientUnits="userSpaceOnUse">
<stop stop-color="#0274B6"/>
<stop offset="1" stop-color="#5FA3DA"/>
</linearGradient>
<linearGradient id="paint42_linear_1_97" x1="794.852" y1="393.839" x2="975.937" y2="393.839" gradientUnits="userSpaceOnUse">
<stop stop-color="#0274B6"/>
<stop offset="1" stop-color="#5FA3DA"/>
</linearGradient>
<linearGradient id="paint43_linear_1_97" x1="613.301" y1="398.574" x2="914.086" y2="398.574" gradientUnits="userSpaceOnUse">
<stop stop-color="#0274B6"/>
<stop offset="1" stop-color="#5FA3DA"/>
</linearGradient>
<linearGradient id="paint44_linear_1_97" x1="476.032" y1="368.363" x2="565.976" y2="368.363" gradientUnits="userSpaceOnUse">
<stop stop-color="#0274B6"/>
<stop offset="1" stop-color="#5FA3DA"/>
</linearGradient>
<linearGradient id="paint45_linear_1_97" x1="391.93" y1="316.074" x2="597.865" y2="316.074" gradientUnits="userSpaceOnUse">
<stop stop-color="#0274B6"/>
<stop offset="1" stop-color="#5FA3DA"/>
</linearGradient>
<linearGradient id="paint46_linear_1_97" x1="545.622" y1="210.962" x2="630.791" y2="210.962" gradientUnits="userSpaceOnUse">
<stop stop-color="#0274B6"/>
<stop offset="1" stop-color="#5FA3DA"/>
</linearGradient>
<linearGradient id="paint47_linear_1_97" x1="562.562" y1="348.933" x2="685.328" y2="348.933" gradientUnits="userSpaceOnUse">
<stop stop-color="#0274B6"/>
<stop offset="1" stop-color="#5FA3DA"/>
</linearGradient>
<linearGradient id="paint48_linear_1_97" x1="563.546" y1="377.255" x2="623.122" y2="377.255" gradientUnits="userSpaceOnUse">
<stop stop-color="#0274B6"/>
<stop offset="1" stop-color="#5FA3DA"/>
</linearGradient>
<linearGradient id="paint49_linear_1_97" x1="594.431" y1="363.611" x2="688.157" y2="363.611" gradientUnits="userSpaceOnUse">
<stop stop-color="#0274B6"/>
<stop offset="1" stop-color="#5FA3DA"/>
</linearGradient>
<clipPath id="clip0_1_97">
<rect width="146" height="171" fill="white" transform="translate(521 168)"/>
</clipPath>
</defs>
</svg>
