<svg width="393" height="222" viewBox="0 0 393 222" fill="none" xmlns="http://www.w3.org/2000/svg">
<g filter="url(#filter0_d_65_1782)">
<path d="M290.232 15.8132H50.4189C42.7217 15.8132 36.4819 22.053 36.4819 29.7502V141.955C36.4819 149.652 42.7217 155.892 50.4189 155.892H290.232C297.929 155.892 304.169 149.652 304.169 141.955V29.7502C304.169 22.053 297.929 15.8132 290.232 15.8132Z" fill="white"/>
</g>
<path d="M293.369 64.0842H166.149V141.797H293.369V64.0842Z" fill="white" stroke="#000D19" stroke-width="0.464564" stroke-miterlimit="10"/>
<path d="M209.626 55.0561C207.454 55.0561 205.515 53.6931 204.781 51.649V51.649C204.046 49.605 202.107 48.2419 199.935 48.2419H170.643C166.795 48.2419 163.675 51.3618 163.675 55.2104V140.532C163.675 144.381 166.795 147.5 170.643 147.5H288.875C292.724 147.5 295.844 144.381 295.844 140.532V62.0246C295.844 58.176 292.724 55.0561 288.875 55.0561H209.626ZM293.377 134.836C293.377 138.685 290.257 141.805 286.408 141.805H173.118C169.269 141.805 166.149 138.685 166.149 134.836V71.0524C166.149 67.2038 169.269 64.0839 173.118 64.0839H286.402C290.25 64.0839 293.37 67.2034 293.37 71.0516L293.377 134.836Z" fill="url(#paint0_linear_65_1782)" stroke="#000D19" stroke-width="0.464564" stroke-miterlimit="10"/>
<path d="M269.191 57.6243H205.989V61.3583H269.191V57.6243Z" fill="white" stroke="#000D19" stroke-width="0.464564" stroke-miterlimit="10"/>
<path d="M121.274 57.0332L119.453 58.7269L121.339 60.6806" stroke="#000D19" stroke-width="0.464564" stroke-linecap="round" stroke-linejoin="round"/>
<path d="M119.453 58.7271H123.503" stroke="#000D19" stroke-width="0.464564" stroke-linecap="round" stroke-linejoin="round"/>
<path d="M131.611 57.0332L133.432 58.7269L131.538 60.6806" stroke="#000D19" stroke-width="0.464564" stroke-linecap="round" stroke-linejoin="round"/>
<path d="M133.432 58.7271H129.382" stroke="#000D19" stroke-width="0.464564" stroke-linecap="round" stroke-linejoin="round"/>
<path d="M142.137 58.5065C142.022 58.113 141.781 57.765 141.448 57.5128C141.114 57.2607 140.706 57.1176 140.283 57.1043C140.033 57.0881 139.783 57.1217 139.547 57.2029C139.311 57.2841 139.095 57.4111 138.912 57.5762C138.729 57.7413 138.583 57.9408 138.483 58.1625C138.383 58.3842 138.332 58.6233 138.332 58.8649C138.332 59.1066 138.383 59.3457 138.483 59.5674C138.583 59.789 138.729 59.9886 138.912 60.1537C139.095 60.3188 139.311 60.4458 139.547 60.527C139.783 60.6082 140.033 60.6417 140.283 60.6256C140.704 60.6265 141.112 60.4843 141.434 60.2238" stroke="#000D19" stroke-width="0.464564" stroke-linecap="round" stroke-linejoin="round"/>
<path d="M140.912 58.6956H142.325V57.0649" stroke="#000D19" stroke-width="0.464564" stroke-linecap="round" stroke-linejoin="round"/>
<path d="M151.797 58.1207L150.115 56.8052L148.514 58.1207V60.9803H151.797V58.1207Z" stroke="#000D19" stroke-width="0.464564" stroke-linecap="round" stroke-linejoin="round"/>
<path d="M150.76 58.8926H149.478V60.8778H150.76V58.8926Z" fill="#000D19"/>
<path d="M148.514 58.1206L147.551 58.9714" stroke="#000D19" stroke-width="0.464564" stroke-linecap="round" stroke-linejoin="round"/>
<path d="M151.797 58.1206L152.703 58.8926" stroke="#000D19" stroke-width="0.464564" stroke-linecap="round" stroke-linejoin="round"/>
<path d="M151.193 51.7712L153.757 54.3157" stroke="#000D19" stroke-width="0.464564" stroke-linecap="round" stroke-linejoin="round"/>
<path d="M153.798 51.8105L151.152 54.2763" stroke="#000D19" stroke-width="0.464564" stroke-linecap="round" stroke-linejoin="round"/>
<path d="M286.665 58.3098H291.736" stroke="#000D19" stroke-width="0.464564" stroke-linecap="round" stroke-linejoin="round"/>
<path d="M286.665 59.4126H291.736" stroke="#000D19" stroke-width="0.464564" stroke-linecap="round" stroke-linejoin="round"/>
<path d="M286.665 60.5154H291.736" stroke="#000D19" stroke-width="0.464564" stroke-linecap="round" stroke-linejoin="round"/>
<path d="M286.665 61.6184H291.736" stroke="#000D19" stroke-width="0.464564" stroke-linecap="round" stroke-linejoin="round"/>
<path d="M260.062 73.2615H266.447" stroke="#000D19" stroke-width="0.464564" stroke-linecap="round" stroke-linejoin="round"/>
<path d="M251.798 73.2615H257.4" stroke="#000D19" stroke-width="0.464564" stroke-linecap="round" stroke-linejoin="round"/>
<path d="M238.055 73.2615H249.724" stroke="#000D19" stroke-width="0.464564" stroke-linecap="round" stroke-linejoin="round"/>
<path d="M238.055 77.019H266.447" stroke="#000D19" stroke-width="0.464564" stroke-linecap="round" stroke-linejoin="round"/>
<path d="M262.275 80.7844H266.447" stroke="#000D19" stroke-width="0.464564" stroke-linecap="round" stroke-linejoin="round"/>
<path d="M242.644 80.7844H259.613" stroke="#000D19" stroke-width="0.464564" stroke-linecap="round" stroke-linejoin="round"/>
<path d="M238.055 80.7844H240.284" stroke="#000D19" stroke-width="0.464564" stroke-linecap="round" stroke-linejoin="round"/>
<path d="M238.055 84.5422H266.447" stroke="#000D19" stroke-width="0.464564" stroke-linecap="round" stroke-linejoin="round"/>
<path d="M247.952 115.911H241.64V134.621H247.952V115.911Z" fill="#000D19" stroke="#000D19" stroke-width="0.464564" stroke-linecap="round" stroke-linejoin="round"/>
<path d="M256.975 93.7197H250.663V134.628H256.975V93.7197Z" fill="#F94A76" stroke="#000D19" stroke-width="0.464564" stroke-miterlimit="10"/>
<path d="M265.998 105.898H259.686V134.62H265.998V105.898Z" fill="#000D19" stroke="#000D19" stroke-width="0.464564" stroke-linecap="round" stroke-linejoin="round"/>
<path d="M275.013 93.7197H268.701V134.628H275.013V93.7197Z" fill="url(#paint1_linear_65_1782)" stroke="#000D19" stroke-width="0.464564" stroke-miterlimit="10"/>
<path d="M284.036 75.877H277.724V134.629H284.036V75.877Z" fill="#003B73" stroke="#000D19" stroke-width="0.464564" stroke-linecap="round" stroke-linejoin="round"/>
<path d="M173.678 40.3374H46.4578V118.051H173.678V40.3374Z" fill="white" stroke="#000D19" stroke-width="0.464564" stroke-miterlimit="10"/>
<path d="M89.9743 31.4152C87.8042 31.4152 85.8674 30.0538 85.1326 28.012V28.012C84.3977 25.9702 82.4609 24.6089 80.2909 24.6089H50.979C47.1304 24.6089 44.0105 27.7288 44.0105 31.5773V116.852C44.0105 120.7 47.1304 123.82 50.979 123.82H169.227C173.076 123.82 176.196 120.7 176.196 116.852V38.3836C176.196 34.5351 173.076 31.4152 169.227 31.4152H89.9743ZM173.73 111.196C173.73 115.044 170.61 118.164 166.761 118.164H53.4776C49.6291 118.164 46.5092 115.044 46.5092 111.195V47.4193C46.5092 43.5707 49.6291 40.4509 53.4776 40.4509H166.761C170.61 40.4509 173.73 43.5707 173.73 47.4193V111.196Z" fill="url(#paint2_linear_65_1782)" stroke="#000D19" stroke-width="0.464564" stroke-miterlimit="10"/>
<path d="M149.543 33.9915H86.3413V37.7255H149.543V33.9915Z" fill="white" stroke="#000D19" stroke-width="0.464564" stroke-miterlimit="10"/>
<path d="M49.5715 33.3928L47.7424 35.0865L49.6369 37.0402" stroke="url(#paint3_linear_65_1782)" stroke-width="0.464564" stroke-linecap="round" stroke-linejoin="round"/>
<path d="M47.7424 35.0864H51.8007" stroke="url(#paint4_linear_65_1782)" stroke-width="0.464564" stroke-linecap="round" stroke-linejoin="round"/>
<path d="M59.901 33.3928L61.7301 35.0865L59.8357 37.0402" stroke="url(#paint5_linear_65_1782)" stroke-width="0.464564" stroke-linecap="round" stroke-linejoin="round"/>
<path d="M61.7302 35.0864H57.6719" stroke="url(#paint6_linear_65_1782)" stroke-width="0.464564" stroke-linecap="round" stroke-linejoin="round"/>
<path d="M70.4344 34.8737C70.3197 34.4789 70.0771 34.13 69.7422 33.8777C69.4072 33.6254 68.9974 33.4831 68.5727 33.4714C68.1098 33.5013 67.6759 33.6998 67.359 34.0267C67.042 34.3536 66.8657 34.7845 66.8657 35.2321C66.8657 35.6797 67.042 36.1106 67.359 36.4375C67.6759 36.7644 68.1098 36.9629 68.5727 36.9928C68.9944 36.9925 69.4034 36.8536 69.7322 36.5989" stroke="url(#paint7_linear_65_1782)" stroke-width="0.464564" stroke-linecap="round" stroke-linejoin="round"/>
<path d="M69.2017 35.0549H70.6225V33.4321" stroke="url(#paint8_linear_65_1782)" stroke-width="0.464564" stroke-linecap="round" stroke-linejoin="round"/>
<path d="M80.0943 34.4799L78.4122 33.1643L76.8118 34.4799V37.3395H80.0943V34.4799Z" stroke="url(#paint9_linear_65_1782)" stroke-width="0.464564" stroke-linecap="round" stroke-linejoin="round"/>
<path d="M77.9997 35.484H78.8172V37.0046H77.9997V35.484Z" fill="url(#paint10_linear_65_1782)" stroke="url(#paint11_linear_65_1782)" stroke-width="0.464564"/>
<path d="M76.8119 34.4797L75.8484 35.3305" stroke="url(#paint12_linear_65_1782)" stroke-width="0.464564" stroke-linecap="round" stroke-linejoin="round"/>
<path d="M80.0945 34.4797L81.0009 35.2517" stroke="url(#paint13_linear_65_1782)" stroke-width="0.464564" stroke-linecap="round" stroke-linejoin="round"/>
<path d="M79.4902 28.1304L82.0461 30.6827" stroke="url(#paint14_linear_65_1782)" stroke-width="0.464564" stroke-linecap="round" stroke-linejoin="round"/>
<path d="M82.087 28.1699L79.4495 30.6435" stroke="url(#paint15_linear_65_1782)" stroke-width="0.464564" stroke-linecap="round" stroke-linejoin="round"/>
<path d="M167.026 34.6768H172.097" stroke="#000D19" stroke-width="0.464564" stroke-linecap="round" stroke-linejoin="round"/>
<path d="M167.026 35.7798H172.097" stroke="#000D19" stroke-width="0.464564" stroke-linecap="round" stroke-linejoin="round"/>
<path d="M167.026 36.8823H172.097" stroke="#000D19" stroke-width="0.464564" stroke-linecap="round" stroke-linejoin="round"/>
<path d="M167.026 37.9854H172.097" stroke="#000D19" stroke-width="0.464564" stroke-linecap="round" stroke-linejoin="round"/>
<path d="M53.0503 110.665V83.8176L61.9018 101.905L69.4224 98.7379L77.9309 105.221L92.4249 96.1225L101.276 108.057L107.474 105.072L112.782 108.057L119.42 107.309L128.264 109.365L137.556 108.617L143.468 110.665H53.0503Z" fill="#000D19"/>
<path d="M146.22 64.0842H155.863" stroke="#000D19" stroke-width="0.464564" stroke-linecap="round" stroke-linejoin="round"/>
<path d="M133.735 64.0842H142.202" stroke="#000D19" stroke-width="0.464564" stroke-linecap="round" stroke-linejoin="round"/>
<path d="M112.978 64.0842H130.615" stroke="#000D19" stroke-width="0.464564" stroke-linecap="round" stroke-linejoin="round"/>
<path d="M112.978 67.8494H155.863" stroke="#000D19" stroke-width="0.464564" stroke-linecap="round" stroke-linejoin="round"/>
<path d="M149.559 71.6072H155.863" stroke="#000D19" stroke-width="0.464564" stroke-linecap="round" stroke-linejoin="round"/>
<path d="M119.91 71.6072H145.55" stroke="#000D19" stroke-width="0.464564" stroke-linecap="round" stroke-linejoin="round"/>
<path d="M112.978 71.6072H116.342" stroke="#000D19" stroke-width="0.464564" stroke-linecap="round" stroke-linejoin="round"/>
<path d="M112.978 75.3728H155.863" stroke="#000D19" stroke-width="0.464564" stroke-linecap="round" stroke-linejoin="round"/>
<path d="M155.863 81.415H146.22" stroke="#000D19" stroke-width="0.464564" stroke-linecap="round" stroke-linejoin="round"/>
<path d="M133.735 81.415H142.202" stroke="#000D19" stroke-width="0.464564" stroke-linecap="round" stroke-linejoin="round"/>
<path d="M112.978 81.415H130.615" stroke="#000D19" stroke-width="0.464564" stroke-linecap="round" stroke-linejoin="round"/>
<path d="M112.978 85.1802H155.863" stroke="#000D19" stroke-width="0.464564" stroke-linecap="round" stroke-linejoin="round"/>
<path d="M155.863 88.938H149.559" stroke="#000D19" stroke-width="0.464564" stroke-linecap="round" stroke-linejoin="round"/>
<path d="M119.91 88.938H145.55" stroke="#000D19" stroke-width="0.464564" stroke-linecap="round" stroke-linejoin="round"/>
<path d="M112.978 88.938H116.342" stroke="#000D19" stroke-width="0.464564" stroke-linecap="round" stroke-linejoin="round"/>
<path d="M112.978 92.7036H155.863" stroke="#000D19" stroke-width="0.464564" stroke-linecap="round" stroke-linejoin="round"/>
<path d="M64.049 70.3232L58.9782 81.3519C55.9571 80.0544 53.594 77.6523 52.4088 74.674C51.2235 71.6957 51.3131 68.3851 52.658 65.4705C53.6229 63.3349 55.2169 61.5199 57.2421 60.251C59.2673 58.9822 61.6343 58.3153 64.049 58.3334V70.3232Z" fill="#5FA3DA"/>
<path d="M64.0491 70.3232L69.9039 80.9423C68.24 81.825 66.3845 82.3184 64.4868 82.3827C62.5891 82.447 60.7023 82.0804 58.9783 81.3126L64.0491 70.3232Z" fill="#000D19"/>
<path d="M64.0491 70.3231L73.7417 62.7527C74.7724 63.9805 75.5423 65.3923 76.0075 66.9072C76.4726 68.4222 76.6238 70.0107 76.4524 71.5821C76.281 73.1535 75.7904 74.6768 75.0087 76.0653C74.2269 77.4537 73.1693 78.6799 71.8962 79.6739C71.2794 80.1621 70.6117 80.5871 69.9038 80.9422L64.0491 70.3231Z" fill="#0274B6"/>
<path d="M64.0491 70.3231V58.2545C65.9138 58.2133 67.7624 58.5953 69.446 59.3698C71.1296 60.1442 72.601 61.2895 73.7417 62.7132L64.0491 70.3231Z" fill="#000D19"/>
<path d="M64.0491 76.8537C67.7967 76.8537 70.8347 73.9228 70.8347 70.3073C70.8347 66.6919 67.7967 63.761 64.0491 63.761C60.3015 63.761 57.2634 66.6919 57.2634 70.3073C57.2634 73.9228 60.3015 76.8537 64.0491 76.8537Z" fill="white"/>
<path d="M97.8385 70.323L92.7676 81.3517C91.2638 80.7074 89.907 79.7823 88.7755 78.6298C87.644 77.4772 86.7602 76.12 86.1749 74.6364C85.5897 73.1527 85.3146 71.572 85.3656 69.9854C85.4166 68.3987 85.7926 66.8374 86.4719 65.3916C87.4386 63.2492 89.0388 61.4294 91.0722 60.1599C93.1056 58.8904 95.4819 58.2276 97.9038 58.2544L97.8385 70.323Z" fill="#F94A76"/>
<path d="M97.8384 70.3232L103.693 80.9423C102.029 81.825 100.174 82.3184 98.2761 82.3827C96.3784 82.447 94.4916 82.0804 92.7676 81.3126L97.8384 70.3232Z" fill="#003B73"/>
<path d="M97.8384 70.3231L107.523 62.7527C108.554 63.9801 109.325 65.3914 109.79 66.9061C110.256 68.4207 110.408 70.0091 110.237 71.5804C110.067 73.1518 109.577 74.6753 108.796 76.064C108.015 77.4527 106.958 78.6793 105.686 79.6739C105.067 80.1603 104.4 80.5853 103.693 80.9422L97.8384 70.3231Z" fill="#0274B6"/>
<path d="M97.8384 70.3231V58.2545C99.7019 58.2132 101.549 58.5953 103.232 59.3698C104.914 60.1444 106.384 61.2896 107.523 62.7132L97.8384 70.3231Z" fill="#000D19"/>
<path d="M97.8384 76.8537C101.586 76.8537 104.624 73.9228 104.624 70.3073C104.624 66.6919 101.586 63.761 97.8384 63.761C94.0908 63.761 91.0527 66.6919 91.0527 70.3073C91.0527 73.9228 94.0908 76.8537 97.8384 76.8537Z" fill="white"/>
<path d="M52.6089 48.9275H132.714" stroke="#000D19" stroke-width="0.464564" stroke-linecap="round" stroke-linejoin="round"/>
<path d="M52.6089 52.6851H147.6" stroke="#000D19" stroke-width="0.464564" stroke-linecap="round" stroke-linejoin="round"/>
<g clip-path="url(#clip0_65_1782)">
<path d="M237.118 70.2649H152.088V141.307H237.118V70.2649Z" fill="white"/>
<path d="M175.315 134.913H234.55" stroke="#8C8C8C" stroke-width="0.227698" stroke-miterlimit="10"/>
<path d="M234.551 134.913V134.372" stroke="#8C8C8C" stroke-width="0.227698" stroke-miterlimit="10"/>
<path d="M178.235 134.913V113.278" stroke="#8C8C8C" stroke-width="0.227698" stroke-miterlimit="10"/>
<path d="M178.235 134.913H179.716" stroke="#8C8C8C" stroke-width="0.227698" stroke-miterlimit="10"/>
<path d="M178.235 132.208H179.716" stroke="#8C8C8C" stroke-width="0.227698" stroke-miterlimit="10"/>
<path d="M178.235 129.503H179.716" stroke="#8C8C8C" stroke-width="0.227698" stroke-miterlimit="10"/>
<path d="M178.235 126.799H179.716" stroke="#8C8C8C" stroke-width="0.227698" stroke-miterlimit="10"/>
<path d="M178.235 124.094H179.716" stroke="#8C8C8C" stroke-width="0.227698" stroke-miterlimit="10"/>
<path d="M178.235 121.393H179.716" stroke="#8C8C8C" stroke-width="0.227698" stroke-miterlimit="10"/>
<path d="M178.235 118.688H179.716" stroke="#8C8C8C" stroke-width="0.227698" stroke-miterlimit="10"/>
<path d="M178.235 115.983H179.716" stroke="#8C8C8C" stroke-width="0.227698" stroke-miterlimit="10"/>
<path d="M178.235 113.278H179.716" stroke="#8C8C8C" stroke-width="0.227698" stroke-miterlimit="10"/>
<path d="M228.445 118.688H225.165V134.916H228.445V118.688Z" fill="#A1A1A1"/>
<path d="M224.799 130.858H221.518V134.913H224.799V130.858Z" fill="url(#paint16_linear_65_1782)"/>
<path d="M221.155 130.045H217.874V134.913H221.155V130.045Z" fill="#A1A1A1"/>
<path d="M217.507 121.393H214.227V134.917H217.507V121.393Z" fill="url(#paint17_linear_65_1782)"/>
<path d="M213.864 126.799H210.583V134.913H213.864V126.799Z" fill="#A1A1A1"/>
<path d="M210.22 128.153H206.94V134.913H210.22V128.153Z" fill="url(#paint18_linear_65_1782)"/>
<path d="M206.573 129.503H203.292V134.913H206.573V129.503Z" fill="#A1A1A1"/>
<path d="M202.929 115.983H199.649V134.913H202.929V115.983Z" fill="#C6FF00"/>
<path d="M199.282 132.208H196.001V134.913H199.282V132.208Z" fill="#A1A1A1"/>
<path d="M195.638 126.799H192.358V134.913H195.638V126.799Z" fill="#C6FF00"/>
<path d="M191.991 121.393H188.711V134.917H191.991V121.393Z" fill="#A1A1A1"/>
<path d="M188.347 124.094H185.067V134.913H188.347V124.094Z" fill="url(#paint19_linear_65_1782)"/>
<path d="M184.703 129.503H181.423V134.913H184.703V129.503Z" fill="#A1A1A1"/>
<path d="M154.738 102.891H232.713" stroke="#8C8C8C" stroke-width="0.227698" stroke-miterlimit="10"/>
<path d="M179.363 102.891V102.126" stroke="#8C8C8C" stroke-width="0.227698" stroke-miterlimit="10"/>
<path d="M183.466 102.891V102.126" stroke="#8C8C8C" stroke-width="0.227698" stroke-miterlimit="10"/>
<path d="M187.569 102.891V102.126" stroke="#8C8C8C" stroke-width="0.227698" stroke-miterlimit="10"/>
<path d="M191.676 102.891V102.126" stroke="#8C8C8C" stroke-width="0.227698" stroke-miterlimit="10"/>
<path d="M195.779 102.891V102.126" stroke="#8C8C8C" stroke-width="0.227698" stroke-miterlimit="10"/>
<path d="M199.882 102.891V102.126" stroke="#8C8C8C" stroke-width="0.227698" stroke-miterlimit="10"/>
<path d="M203.988 102.891V102.126" stroke="#8C8C8C" stroke-width="0.227698" stroke-miterlimit="10"/>
<path d="M208.091 102.891V102.126" stroke="#8C8C8C" stroke-width="0.227698" stroke-miterlimit="10"/>
<path d="M212.194 102.891V102.126" stroke="#8C8C8C" stroke-width="0.227698" stroke-miterlimit="10"/>
<path d="M216.297 102.891V102.126" stroke="#8C8C8C" stroke-width="0.227698" stroke-miterlimit="10"/>
<path d="M220.404 102.891V102.126" stroke="#8C8C8C" stroke-width="0.227698" stroke-miterlimit="10"/>
<path d="M224.507 102.891V102.126" stroke="#8C8C8C" stroke-width="0.227698" stroke-miterlimit="10"/>
<path d="M228.61 102.891V102.126" stroke="#8C8C8C" stroke-width="0.227698" stroke-miterlimit="10"/>
<path d="M232.713 102.891V102.126" stroke="#8C8C8C" stroke-width="0.227698" stroke-miterlimit="10"/>
<path d="M177.31 78.4207L173.207 95.5511" stroke="url(#paint20_linear_65_1782)" stroke-width="0.91079" stroke-miterlimit="10" stroke-linecap="round"/>
<path d="M181.416 72.3047L177.31 78.4205" stroke="url(#paint21_linear_65_1782)" stroke-width="0.91079" stroke-miterlimit="10" stroke-linecap="round"/>
<path d="M185.519 99.8328L181.416 72.3047" stroke="url(#paint22_linear_65_1782)" stroke-width="0.91079" stroke-miterlimit="10" stroke-linecap="round"/>
<path d="M189.622 97.999L185.519 99.8331" stroke="url(#paint23_linear_65_1782)" stroke-width="0.91079" stroke-miterlimit="10" stroke-linecap="round"/>
<path d="M193.726 97.385L189.622 97.9986" stroke="#C6FF00" stroke-width="0.91079" stroke-miterlimit="10" stroke-linecap="round"/>
<path d="M197.832 95.5513L193.725 97.3853" stroke="#C6FF00" stroke-width="0.91079" stroke-miterlimit="10" stroke-linecap="round"/>
<path d="M201.935 93.1035L197.832 95.5512" stroke="#C6FF00" stroke-width="0.91079" stroke-miterlimit="10" stroke-linecap="round"/>
<path d="M206.038 94.3274L201.935 93.1035" stroke="#C6FF00" stroke-width="0.91079" stroke-miterlimit="10" stroke-linecap="round"/>
<path d="M210.141 96.7751L206.038 94.3274" stroke="url(#paint24_linear_65_1782)" stroke-width="0.91079" stroke-miterlimit="10" stroke-linecap="round"/>
<path d="M214.248 83.9263L210.141 96.775" stroke="url(#paint25_linear_65_1782)" stroke-width="0.91079" stroke-miterlimit="10" stroke-linecap="round"/>
<path d="M218.351 82.092L214.248 83.9261" stroke="url(#paint26_linear_65_1782)" stroke-width="0.91079" stroke-miterlimit="10" stroke-linecap="round"/>
<path d="M222.454 79.6445L218.351 82.0922" stroke="url(#paint27_linear_65_1782)" stroke-width="0.91079" stroke-miterlimit="10" stroke-linecap="round"/>
<path d="M226.56 82.0922L222.454 79.6445" stroke="url(#paint28_linear_65_1782)" stroke-width="0.91079" stroke-miterlimit="10" stroke-linecap="round"/>
<path d="M230.663 84.5397L226.56 82.092" stroke="url(#paint29_linear_65_1782)" stroke-width="0.91079" stroke-miterlimit="10" stroke-linecap="round"/>
<path d="M177.31 77.7109C177.405 77.7105 177.499 77.7289 177.587 77.765C177.676 77.8012 177.756 77.8544 177.823 77.9216C177.891 77.9888 177.944 78.0687 177.981 78.1567C178.017 78.2447 178.036 78.339 178.036 78.4343C178.036 78.627 177.96 78.8119 177.823 78.9482C177.687 79.0845 177.502 79.1611 177.31 79.1611C177.214 79.1611 177.12 79.1422 177.032 79.1057C176.944 79.0691 176.864 79.0155 176.797 78.948C176.73 78.8805 176.677 78.8003 176.64 78.7121C176.604 78.624 176.586 78.5296 176.586 78.4343C176.586 78.3392 176.604 78.2449 176.64 78.1569C176.677 78.069 176.73 77.9891 176.797 77.9218C176.864 77.8545 176.944 77.8013 177.032 77.7651C177.12 77.7289 177.214 77.7105 177.31 77.7109Z" fill="white" stroke="url(#paint30_linear_65_1782)" stroke-width="0.455395" stroke-linecap="round" stroke-linejoin="round"/>
<path d="M181.416 71.5779C181.608 71.5788 181.792 71.6558 181.928 71.792C182.063 71.9282 182.139 72.1125 182.139 72.3047C182.138 72.4962 182.062 72.6797 181.926 72.8151C181.791 72.9506 181.608 73.0271 181.416 73.028C181.224 73.028 181.04 72.9519 180.903 72.8163C180.767 72.6808 180.69 72.4968 180.689 72.3047C180.689 72.1119 180.766 71.927 180.902 71.7907C181.038 71.6545 181.223 71.5779 181.416 71.5779Z" fill="white" stroke="url(#paint31_linear_65_1782)" stroke-width="0.455395" stroke-linecap="round" stroke-linejoin="round"/>
<path d="M185.519 99.1094C185.615 99.1089 185.709 99.1273 185.797 99.1635C185.885 99.1997 185.965 99.253 186.032 99.3202C186.099 99.3875 186.152 99.4674 186.189 99.5554C186.225 99.6433 186.243 99.7376 186.243 99.8327C186.243 99.928 186.225 100.022 186.189 100.111C186.152 100.199 186.099 100.279 186.032 100.346C185.965 100.414 185.885 100.468 185.797 100.504C185.709 100.541 185.615 100.559 185.519 100.559C185.327 100.559 185.142 100.483 185.006 100.347C184.869 100.21 184.793 100.025 184.793 99.8327C184.793 99.7374 184.812 99.6431 184.848 99.5551C184.885 99.4671 184.938 99.3872 185.006 99.32C185.073 99.2528 185.153 99.1996 185.242 99.1635C185.33 99.1273 185.424 99.1089 185.519 99.1094Z" fill="white" stroke="url(#paint32_linear_65_1782)" stroke-width="0.455395" stroke-linecap="round" stroke-linejoin="round"/>
<path d="M189.622 97.272C189.815 97.272 190 97.3485 190.136 97.4848C190.273 97.6211 190.349 97.806 190.349 97.9987C190.349 98.094 190.33 98.1884 190.294 98.2763C190.257 98.3643 190.204 98.4442 190.136 98.5114C190.069 98.5786 189.988 98.6319 189.9 98.668C189.812 98.7042 189.718 98.7225 189.622 98.7221C189.527 98.7225 189.433 98.7042 189.345 98.668C189.256 98.6319 189.176 98.5786 189.109 98.5114C189.041 98.4442 188.988 98.3643 188.951 98.2763C188.915 98.1884 188.896 98.094 188.896 97.9987C188.896 97.806 188.972 97.6211 189.109 97.4848C189.245 97.3485 189.43 97.272 189.622 97.272Z" fill="white" stroke="url(#paint33_linear_65_1782)" stroke-width="0.455395" stroke-linecap="round" stroke-linejoin="round"/>
<path d="M193.726 96.6621C193.821 96.6617 193.915 96.68 194.003 96.7162C194.092 96.7523 194.172 96.8055 194.239 96.8728C194.307 96.94 194.36 97.0199 194.397 97.1079C194.433 97.1958 194.452 97.2902 194.452 97.3855C194.452 97.4809 194.433 97.5754 194.397 97.6636C194.36 97.7518 194.307 97.8319 194.239 97.8994C194.172 97.9668 194.092 98.0204 194.004 98.0569C193.916 98.0934 193.821 98.1122 193.726 98.1122C193.533 98.1113 193.349 98.0344 193.214 97.8982C193.078 97.762 193.002 97.5776 193.002 97.3855C193.002 97.1936 193.079 97.0096 193.214 96.874C193.35 96.7383 193.534 96.6621 193.726 96.6621Z" fill="white" stroke="#C6FF00" stroke-width="0.455395" stroke-linecap="round" stroke-linejoin="round"/>
<path d="M197.832 94.8242C197.927 94.8242 198.022 94.843 198.11 94.8796C198.198 94.9162 198.277 94.9698 198.345 95.0373C198.412 95.1048 198.465 95.185 198.501 95.2731C198.537 95.3613 198.556 95.4557 198.555 95.551C198.556 95.6463 198.537 95.7407 198.501 95.8289C198.465 95.917 198.412 95.9972 198.345 96.0647C198.277 96.1322 198.198 96.1858 198.11 96.2224C198.022 96.2589 197.927 96.2778 197.832 96.2778C197.737 96.2778 197.642 96.259 197.554 96.2224C197.466 96.1859 197.386 96.1324 197.318 96.0649C197.251 95.9974 197.197 95.9173 197.161 95.8291C197.124 95.7409 197.105 95.6464 197.105 95.551C197.105 95.4555 197.124 95.361 197.161 95.2729C197.197 95.1847 197.251 95.1046 197.318 95.0371C197.386 94.9696 197.466 94.9161 197.554 94.8795C197.642 94.843 197.737 94.8242 197.832 94.8242Z" fill="white" stroke="#C6FF00" stroke-width="0.455395" stroke-linecap="round" stroke-linejoin="round"/>
<path d="M201.935 92.3799C202.03 92.3794 202.125 92.3978 202.213 92.434C202.301 92.4701 202.381 92.5233 202.449 92.5905C202.516 92.6578 202.57 92.7376 202.606 92.8256C202.643 92.9136 202.662 93.008 202.662 93.1032C202.662 93.1987 202.643 93.2932 202.607 93.3814C202.57 93.4695 202.517 93.5496 202.449 93.6171C202.382 93.6846 202.301 93.7382 202.213 93.7747C202.125 93.8112 202.031 93.83 201.935 93.83C201.84 93.83 201.745 93.8112 201.657 93.7747C201.569 93.7382 201.489 93.6846 201.421 93.6171C201.354 93.5496 201.3 93.4695 201.264 93.3814C201.227 93.2932 201.208 93.1987 201.208 93.1032C201.208 93.008 201.227 92.9136 201.264 92.8256C201.3 92.7376 201.354 92.6578 201.422 92.5905C201.489 92.5233 201.569 92.4701 201.657 92.434C201.746 92.3978 201.84 92.3794 201.935 92.3799Z" fill="white" stroke="#C6FF00" stroke-width="0.455395" stroke-linecap="round" stroke-linejoin="round"/>
<path d="M206.038 93.6006C206.231 93.6006 206.416 93.6772 206.552 93.8134C206.688 93.9497 206.765 94.1346 206.765 94.3274C206.765 94.5201 206.688 94.705 206.552 94.8413C206.416 94.9776 206.231 95.0541 206.038 95.0541C205.943 95.0541 205.849 95.0353 205.761 94.9987C205.673 94.9622 205.593 94.9086 205.526 94.841C205.458 94.7735 205.405 94.6934 205.369 94.6052C205.333 94.5171 205.314 94.4226 205.315 94.3274C205.314 94.2321 205.333 94.1376 205.369 94.0495C205.405 93.9613 205.458 93.8812 205.526 93.8137C205.593 93.7461 205.673 93.6925 205.761 93.656C205.849 93.6194 205.943 93.6006 206.038 93.6006Z" fill="white" stroke="url(#paint34_linear_65_1782)" stroke-width="0.455395" stroke-linecap="round" stroke-linejoin="round"/>
<path d="M210.141 96.0483C210.334 96.0483 210.519 96.1249 210.655 96.2612C210.791 96.3975 210.868 96.5824 210.868 96.7751C210.868 96.9679 210.791 97.1527 210.655 97.289C210.519 97.4253 210.334 97.5019 210.141 97.5019C209.949 97.501 209.765 97.424 209.63 97.2878C209.494 97.1516 209.418 96.9673 209.418 96.7751C209.418 96.5829 209.494 96.3986 209.63 96.2624C209.765 96.1262 209.949 96.0492 210.141 96.0483Z" fill="white" stroke="url(#paint35_linear_65_1782)" stroke-width="0.455395" stroke-linecap="round" stroke-linejoin="round"/>
<path d="M214.248 83.1961C214.343 83.1956 214.437 83.214 214.525 83.2502C214.613 83.2864 214.693 83.3396 214.76 83.4069C214.827 83.4742 214.881 83.5541 214.917 83.642C214.953 83.73 214.971 83.8243 214.971 83.9194C214.971 84.0147 214.953 84.1091 214.917 84.1973C214.881 84.2854 214.827 84.3656 214.76 84.4331C214.693 84.5006 214.613 84.5542 214.525 84.5908C214.437 84.6273 214.343 84.6462 214.248 84.6462C214.152 84.6462 214.058 84.6274 213.969 84.5908C213.881 84.5543 213.801 84.5008 213.734 84.4333C213.666 84.3658 213.613 84.2857 213.576 84.1975C213.54 84.1093 213.521 84.0148 213.521 83.9194C213.521 83.8241 213.54 83.7298 213.576 83.6418C213.613 83.5538 213.666 83.4739 213.734 83.4067C213.801 83.3395 213.882 83.2863 213.97 83.2501C214.058 83.214 214.152 83.1956 214.248 83.1961Z" fill="white" stroke="url(#paint36_linear_65_1782)" stroke-width="0.455395" stroke-linecap="round" stroke-linejoin="round"/>
<path d="M218.351 81.3655C218.543 81.3655 218.728 81.442 218.865 81.5783C219.001 81.7146 219.077 81.8995 219.077 82.0922C219.077 82.285 219.001 82.4699 218.865 82.6061C218.728 82.7424 218.543 82.819 218.351 82.819C218.158 82.819 217.973 82.7424 217.837 82.6061C217.701 82.4699 217.624 82.285 217.624 82.0922C217.624 81.8995 217.701 81.7146 217.837 81.5783C217.973 81.442 218.158 81.3655 218.351 81.3655Z" fill="white" stroke="url(#paint37_linear_65_1782)" stroke-width="0.455395" stroke-linecap="round" stroke-linejoin="round"/>
<path d="M222.454 78.9178C222.646 78.9178 222.831 78.9943 222.968 79.1306C223.104 79.2669 223.18 79.4518 223.18 79.6445C223.18 79.8373 223.104 80.0221 222.968 80.1584C222.831 80.2947 222.646 80.3713 222.454 80.3713C222.358 80.3722 222.263 80.3541 222.174 80.3179C222.085 80.2817 222.005 80.2283 221.937 80.1607C221.869 80.093 221.815 80.0126 221.778 79.924C221.742 79.8354 221.723 79.7404 221.724 79.6445C221.723 79.5487 221.742 79.4537 221.778 79.3651C221.815 79.2765 221.869 79.196 221.937 79.1284C222.005 79.0608 222.085 79.0073 222.174 78.9712C222.263 78.935 222.358 78.9168 222.454 78.9178Z" fill="white" stroke="url(#paint38_linear_65_1782)" stroke-width="0.455395" stroke-linecap="round" stroke-linejoin="round"/>
<path d="M226.56 81.3655C226.752 81.3664 226.936 81.4434 227.072 81.5795C227.207 81.7157 227.283 81.9001 227.283 82.0922C227.283 82.2844 227.207 82.4687 227.072 82.6049C226.936 82.7411 226.752 82.8181 226.56 82.819C226.367 82.819 226.182 82.7424 226.046 82.6061C225.91 82.4699 225.833 82.285 225.833 82.0922C225.833 81.8995 225.91 81.7146 226.046 81.5783C226.182 81.442 226.367 81.3655 226.56 81.3655Z" fill="white" stroke="url(#paint39_linear_65_1782)" stroke-width="0.455395" stroke-linecap="round" stroke-linejoin="round"/>
<path d="M230.663 83.8132C230.759 83.8132 230.853 83.8321 230.941 83.8686C231.029 83.9052 231.109 83.9588 231.176 84.0263C231.243 84.0938 231.296 84.174 231.333 84.2621C231.369 84.3503 231.387 84.4447 231.387 84.54C231.387 84.6351 231.369 84.7294 231.332 84.8173C231.296 84.9053 231.243 84.9852 231.176 85.0525C231.109 85.1198 231.029 85.173 230.941 85.2092C230.853 85.2454 230.758 85.2638 230.663 85.2633C230.568 85.2638 230.474 85.2454 230.386 85.2093C230.297 85.1731 230.217 85.1199 230.15 85.0527C230.082 84.9855 230.029 84.9056 229.992 84.8176C229.955 84.7296 229.937 84.6353 229.937 84.54C229.937 84.4446 229.955 84.3501 229.992 84.2619C230.028 84.1737 230.082 84.0936 230.149 84.0261C230.217 83.9586 230.297 83.9051 230.385 83.8686C230.473 83.832 230.568 83.8132 230.663 83.8132Z" fill="white" stroke="url(#paint40_linear_65_1782)" stroke-width="0.455395" stroke-linecap="round" stroke-linejoin="round"/>
<path d="M197.739 129.555L193.78 127.769" stroke="white" stroke-width="0.455395" stroke-linecap="round" stroke-linejoin="round"/>
</g>
<path d="M269.185 126.475C269.185 126.475 265.224 130.902 265.641 131.706C266.057 132.509 269.397 134.526 269.601 133.321C269.992 131.392 270.264 129.443 270.418 127.483C270.45 126.073 270.655 125.672 269.185 126.475Z" fill="white" stroke="#000D19" stroke-width="0.464564" stroke-linecap="round" stroke-linejoin="round"/>
<path d="M271.283 117.022C271.283 117.022 268.572 122.654 268.36 123.86C268.148 125.065 269.405 126.68 269.405 127.286C269.405 127.893 267.772 129.697 267.772 132.517C267.772 135.337 267.552 141.773 270.001 143.38C272.451 144.987 276.673 143.176 276.673 143.176L280.633 150.62L296.483 141.773L294.188 138.347C294.188 138.347 297.528 129.681 295.005 123.056C292.481 116.431 283.573 115.415 279.988 115.178C276.403 114.942 272.533 114.611 271.283 117.022Z" fill="white"/>
<mask id="mask0_65_1782" style="mask-type:luminance" maskUnits="userSpaceOnUse" x="267" y="115" width="30" height="36">
<path d="M271.283 117.022C271.283 117.022 268.572 122.654 268.36 123.86C268.148 125.065 269.405 126.68 269.405 127.286C269.405 127.893 267.772 129.697 267.772 132.517C267.772 135.337 267.552 141.773 270.001 143.38C272.451 144.987 276.673 143.176 276.673 143.176L280.633 150.62L296.483 141.773L294.188 138.347C294.188 138.347 297.528 129.681 295.005 123.056C292.481 116.431 283.573 115.415 279.988 115.178C276.403 114.942 272.533 114.611 271.283 117.022Z" fill="white"/>
</mask>
<g mask="url(#mask0_65_1782)">
<path d="M294.221 138.347C294.221 138.347 297.56 129.681 295.037 123.056C292.514 116.431 283.605 115.415 280.021 115.179L278.249 115.076L273.611 118.59C273.611 118.59 269.806 123.836 271.439 125.939C273.072 128.043 274.158 130.138 273.611 133.557C273.064 136.976 269.454 142.869 273.072 143.01C273.815 143.01 274.991 143.136 276.387 143.262C276.49 143.229 276.591 143.189 276.689 143.144L276.771 143.302C282.111 143.83 290.22 144.877 290.22 144.877L291.036 144.83L296.515 141.774L294.221 138.347Z" fill="url(#paint41_linear_65_1782)"/>
<path opacity="0.88" d="M294.221 138.347C294.221 138.347 297.56 129.681 295.037 123.056C292.514 116.431 283.605 115.415 280.021 115.179L278.249 115.076L273.611 118.59C273.611 118.59 269.806 123.836 271.439 125.939C273.072 128.043 274.158 130.138 273.611 133.557C273.064 136.976 269.454 142.869 273.072 143.01C273.815 143.01 274.991 143.136 276.387 143.262C276.49 143.229 276.591 143.189 276.689 143.144L276.771 143.302C282.111 143.83 290.22 144.877 290.22 144.877L291.036 144.83L296.515 141.774L294.221 138.347Z" fill="white"/>
</g>
<path d="M271.283 117.022C271.283 117.022 268.572 122.654 268.36 123.86C268.148 125.065 269.405 126.68 269.405 127.286C269.405 127.893 267.772 129.697 267.772 132.517C267.772 135.337 267.552 141.773 270.001 143.38C272.451 144.987 276.673 143.176 276.673 143.176L280.633 150.62L296.483 141.773L294.188 138.347C294.188 138.347 297.528 129.681 295.005 123.056C292.481 116.431 283.573 115.415 279.988 115.178C276.403 114.942 272.533 114.611 271.283 117.022Z" stroke="#000D19" stroke-width="0.464564" stroke-linecap="round" stroke-linejoin="round"/>
<path d="M292.971 110.782C292.971 110.782 285.255 108.569 278.583 108.774C271.912 108.978 265.233 110.782 265.445 114.201C265.657 117.62 271.904 118.833 271.904 118.833C271.904 118.833 275.456 119.03 274.411 120.039C273.366 121.047 270.655 123.056 272.778 125.474C274.901 127.893 276.942 129.902 276.322 130.705C275.701 131.509 276.534 133.344 277.35 132.714C278.167 132.084 276.934 129.697 279.229 128.893C281.523 128.09 283.818 131.509 282.985 133.722C282.152 135.936 280.69 135.731 281.523 137.346C282.356 138.961 287.574 141.568 291.118 141.568C294.662 141.568 295.707 137.141 299.463 130.098C303.219 123.056 300.688 112.799 292.971 110.782Z" fill="#000D19" stroke="#000D19" stroke-width="0.464564" stroke-linecap="round" stroke-linejoin="round"/>
<path d="M273.162 152.432L275.244 156.253L298.189 141.773L295.895 139.15C295.895 139.15 276.706 149.415 273.162 152.432Z" fill="white" stroke="#000D19" stroke-width="0.464564" stroke-linecap="round" stroke-linejoin="round"/>
<path d="M277.538 153.038C277.538 153.038 272.949 159.073 271.284 162.09C269.618 165.107 262.522 182.816 259.386 189.055C257.559 192.64 256.109 196.393 255.058 200.257H298.802C298.802 200.257 303.807 176.175 303.807 165.714C303.807 155.252 301.309 147.406 300.467 145.389C299.626 143.373 296.507 141.773 296.507 141.773L277.538 153.038Z" fill="white"/>
<mask id="mask1_65_1782" style="mask-type:luminance" maskUnits="userSpaceOnUse" x="255" y="141" width="49" height="60">
<path d="M277.538 153.038C277.538 153.038 272.949 159.073 271.284 162.09C269.618 165.107 262.522 182.816 259.386 189.055C257.559 192.64 256.109 196.393 255.058 200.257H298.802C298.802 200.257 303.807 176.175 303.807 165.714C303.807 155.252 301.309 147.406 300.467 145.389C299.626 143.373 296.507 141.773 296.507 141.773L277.538 153.038Z" fill="white"/>
</mask>
<g mask="url(#mask1_65_1782)">
<path d="M277.539 153.038C277.539 153.038 272.95 159.073 271.284 162.09C269.618 165.107 262.522 182.816 259.386 189.055C257.559 192.64 256.109 196.393 255.059 200.257H298.802C298.802 200.257 303.807 176.175 303.807 165.714C303.807 155.252 301.309 147.406 300.468 145.389C299.627 143.373 296.507 141.773 296.507 141.773L277.539 153.038Z" fill="#BDBDBD" stroke="#000D19" stroke-width="0.464564" stroke-linecap="round" stroke-linejoin="round"/>
<path d="M265.543 175.663C265.543 175.663 275.342 160.869 279.033 157.04C282.724 153.212 301.031 144.145 301.031 144.145L298.141 141.127C298.141 141.127 279.303 150.147 276.387 152.944C273.472 155.741 265.021 172.347 265.543 175.663Z" fill="#BDBDBD" stroke="#000D19" stroke-width="0.464564" stroke-linecap="round" stroke-linejoin="round"/>
</g>
<path d="M277.538 153.038C277.538 153.038 272.949 159.073 271.284 162.09C269.618 165.107 262.522 182.816 259.386 189.055C257.559 192.64 256.109 196.393 255.058 200.257H298.802C298.802 200.257 303.807 176.175 303.807 165.714C303.807 155.252 301.309 147.406 300.467 145.389C299.626 143.373 296.507 141.773 296.507 141.773L277.538 153.038Z" stroke="#000D19" stroke-width="0.464564" stroke-linecap="round" stroke-linejoin="round"/>
<path d="M289.599 153.039C289.599 153.039 278.167 160.278 276.46 163.099C274.754 165.919 276.256 170.338 276.256 170.976C276.256 171.614 274.582 173.592 274.582 174.198V176.207L265.6 199.549H286.014C286.014 199.549 294.776 179.027 296.442 175.002C298.108 170.976 298.949 163.729 298.075 159.711" stroke="#000D19" stroke-width="0.464564" stroke-linecap="round" stroke-linejoin="round"/>
<path d="M278.167 170.37C278.167 170.37 283.173 164.737 290.677 163.934" stroke="#000D19" stroke-width="0.464564" stroke-linecap="round" stroke-linejoin="round"/>
<path d="M326.761 129.106C326.761 129.106 312.357 126.325 308.323 129.658C304.289 132.99 306.592 153.291 305.44 158.569C304.289 163.847 301.407 169.408 302.558 174.962C303.709 180.516 306.306 184.415 307.457 187.196C308.609 189.977 307.163 200.257 307.163 200.257H349.208C349.208 200.257 356.696 181.075 356.696 166.628C356.696 152.18 352.107 139.647 345.199 134.92C338.291 130.193 326.761 129.106 326.761 129.106Z" fill="url(#paint42_linear_65_1782)"/>
<mask id="mask2_65_1782" style="mask-type:luminance" maskUnits="userSpaceOnUse" x="302" y="128" width="55" height="73">
<path d="M326.761 129.106C326.761 129.106 312.357 126.325 308.323 129.658C304.289 132.99 306.592 153.291 305.44 158.569C304.289 163.847 301.407 169.408 302.558 174.962C303.709 180.516 306.306 184.415 307.457 187.196C308.609 189.977 307.163 200.257 307.163 200.257H349.208C349.208 200.257 356.696 181.075 356.696 166.628C356.696 152.18 352.107 139.647 345.199 134.92C338.291 130.193 326.761 129.106 326.761 129.106Z" fill="white"/>
</mask>
<g mask="url(#mask2_65_1782)">
<path opacity="0.26" d="M311.336 137.787C307.253 144.35 311.883 180.327 312.969 183.738C314.055 187.149 306.167 184.006 308.617 185.841C311.066 187.677 315.729 190.851 315.729 190.851C315.729 190.851 310.781 188.811 307.719 187.984C307.862 188.807 307.936 189.639 307.939 190.473C310.674 192.527 313.55 194.401 316.546 196.082L307.604 196.799C307.416 198.784 307.204 200.257 307.204 200.257H349.208C349.208 200.257 356.696 181.075 356.696 166.628C356.743 160.605 355.871 154.609 354.107 148.832L329.006 138.591C329.006 138.591 315.419 131.225 311.336 137.787Z" fill="#000D19"/>
</g>
<path d="M326.761 129.106C326.761 129.106 312.357 126.325 308.323 129.658C304.289 132.99 306.592 153.291 305.44 158.569C304.289 163.847 301.407 169.408 302.558 174.962C303.709 180.516 306.306 184.415 307.457 187.196C308.609 189.977 307.163 200.257 307.163 200.257H349.208C349.208 200.257 356.696 181.075 356.696 166.628C356.696 152.18 352.107 139.647 345.199 134.92C338.291 130.193 326.761 129.106 326.761 129.106Z" stroke="#000D19" stroke-width="0.464564" stroke-linecap="round" stroke-linejoin="round"/>
<path d="M326.467 79.0753C326.467 79.0753 320.13 74.073 314.08 77.681C308.029 81.2889 297.659 97.9738 298.81 106.308C299.961 114.643 310.34 122.434 303.424 126.877C296.507 131.32 299.104 139.387 302.558 141.608L304.575 141.892C304.575 141.892 304.575 133.825 310.34 131.604C316.105 129.382 324.45 131.328 326.467 133.825C328.484 136.322 324.711 149.1 329.611 152.448C334.51 155.796 341.426 156.339 339.989 159.68C338.552 163.02 333.644 168.29 336.813 173.016C339.981 177.743 347.763 182.47 350.359 180.8C352.956 179.129 349.208 177.184 350.645 176.073C352.082 174.962 363.898 171.071 361.881 166.344C359.864 161.617 355.545 159.12 357.562 157.174C359.578 155.229 367.066 150.502 366.201 143.838C365.335 137.173 348.914 132.163 348.343 124.931C347.771 117.7 358.141 116.872 354.679 100.51C351.217 84.1485 340.561 76.8775 335.376 76.8775C332.262 76.8793 329.199 77.635 326.467 79.0753Z" fill="#000D19" stroke="#000D19" stroke-width="0.464564" stroke-linecap="round" stroke-linejoin="round"/>
<path d="M332.06 87.7957C336.404 93.6015 341.859 102.172 342.047 108.648C342.316 119.432 332.501 123.899 334.134 132.281C335.767 140.663 354.834 142.144 356.222 149.612C357.61 157.08 348.873 154.338 351.037 158.553C353.201 162.767 361.652 166.43 358.133 171.157" stroke="white" stroke-width="0.464564" stroke-linecap="round" stroke-linejoin="round"/>
<path d="M326.753 81.2888C326.753 81.2888 327.667 82.305 329.047 83.9909" stroke="white" stroke-width="0.464564" stroke-linecap="round" stroke-linejoin="round"/>
<path d="M322.433 123.931C323.429 124.939 324.066 125.876 324.066 126.798" stroke="white" stroke-width="0.464564" stroke-linecap="round" stroke-linejoin="round"/>
<path d="M305.759 91.8135C305.759 91.8135 301.398 103.409 307.939 111.287C311.426 115.486 315.762 118.574 319.053 121.095" stroke="white" stroke-width="0.464564" stroke-linecap="round" stroke-linejoin="round"/>
<path d="M345.027 139.78C346.293 140.229 347.673 140.607 349.11 141.001" stroke="white" stroke-width="0.464564" stroke-linecap="round" stroke-linejoin="round"/>
<path d="M346.652 89.45C346.652 89.45 355.92 100.754 352.654 110.491C349.388 120.228 338.478 125.459 338.478 131.761C338.364 133.683 339.029 135.573 340.332 137.031" stroke="white" stroke-width="0.464564" stroke-linecap="round" stroke-linejoin="round"/>
<path d="M236.523 190.993C236.523 190.993 234.791 193.041 234.791 194.326C234.791 195.61 234.13 198.178 234.93 198.264C235.73 198.351 236.253 195.57 237.053 194.546C237.854 193.522 239.846 193.262 239.715 191.852C239.585 190.442 237.698 189.189 236.523 190.993Z" fill="white" stroke="#000D19" stroke-width="0.464564" stroke-linecap="round" stroke-linejoin="round"/>
<path d="M255.663 192.789C255.663 192.789 248.207 186.755 246.321 186.125C244.435 185.495 240.728 189.591 238.466 193.569C236.204 197.547 237.404 198.453 238.605 198.579C239.805 198.705 244.99 196.523 244.99 196.523C246.829 197.934 248.963 198.942 251.245 199.477C254.838 200.265 260.023 198.193 260.162 196.137C260.301 194.081 255.663 192.789 255.663 192.789Z" fill="white" stroke="#000D19" stroke-width="0.464564" stroke-linecap="round" stroke-linejoin="round"/>
<path d="M325.03 151.597C325.03 151.597 325.316 193.585 324.164 196.917C323.013 200.249 318.979 200.257 312.357 200.533C305.734 200.809 265.396 199.698 265.396 199.698C263.106 200.028 260.795 200.215 258.48 200.257C255.312 200.257 249.833 199.698 247.816 198.312C245.799 196.925 244.076 196.641 243.21 196.917C242.345 197.193 240.042 199.982 238.025 199.982C236.008 199.982 233.705 199.147 235.143 198.863C236.58 198.579 244.362 190.528 246.093 190.528C247.824 190.528 260.203 193.585 262.514 193.309C264.825 193.033 306.012 185.25 306.012 185.25L304.575 141.923C304.575 141.923 303.13 134.416 310.34 131.635" fill="url(#paint43_linear_65_1782)"/>
<mask id="mask3_65_1782" style="mask-type:luminance" maskUnits="userSpaceOnUse" x="234" y="131" width="92" height="70">
<path d="M325.03 151.597C325.03 151.597 325.316 193.585 324.164 196.917C323.013 200.249 318.979 200.257 312.357 200.533C305.734 200.809 265.396 199.698 265.396 199.698C263.106 200.028 260.795 200.215 258.48 200.257C255.312 200.257 249.833 199.698 247.816 198.312C245.799 196.925 244.076 196.641 243.21 196.917C242.345 197.193 240.042 199.982 238.025 199.982C236.008 199.982 233.705 199.147 235.143 198.863C236.58 198.579 244.362 190.528 246.093 190.528C247.824 190.528 260.203 193.585 262.514 193.309C264.825 193.033 306.012 185.25 306.012 185.25L304.575 141.923C304.575 141.923 303.13 134.416 310.34 131.635" fill="white"/>
</mask>
<g mask="url(#mask3_65_1782)">
<path opacity="0.26" d="M313.549 135.802C312.629 136.244 311.86 136.934 311.336 137.787C307.254 144.35 311.883 180.327 312.969 183.738C314.055 187.149 306.167 184.006 308.617 185.841C311.067 187.677 315.729 190.851 315.729 190.851C315.729 190.851 302.395 185.337 305.931 188.756C309.466 192.175 316.546 196.106 316.546 196.106L270.002 199.848C280.764 200.123 307.123 200.777 312.373 200.557C318.996 200.281 323.029 200.281 324.181 196.941C325.332 193.601 325.046 150.809 325.046 150.809L313.549 135.802Z" fill="#000D19"/>
</g>
<path d="M325.03 151.597C325.03 151.597 325.316 193.585 324.164 196.917C323.013 200.249 318.979 200.257 312.357 200.533C305.734 200.809 265.396 199.698 265.396 199.698C263.106 200.028 260.795 200.215 258.48 200.257C255.312 200.257 249.833 199.698 247.816 198.312C245.799 196.925 244.076 196.641 243.21 196.917C242.345 197.193 240.042 199.982 238.025 199.982C236.008 199.982 233.705 199.147 235.143 198.863C236.58 198.579 244.362 190.528 246.093 190.528C247.824 190.528 260.203 193.585 262.514 193.309C264.825 193.033 306.012 185.25 306.012 185.25L304.575 141.923C304.575 141.923 303.13 134.416 310.34 131.635" stroke="#000D19" stroke-width="0.464564" stroke-linecap="round" stroke-linejoin="round"/>
<path d="M277.392 200.013C276.503 196.872 276.701 193.536 277.955 190.513C270.083 191.978 263.404 193.199 262.514 193.309C260.203 193.585 247.816 190.528 246.093 190.528C244.37 190.528 236.58 198.587 235.143 198.863C233.705 199.139 236.008 199.982 238.025 199.982C240.042 199.982 242.345 197.201 243.21 196.917C244.076 196.634 245.799 196.917 247.816 198.312C249.833 199.706 255.312 200.257 258.48 200.257C260.795 200.215 263.106 200.028 265.396 199.698L277.392 200.013Z" fill="white" stroke="#000D19" stroke-width="0.464564" stroke-linecap="round" stroke-linejoin="round"/>
<path d="M239.56 188.039C238.299 188.76 237.246 189.776 236.498 190.993C235.681 192.655 236.498 197.791 237.829 197.791C239.16 197.791 240.091 196.381 240.091 194.585C240.091 192.789 239.56 188.039 239.56 188.039Z" fill="white" stroke="#000D19" stroke-width="0.464564" stroke-linecap="round" stroke-linejoin="round"/>
<path d="M241.422 187.007C241.422 187.007 239.291 187.141 238.491 188.677C237.69 190.213 237.829 196.767 239.16 197.02C240.491 197.272 241.022 195.097 241.022 193.687C241.022 192.277 241.422 187.007 241.422 187.007Z" fill="white" stroke="#000D19" stroke-width="0.464564" stroke-linecap="round" stroke-linejoin="round"/>
<path d="M246.321 186.125C246.321 186.125 243.129 185.613 241.798 186.511C240.467 187.409 240.164 195.373 241.128 196.011C242.091 196.649 243.659 194.987 243.659 194.089C243.659 193.191 245.521 188.307 245.521 188.307" fill="white"/>
<path d="M246.321 186.125C246.321 186.125 243.129 185.613 241.798 186.511C240.467 187.409 240.164 195.373 241.128 196.011C242.091 196.649 243.659 194.987 243.659 194.089C243.659 193.191 245.521 188.307 245.521 188.307" stroke="#000D19" stroke-width="0.464564" stroke-linecap="round" stroke-linejoin="round"/>
<mask id="mask4_65_1782" style="mask-type:luminance" maskUnits="userSpaceOnUse" x="110" y="61" width="135" height="140">
<path d="M244.639 61.0906H110.225V200.312H244.639V61.0906Z" fill="white"/>
</mask>
<g mask="url(#mask4_65_1782)">
<path d="M166.388 159.845C166.388 159.845 162.567 165.438 164.175 168.156C165.784 170.874 171.622 176.498 183.683 175.718C195.743 174.939 188.509 155.347 189.913 143.325C191.318 131.304 186.1 129.547 181.87 132.651C177.64 135.755 172.422 150.675 170.381 153.22C168.857 155.314 167.521 157.531 166.388 159.845Z" fill="url(#paint44_linear_65_1782)"/>
<mask id="mask5_65_1782" style="mask-type:luminance" maskUnits="userSpaceOnUse" x="163" y="131" width="28" height="45">
<path d="M166.388 159.845C166.388 159.845 162.567 165.438 164.175 168.156C165.784 170.874 171.622 176.498 183.683 175.718C195.743 174.939 188.509 155.347 189.913 143.325C191.318 131.304 186.1 129.547 181.87 132.651C177.64 135.755 172.422 150.675 170.381 153.22C168.857 155.314 167.521 157.531 166.388 159.845Z" fill="white"/>
</mask>
<g mask="url(#mask5_65_1782)">
<path opacity="0.42" d="M166.388 159.845C166.388 159.845 162.567 165.438 164.175 168.156C165.784 170.874 171.622 176.498 183.683 175.718C195.743 174.939 188.509 155.347 189.913 143.325C191.318 131.304 186.1 129.547 181.87 132.651C177.64 135.755 172.422 150.675 170.381 153.22C168.857 155.314 167.521 157.531 166.388 159.845Z" fill="#000D19" stroke="#000D19" stroke-width="0.464564" stroke-linecap="round" stroke-linejoin="round"/>
</g>
<path d="M166.388 159.845C166.388 159.845 162.567 165.438 164.175 168.156C165.784 170.874 171.622 176.498 183.683 175.718C195.743 174.939 188.509 155.347 189.913 143.325C191.318 131.304 186.1 129.547 181.87 132.651C177.64 135.755 172.422 150.675 170.381 153.22C168.857 155.314 167.521 157.531 166.388 159.845Z" stroke="#000D19" stroke-width="0.464564" stroke-linecap="round" stroke-linejoin="round"/>
<path d="M181.07 163.106C181.07 163.106 181.07 180.374 181.274 185.81C181.478 191.245 182.278 204.432 182.278 204.432H220.077L218.068 165.044L217.464 163.098L181.07 163.106Z" fill="#000D19" stroke="#000D19" stroke-width="0.464564" stroke-linecap="round" stroke-linejoin="round"/>
<path d="M203.068 167.683L218.231 168.266L218.068 165.052L217.464 163.106H202.831L203.068 167.683Z" fill="white" stroke="#000D19" stroke-width="0.464564" stroke-linecap="round" stroke-linejoin="round"/>
<path d="M185.079 163.106H181.062C181.062 163.106 181.062 164.603 181.062 166.832L185.071 166.99L185.079 163.106Z" fill="white" stroke="#000D19" stroke-width="0.464564" stroke-linecap="round" stroke-linejoin="round"/>
<path d="M186.377 163.106L186.598 167.045L200.332 167.581L200.194 163.106H186.377Z" fill="white" stroke="#000D19" stroke-width="0.464564" stroke-linecap="round" stroke-linejoin="round"/>
<path d="M181.274 133.234C181.274 133.234 181.07 155.544 181.274 159.034C181.478 162.523 179.641 163.689 182.678 164.272C185.716 164.855 210.229 165.438 212.638 165.06C215.047 164.682 215.088 163.484 215.659 162.342C216.231 161.2 224.274 111.287 222.494 109.956C220.714 108.624 209.225 104.528 208.212 104.528C207.2 104.528 192.33 105.316 189.513 105.686C186.696 106.056 183.479 105.3 183.283 106.852C183.087 108.404 181.274 133.234 181.274 133.234Z" fill="white"/>
<mask id="mask6_65_1782" style="mask-type:luminance" maskUnits="userSpaceOnUse" x="180" y="104" width="43" height="62">
<path d="M181.274 133.234C181.274 133.234 181.07 155.544 181.274 159.034C181.478 162.523 179.641 163.689 182.678 164.272C185.716 164.855 210.229 165.438 212.638 165.06C215.047 164.682 215.088 163.484 215.659 162.342C216.231 161.2 224.274 111.287 222.494 109.956C220.714 108.624 209.225 104.528 208.212 104.528C207.2 104.528 192.33 105.316 189.513 105.686C186.696 106.056 183.479 105.3 183.283 106.852C183.087 108.404 181.274 133.234 181.274 133.234Z" fill="white"/>
</mask>
<g mask="url(#mask6_65_1782)">
<path d="M193.596 111.933C193.596 111.933 188.884 111.712 187.986 112.146C187.48 112.39 184.393 119.7 181.805 126.002C181.503 130.107 181.274 133.234 181.274 133.234C181.274 133.234 181.07 155.544 181.274 159.033C181.405 161.326 180.678 162.61 181.005 163.39C182.025 159.979 183.65 154.07 185.52 145.681C188.664 131.619 193.596 111.933 193.596 111.933Z" fill="#BDBDBD"/>
</g>
<path d="M181.274 133.234C181.274 133.234 181.07 155.544 181.274 159.034C181.478 162.523 179.641 163.689 182.678 164.272C185.716 164.855 210.229 165.438 212.638 165.06C215.047 164.682 215.088 163.484 215.659 162.342C216.231 161.2 224.274 111.287 222.494 109.956C220.714 108.624 209.225 104.528 208.212 104.528C207.2 104.528 192.33 105.316 189.513 105.686C186.696 106.056 183.479 105.3 183.283 106.852C183.087 108.404 181.274 133.234 181.274 133.234Z" stroke="#000D19" stroke-width="0.464564" stroke-linecap="round" stroke-linejoin="round"/>
<path d="M139.441 121.016C139.441 121.016 132.207 117.518 129.594 116.943C126.981 116.368 118.529 114.438 117.925 115.226C117.321 116.013 118.129 116.801 118.937 116.801C119.746 116.801 124.964 118.936 124.964 118.936C124.964 118.936 124.368 123.592 124.368 124.758C124.368 125.923 130.802 128.247 132.207 128.436C133.611 128.625 136.445 127.601 136.445 127.601L138.437 127.081L139.441 121.016Z" fill="white" stroke="#000D19" stroke-width="0.464564" stroke-linecap="round" stroke-linejoin="round"/>
<path d="M124.368 119.653C124.368 119.653 123.551 124.892 124.164 125.475C124.776 126.058 128.989 128.775 129.594 127.413C130.198 126.05 129.994 120.819 129.994 120.236C129.994 119.653 124.368 119.653 124.368 119.653Z" fill="white" stroke="#000D19" stroke-width="0.464564" stroke-linecap="round" stroke-linejoin="round"/>
<path d="M137.032 121.205C137.032 121.205 130.198 118.684 128.589 118.684C126.981 118.684 124.368 120.819 122.955 121.205C121.542 121.591 123.355 122.78 124.368 122.568C125.38 122.355 128.181 121.599 128.181 121.599C128.806 122.752 129.704 123.748 130.802 124.505C132.435 125.474 135.824 124.891 135.824 124.891" fill="white"/>
<path d="M137.032 121.205C137.032 121.205 130.198 118.684 128.589 118.684C126.981 118.684 124.368 120.819 122.955 121.205C121.542 121.591 123.355 122.78 124.368 122.568C125.38 122.355 128.181 121.599 128.181 121.599C128.806 122.752 129.704 123.748 130.802 124.505C132.435 125.474 135.824 124.891 135.824 124.891" stroke="#000D19" stroke-width="0.464564" stroke-linecap="round" stroke-linejoin="round"/>
<path d="M198.315 104.386C198.315 104.386 186.255 103.386 183.805 103.914C181.355 104.441 175.639 117.833 174.823 119.669C174.006 121.504 165.024 129.91 165.024 129.91L139.172 120.197L136.444 127.546C136.444 127.546 157.406 140.679 160.941 142.254C164.477 143.83 169.385 143.585 171.018 143.585C172.216 143.469 173.352 143.014 174.284 142.278L166.388 159.869C166.388 159.869 179.183 145.161 182.988 138.071C186.794 130.981 195.515 110.239 196.331 109.711C197.148 109.184 198.315 104.386 198.315 104.386Z" fill="url(#paint45_linear_65_1782)"/>
<mask id="mask7_65_1782" style="mask-type:luminance" maskUnits="userSpaceOnUse" x="136" y="103" width="63" height="57">
<path d="M198.315 104.386C198.315 104.386 186.255 103.386 183.805 103.914C181.355 104.441 175.639 117.833 174.823 119.669C174.006 121.504 165.024 129.91 165.024 129.91L139.172 120.197L136.444 127.546C136.444 127.546 157.406 140.679 160.941 142.254C164.477 143.83 169.385 143.585 171.018 143.585C172.216 143.469 173.352 143.014 174.284 142.278L166.388 159.869C166.388 159.869 179.183 145.161 182.988 138.071C186.794 130.981 195.515 110.239 196.331 109.711C197.148 109.184 198.315 104.386 198.315 104.386Z" fill="white"/>
</mask>
<g mask="url(#mask7_65_1782)">
<path opacity="0.26" d="M170.381 134.873C169.728 134.873 168.854 134.455 167.98 134.455C167.106 134.455 169.074 137.606 168.633 138.67C168.192 139.733 136.918 126.853 136.918 126.853L136.902 127.83C139.858 129.681 157.724 140.82 160.966 142.27C164.51 143.845 169.409 143.578 171.042 143.578C172.112 143.497 173.135 143.123 173.99 142.498C176.374 136.622 178.073 126.869 178.073 126.869C178.073 126.869 171.059 134.873 170.381 134.873Z" fill="#000D19"/>
</g>
<path d="M198.315 104.386C198.315 104.386 186.255 103.386 183.805 103.914C181.355 104.441 175.639 117.833 174.823 119.669C174.006 121.504 165.024 129.91 165.024 129.91L139.172 120.197L136.444 127.546C136.444 127.546 157.406 140.679 160.941 142.254C164.477 143.83 169.385 143.585 171.018 143.585C172.216 143.469 173.352 143.014 174.284 142.278L166.388 159.869C166.388 159.869 179.183 145.161 182.988 138.071C186.794 130.981 195.515 110.239 196.331 109.711C197.148 109.184 198.315 104.386 198.315 104.386Z" stroke="#000D19" stroke-width="0.464564" stroke-linecap="round" stroke-linejoin="round"/>
<path d="M198.316 104.386L194.959 107.45L195.139 113.579L198.667 110.349L198.316 104.386Z" fill="white" stroke="#000D19" stroke-width="0.464564" stroke-linecap="round" stroke-linejoin="round"/>
<path d="M191.963 74.5219C191.963 74.5219 188.353 79.8708 188.582 80.9973C188.811 82.1239 189.399 83.2582 189.399 84.1484C189.399 85.0386 185.316 88.1818 185.789 88.875C186.263 89.5682 188.574 90.6711 188.574 90.6711C188.574 90.6711 188.476 99.3996 190.558 100.518C192.64 101.637 196.601 99.8486 196.601 99.8486L198.683 111.043L210.523 102.984V94.9014C210.523 94.9014 217.488 87.2837 217.954 81.2416C218.419 75.1994 209.788 68.4797 201.239 67.3532C192.689 66.2267 188.011 71.8356 189.399 73.6554C190.787 75.4751 191.963 74.5219 191.963 74.5219Z" fill="white"/>
<mask id="mask8_65_1782" style="mask-type:luminance" maskUnits="userSpaceOnUse" x="185" y="67" width="33" height="45">
<path d="M191.963 74.5219C191.963 74.5219 188.353 79.8708 188.582 80.9973C188.811 82.1239 189.399 83.2582 189.399 84.1484C189.399 85.0386 185.316 88.1818 185.789 88.875C186.263 89.5682 188.574 90.6711 188.574 90.6711C188.574 90.6711 188.476 99.3996 190.558 100.518C192.64 101.637 196.601 99.8486 196.601 99.8486L198.683 111.043L210.523 102.984V94.9014C210.523 94.9014 217.488 87.2837 217.954 81.2416C218.419 75.1994 209.788 68.4797 201.239 67.3532C192.689 66.2267 188.011 71.8356 189.399 73.6554C190.787 75.4751 191.963 74.5219 191.963 74.5219Z" fill="white"/>
</mask>
<g mask="url(#mask8_65_1782)">
<path d="M206.114 105.969L210.531 102.96V94.9012C210.531 94.9012 217.496 87.2835 217.962 81.2413C218.264 77.3025 214.696 73.0486 209.796 70.2756L197.482 75.1992C197.482 75.1992 191.701 80.0991 192.461 80.7529C193.22 81.4068 195.441 84.164 194.91 85.4165C194.91 85.4165 192.844 86.2043 193.057 87.575C193.269 88.9457 198.079 97.8159 198.079 97.8159L196.641 99.8484L206.114 105.969Z" fill="url(#paint46_linear_65_1782)"/>
<path opacity="0.88" d="M206.114 105.969L210.531 102.96V94.9012C210.531 94.9012 217.496 87.2835 217.962 81.2413C218.264 77.3025 214.696 73.0486 209.796 70.2756L197.482 75.1992C197.482 75.1992 191.701 80.0991 192.461 80.7529C193.22 81.4068 195.441 84.164 194.91 85.4165C194.91 85.4165 192.844 86.2043 193.057 87.575C193.269 88.9457 198.079 97.8159 198.079 97.8159L196.641 99.8484L206.114 105.969Z" fill="white"/>
</g>
<path d="M191.963 74.5219C191.963 74.5219 188.353 79.8708 188.582 80.9973C188.811 82.1239 189.399 83.2582 189.399 84.1484C189.399 85.0386 185.316 88.1818 185.789 88.875C186.263 89.5682 188.574 90.6711 188.574 90.6711C188.574 90.6711 188.476 99.3996 190.558 100.518C192.64 101.637 196.601 99.8486 196.601 99.8486L198.683 111.043L210.523 102.984V94.9014C210.523 94.9014 217.488 87.2837 217.954 81.2416C218.419 75.1994 209.788 68.4797 201.239 67.3532C192.689 66.2267 188.011 71.8356 189.399 73.6554C190.787 75.4751 191.963 74.5219 191.963 74.5219Z" stroke="#000D19" stroke-width="0.464564" stroke-linecap="round" stroke-linejoin="round"/>
<path d="M210.392 104.717C210.392 104.717 207.779 113.642 204.562 124.892C201.345 136.141 201.949 171.063 201.949 173.001C201.949 174.938 206.571 181.926 211.805 183.864C215.223 185.091 218.791 185.885 222.42 186.227C222.42 186.227 218.803 163.138 218.803 156.544C218.803 149.951 222.094 139.647 222.094 139.647C222.094 139.647 226.919 151.282 228.928 152.834C230.937 154.386 238.98 156.135 238.784 148.958C238.588 141.781 231.745 116.171 229.933 113.65C228.12 111.129 219.472 108.609 219.472 108.609L210.392 104.717Z" fill="url(#paint47_linear_65_1782)"/>
<mask id="mask9_65_1782" style="mask-type:luminance" maskUnits="userSpaceOnUse" x="201" y="104" width="38" height="83">
<path d="M210.392 104.717C210.392 104.717 207.779 113.642 204.562 124.892C201.345 136.141 201.949 171.063 201.949 173.001C201.949 174.938 206.571 181.926 211.805 183.864C215.223 185.091 218.791 185.885 222.42 186.227C222.42 186.227 218.803 163.138 218.803 156.544C218.803 149.951 222.094 139.647 222.094 139.647C222.094 139.647 226.919 151.282 228.928 152.834C230.937 154.386 238.98 156.135 238.784 148.958C238.588 141.781 231.745 116.171 229.933 113.65C228.12 111.129 219.472 108.609 219.472 108.609L210.392 104.717Z" fill="white"/>
</mask>
<g mask="url(#mask9_65_1782)">
<g opacity="0.26">
<path d="M218.877 156.512C214.304 157.647 210.646 158.474 210.646 158.474C210.646 158.474 216.247 169.29 218.493 169.29H220.077C219.416 164.067 218.877 159.057 218.877 156.512Z" fill="#000D19"/>
<path d="M223.204 124.482C225.654 127.074 230.823 125.774 230.823 126.641C230.823 127.507 226.789 129.453 228.373 132.486C229.957 135.519 239.144 148.493 236.449 150.872C235.673 151.566 233.183 152.487 230.063 153.448C232.987 154.693 238.972 155.15 238.801 148.95C238.597 141.774 231.762 116.163 229.949 113.643C229.933 113.65 220.73 121.883 223.204 124.482Z" fill="#000D19"/>
<path d="M216.672 127.507C215.998 128.075 215.508 128.819 215.264 129.65C215.019 130.48 215.028 131.361 215.292 132.187C216.215 135.086 219.677 137.985 218.754 139.544C217.831 141.104 210.899 139.986 211.136 142.215C211.372 144.444 218.558 151.802 218.558 151.802L221.555 138.654L216.672 127.507Z" fill="#000D19"/>
</g>
</g>
<path d="M210.392 104.717C210.392 104.717 207.779 113.642 204.562 124.892C201.345 136.141 201.949 171.063 201.949 173.001C201.949 174.938 206.571 181.926 211.805 183.864C215.223 185.091 218.791 185.885 222.42 186.227C222.42 186.227 218.803 163.138 218.803 156.544C218.803 149.951 222.094 139.647 222.094 139.647C222.094 139.647 226.919 151.282 228.928 152.834C230.937 154.386 238.98 156.135 238.784 148.958C238.588 141.781 231.745 116.171 229.933 113.65C228.12 111.129 219.472 108.609 219.472 108.609L210.392 104.717Z" stroke="#000D19" stroke-width="0.464564" stroke-linecap="round" stroke-linejoin="round"/>
<path d="M210.498 100.81L200.079 107.962L200.79 114.265L212.262 104.221L210.498 100.81Z" fill="white" stroke="#000D19" stroke-width="0.464564" stroke-linecap="round" stroke-linejoin="round"/>
<path d="M213.846 153.22C213.846 153.22 206.203 149.919 205.599 149.919C204.995 149.919 198.96 153.039 197.76 153.039C196.56 153.039 195.947 153.827 196.756 154.394C197.426 154.775 198.19 154.976 198.969 154.977C198.969 154.977 196.151 156.552 196.356 157.34C196.56 158.128 198.16 158.695 198.16 158.695C198.986 159.917 200.18 160.865 201.582 161.413C203.59 161.996 210.629 159.664 210.629 159.664L216.059 159.278L213.846 153.22Z" fill="white"/>
<mask id="mask10_65_1782" style="mask-type:luminance" maskUnits="userSpaceOnUse" x="196" y="149" width="21" height="13">
<path d="M213.846 153.22C213.846 153.22 206.203 149.919 205.599 149.919C204.995 149.919 198.96 153.039 197.76 153.039C196.56 153.039 195.947 153.827 196.756 154.394C197.426 154.775 198.19 154.976 198.969 154.977C198.969 154.977 196.151 156.552 196.356 157.34C196.56 158.128 198.16 158.695 198.16 158.695C198.986 159.917 200.18 160.865 201.582 161.413C203.59 161.996 210.629 159.664 210.629 159.664L216.059 159.278L213.846 153.22Z" fill="white"/>
</mask>
<g mask="url(#mask10_65_1782)">
<path d="M205.583 153.283C203.133 153.803 198.16 158.647 198.16 158.647C198.986 159.869 200.18 160.818 201.582 161.365C203.59 161.948 210.629 159.616 210.629 159.616L216.059 159.23L213.846 153.22C213.846 153.22 208.033 152.755 205.583 153.283Z" fill="url(#paint48_linear_65_1782)"/>
<path opacity="0.5" d="M205.583 153.283C203.133 153.803 198.16 158.647 198.16 158.647C198.986 159.869 200.18 160.818 201.582 161.365C203.59 161.948 210.629 159.616 210.629 159.616L216.059 159.23L213.846 153.22C213.846 153.22 208.033 152.755 205.583 153.283Z" fill="white"/>
</g>
<path d="M213.846 153.22C213.846 153.22 206.203 149.919 205.599 149.919C204.995 149.919 198.96 153.039 197.76 153.039C196.56 153.039 195.947 153.827 196.756 154.394C197.426 154.775 198.19 154.976 198.969 154.977C198.969 154.977 196.151 156.552 196.356 157.34C196.56 158.128 198.16 158.695 198.16 158.695C198.986 159.917 200.18 160.865 201.582 161.413C203.59 161.996 210.629 159.664 210.629 159.664L216.059 159.278L213.846 153.22Z" stroke="#000D19" stroke-width="0.464564" stroke-linecap="round" stroke-linejoin="round"/>
<path d="M232.145 144.877L213.242 152.25L214.647 160.01C214.647 160.01 239.96 156.52 241.193 154.779C242.426 153.038 237.772 143.136 237.772 143.136" fill="url(#paint49_linear_65_1782)"/>
<mask id="mask11_65_1782" style="mask-type:luminance" maskUnits="userSpaceOnUse" x="213" y="143" width="29" height="18">
<path d="M232.145 144.877L213.242 152.25L214.647 160.01C214.647 160.01 239.96 156.52 241.193 154.779C242.426 153.038 237.772 143.136 237.772 143.136" fill="white"/>
</mask>
<g mask="url(#mask11_65_1782)">
<path opacity="0.26" d="M214.214 157.615L214.647 159.979C214.647 159.979 239.96 156.489 241.193 154.748C242.426 153.007 237.772 143.105 237.772 143.105L235.069 143.948C236.629 147.099 237.519 149.872 236.433 150.848C234.408 152.668 220.812 156.056 214.214 157.615Z" fill="#000D19"/>
</g>
<path d="M232.145 144.877L213.242 152.25L214.647 160.01C214.647 160.01 239.96 156.52 241.193 154.779C242.426 153.038 237.772 143.136 237.772 143.136" stroke="#000D19" stroke-width="0.464564" stroke-linecap="round" stroke-linejoin="round"/>
<path d="M174.284 142.254C174.284 142.254 178.056 128.192 179.257 120.433Z" fill="white"/>
<path d="M174.284 142.254C174.284 142.254 178.056 128.192 179.257 120.433" stroke="#000D19" stroke-width="0.464564" stroke-linecap="round" stroke-linejoin="round"/>
<path d="M190.926 182.627L196.356 186.999L197.254 204.456" stroke="white" stroke-width="0.464564" stroke-linecap="round" stroke-linejoin="round"/>
<path d="M222.094 139.647L216.753 130.193C216.753 130.193 215.21 128.208 218.297 123.245" stroke="#000D19" stroke-width="0.464564" stroke-linecap="round" stroke-linejoin="round"/>
<path d="M201.247 67.3529C192.657 66.2343 188.019 71.8353 189.407 73.6551C189.751 74.178 190.278 74.5639 190.893 74.7422L191.963 74.5531C191.963 74.5531 199.859 74.7737 199.393 77.2394C198.928 79.7051 194.282 79.9257 196.127 81.966C196.616 82.4808 197.164 82.9407 197.76 83.3367H197.491C197.99 83.7492 198.373 84.2779 198.601 84.8729C198.92 85.7867 197.172 93.4516 196.854 94.0661C196.535 94.6805 194.788 93.9085 192.567 92.3803C191.408 91.5121 190.045 90.9331 188.598 90.6944L188.443 92.073C188.443 92.073 190.664 92.6796 190.983 93.9085C191.301 95.1375 189.235 95.2871 189.235 96.3585C189.235 97.4298 189.08 99.3678 190.583 100.542C192.085 101.715 196.625 99.8719 196.625 99.8719C196.625 99.8719 200.03 97.5874 200.512 95.1453C200.896 93.1365 201.182 89.631 201.533 87.8821C202.037 87.2915 202.491 86.6618 202.888 85.9994C202.888 85.9994 206.604 85.1013 205.444 88.6856C204.285 92.27 201.957 92.27 201.957 92.27C204.596 93.7402 207.52 94.6707 210.548 95.0035V94.9563C210.548 94.9563 217.513 87.3386 217.978 81.2964C218.444 75.2542 209.837 68.4795 201.247 67.3529Z" fill="#000D19" stroke="#000D19" stroke-width="0.464564" stroke-linecap="round" stroke-linejoin="round"/>
</g>
<path d="M223.172 180.713H209.421V200.312H223.172V180.713Z" fill="white" stroke="#000D19" stroke-width="0.464564" stroke-linecap="round" stroke-linejoin="round"/>
<path d="M222.559 197.642H221.122C220.965 197.655 220.808 197.636 220.659 197.587C220.51 197.538 220.374 197.46 220.258 197.357C220.142 197.255 220.05 197.13 219.987 196.991C219.923 196.852 219.891 196.702 219.891 196.551C219.891 196.399 219.923 196.249 219.987 196.11C220.05 195.972 220.142 195.847 220.258 195.744C220.374 195.642 220.51 195.563 220.659 195.514C220.808 195.465 220.965 195.447 221.122 195.46H222.559C223.129 195.46 223.675 195.241 224.078 194.853C224.48 194.464 224.707 193.937 224.707 193.388V188.661C224.707 188.112 224.48 187.585 224.078 187.196C223.675 186.808 223.129 186.589 222.559 186.589H220.714C220.413 186.589 220.124 186.474 219.911 186.269C219.698 186.063 219.579 185.785 219.579 185.494C219.579 185.204 219.698 184.925 219.911 184.72C220.124 184.515 220.413 184.399 220.714 184.399H222.559C223.73 184.401 224.853 184.851 225.681 185.65C226.509 186.449 226.975 187.532 226.977 188.661V193.388C226.975 194.517 226.508 195.599 225.68 196.396C224.852 197.194 223.729 197.642 222.559 197.642Z" fill="white" stroke="#000D19" stroke-width="0.464564" stroke-linecap="round" stroke-linejoin="round"/>
<path d="M150.285 200.052H112.92C112.778 200.053 112.639 200.014 112.52 199.94C112.401 199.866 112.307 199.76 112.25 199.635L101.904 176.876C101.852 176.766 101.83 176.645 101.84 176.524C101.851 176.404 101.894 176.288 101.964 176.188C102.035 176.088 102.131 176.008 102.244 175.954C102.356 175.901 102.481 175.877 102.606 175.883H139.94C140.08 175.884 140.217 175.924 140.334 175.998C140.452 176.072 140.544 176.177 140.601 176.301L150.947 199.06C150.997 199.166 151.019 199.284 151.011 199.401C151.002 199.518 150.963 199.631 150.897 199.73C150.831 199.829 150.741 199.91 150.634 199.967C150.527 200.023 150.407 200.052 150.285 200.052Z" fill="white" stroke="#000D19" stroke-width="0.464564" stroke-linecap="round" stroke-linejoin="round"/>
<path d="M146.782 198.28H114.936C114.816 198.28 114.698 198.245 114.598 198.181C114.498 198.116 114.419 198.025 114.373 197.918L105.505 178.499C105.465 178.409 105.448 178.31 105.457 178.212C105.465 178.113 105.499 178.019 105.555 177.936C105.611 177.853 105.687 177.785 105.776 177.738C105.866 177.691 105.966 177.665 106.068 177.664H137.955C138.076 177.666 138.194 177.701 138.296 177.765C138.397 177.829 138.477 177.92 138.527 178.026L147.354 197.445C147.394 197.536 147.411 197.636 147.402 197.734C147.392 197.833 147.358 197.928 147.301 198.011C147.245 198.094 147.168 198.162 147.077 198.209C146.986 198.256 146.885 198.28 146.782 198.28Z" fill="#000D19" stroke="#000D19" stroke-width="0.464564" stroke-linecap="round" stroke-linejoin="round"/>
<path d="M112.397 200.312H168.535V198.54H112.397V200.312Z" fill="white" stroke="#000D19" stroke-width="0.464564" stroke-linecap="round" stroke-linejoin="round"/>
<path d="M112.397 200.312H139.613V198.54H112.397V200.312Z" fill="white" stroke="#000D19" stroke-width="0.464564" stroke-linecap="round" stroke-linejoin="round"/>
<path d="M61.3538 156.229C62.5223 156.528 63.7304 156.658 64.9385 156.615C64.9385 156.615 64.3914 155.04 64.3424 154.906C63.7872 153.779 62.0152 151.92 60.5781 152.109C60.3411 152.147 60.115 152.233 59.9145 152.36C59.714 152.488 59.5435 152.655 59.4142 152.85C59.2849 153.046 59.1995 153.265 59.1637 153.494C59.1279 153.724 59.1424 153.957 59.2063 154.181C59.3873 154.653 59.6733 155.081 60.0444 155.435C60.4154 155.789 60.8624 156.06 61.3538 156.229Z" fill="#000D19"/>
<path d="M62.2274 163.342C63.4268 163.332 64.6181 163.151 65.7631 162.807C66.1318 164.062 66.5902 165.291 67.135 166.486C67.4452 167.179 67.7882 167.872 68.1312 168.565C67.927 168.274 67.7392 168.014 67.7065 167.982C66.89 167.037 64.6526 165.69 63.3134 166.233C63.0927 166.33 62.8957 166.47 62.7353 166.646C62.575 166.821 62.455 167.027 62.3832 167.25C62.3115 167.474 62.2896 167.709 62.3191 167.941C62.3485 168.173 62.4286 168.397 62.554 168.597C62.8582 169.005 63.2511 169.344 63.7053 169.59C64.1594 169.836 64.6639 169.984 65.1834 170.023C66.3462 170.02 67.5022 169.851 68.6129 169.518C68.7517 169.778 68.8824 170.046 69.0212 170.306C69.6826 171.567 70.344 172.827 70.9483 174.08C71.1688 174.521 71.3647 174.962 71.5607 175.411L71.1933 174.899C70.3767 173.954 68.1312 172.606 66.792 173.158C66.5713 173.254 66.3742 173.395 66.2139 173.57C66.0536 173.746 65.9336 173.952 65.8618 174.175C65.79 174.398 65.7682 174.634 65.7976 174.866C65.827 175.098 65.9071 175.321 66.0326 175.521C66.3383 175.928 66.7314 176.267 67.1851 176.515C67.6389 176.762 68.1426 176.912 68.6619 176.955C69.7946 176.96 70.9212 176.795 72.0017 176.467C72.1895 176.923 72.3773 177.388 72.5406 177.837C72.6467 178.152 72.7611 178.444 72.8509 178.759L73.1203 179.688C73.2673 180.287 73.4225 180.902 73.5531 181.492C73.6511 181.894 73.7246 182.28 73.8144 182.682C73.6021 182.241 73.1775 181.382 73.1285 181.311C72.4426 180.256 70.4665 178.601 69.0457 178.948C68.8141 179.012 68.599 179.122 68.4144 179.271C68.2298 179.42 68.0799 179.605 67.9743 179.814C67.8688 180.023 67.8101 180.251 67.8019 180.483C67.7937 180.715 67.8364 180.946 67.927 181.162C68.1633 181.615 68.5002 182.012 68.9137 182.325C69.3272 182.638 69.8072 182.86 70.3195 182.973C71.497 183.144 72.6941 183.144 73.8716 182.973C74.0022 183.619 74.1329 184.258 74.239 184.856C74.6147 186.928 74.8515 188.677 74.9984 189.898C74.9984 190.111 75.0474 190.308 75.0638 190.489H70.7033L71.2341 200.446H80.796L81.3268 190.489H77.293L77.3828 190.308C77.9381 189.189 78.7138 187.574 79.5467 185.581C79.8162 184.959 80.0856 184.289 80.3633 183.596C81.5236 183.858 82.7186 183.949 83.9071 183.864C84.4209 183.776 84.9082 183.581 85.3345 183.291C85.7608 183.001 86.1154 182.623 86.3732 182.186C86.4808 181.978 86.5417 181.75 86.5516 181.518C86.5616 181.286 86.5205 181.054 86.431 180.838C86.3416 180.623 86.2057 180.427 86.0325 180.266C85.8593 180.104 85.6525 179.98 85.4259 179.901C84.0541 179.46 81.9556 180.965 81.188 181.965C81.139 182.028 80.7225 182.753 80.4694 183.163C80.5756 182.887 80.6899 182.611 80.796 182.32C81.0165 181.745 81.2206 181.162 81.433 180.531L81.7269 179.61C81.8249 179.303 81.8902 178.964 81.98 178.641C82.1679 177.853 82.323 177.065 82.4537 176.325C83.5286 176.738 84.6635 176.988 85.8179 177.065C86.3352 177.07 86.8476 176.967 87.3198 176.763C87.792 176.559 88.2128 176.259 88.5534 175.884C88.6922 175.693 88.7877 175.476 88.8338 175.248C88.8799 175.019 88.8754 174.784 88.8207 174.557C88.7659 174.33 88.6622 174.117 88.5162 173.932C88.3703 173.746 88.1854 173.593 87.9736 173.481C86.6834 172.843 84.3726 174.024 83.458 174.899C83.4009 174.954 82.8129 175.687 82.5026 176.057C82.5761 175.584 82.6578 175.112 82.7231 174.631C82.8946 173.245 83.0334 171.834 83.1722 170.424C83.2212 169.999 83.2702 169.566 83.311 169.14C84.4229 169.57 85.5956 169.836 86.7896 169.928C87.3154 169.927 87.8345 169.814 88.3101 169.597C88.7857 169.381 89.206 169.066 89.5414 168.676C89.6733 168.486 89.7632 168.273 89.8054 168.048C89.8477 167.824 89.8414 167.594 89.787 167.372C89.7325 167.15 89.6311 166.941 89.4891 166.759C89.347 166.576 89.1675 166.424 88.9617 166.312C87.6797 165.674 85.3688 166.856 84.4461 167.738C84.3807 167.801 83.5397 168.817 83.3355 169.085C83.4417 168.14 83.556 167.202 83.703 166.281C83.8907 165.033 84.1635 163.799 84.5196 162.586C85.6369 163.016 86.8151 163.282 88.0144 163.374C88.5356 163.373 89.0503 163.263 89.5227 163.051C89.9952 162.838 90.414 162.529 90.7499 162.145C90.8806 161.955 90.9695 161.742 91.0111 161.518C91.0527 161.293 91.0461 161.063 90.9918 160.842C90.9374 160.62 90.8364 160.412 90.6951 160.229C90.5538 160.047 90.3751 159.895 90.1702 159.782C88.88 159.144 86.5691 160.325 85.6546 161.208C85.5811 161.271 84.6747 162.366 84.5277 162.57C84.5506 162.5 84.5697 162.429 84.5849 162.358C84.9837 161.151 85.492 159.981 86.1037 158.86C86.4303 158.238 86.7814 157.663 87.1407 157.111C88.1651 157.64 89.2662 158.017 90.407 158.23C90.9254 158.284 91.45 158.229 91.9438 158.067C92.4375 157.905 92.8885 157.641 93.2649 157.292C93.4237 157.118 93.5429 156.914 93.6146 156.693C93.6863 156.472 93.7091 156.238 93.6814 156.008C93.6536 155.778 93.5761 155.556 93.4537 155.356C93.3313 155.157 93.1669 154.984 92.971 154.85C91.7625 154.062 89.3291 155.008 88.3166 155.78C88.2594 155.827 87.7531 156.315 87.3857 156.678C87.549 156.434 87.7123 156.174 87.8756 155.937C88.4799 155.055 89.0923 154.283 89.6394 153.574L90.5213 152.534C91.6935 152.546 92.8608 152.387 93.9835 152.062C94.4864 151.877 94.9398 151.586 95.3101 151.21C95.6805 150.833 95.9582 150.381 96.1229 149.887C96.18 149.661 96.1874 149.427 96.1445 149.198C96.1016 148.969 96.0095 148.751 95.8741 148.559C95.7386 148.367 95.5629 148.204 95.3582 148.081C95.1535 147.959 94.9244 147.879 94.6858 147.847C93.2404 147.697 91.5338 149.604 91.0031 150.746C91.0031 150.848 90.4315 152.463 90.456 152.463C90.1783 152.763 89.8925 153.086 89.5822 153.448C89.0188 154.118 88.3901 154.874 87.7613 155.748C87.0717 156.679 86.4418 157.65 85.875 158.655C85.2221 159.774 84.6755 160.947 84.2419 162.161C84.2419 162.161 84.2419 162.161 84.2419 162.208C84.2419 161.798 84.2419 160.632 84.2419 160.562C84.0786 159.325 83.0008 157.024 81.5799 156.772C81.34 156.735 81.0946 156.748 80.8601 156.809C80.6256 156.871 80.4073 156.98 80.2197 157.129C80.0321 157.278 79.8794 157.463 79.7718 157.674C79.6643 157.884 79.6042 158.114 79.5957 158.348C79.6225 158.847 79.7603 159.335 79.9998 159.778C80.2394 160.221 80.575 160.609 80.9838 160.916C81.9914 161.55 83.0926 162.033 84.2501 162.35C83.8475 163.594 83.5284 164.863 83.2947 166.147C83.1559 166.935 83.0416 167.651 82.9354 168.416C82.9354 168.061 82.9354 167.746 82.9354 167.699C82.7639 166.462 81.6943 164.162 80.2653 163.91C80.0259 163.874 79.7814 163.887 79.5479 163.949C79.3144 164.011 79.0972 164.12 78.9105 164.269C78.7238 164.418 78.5719 164.603 78.4648 164.813C78.3577 165.022 78.2979 165.252 78.2892 165.485C78.309 165.986 78.442 166.477 78.679 166.923C78.9159 167.37 79.2511 167.761 79.661 168.069C80.632 168.693 81.6983 169.166 82.8211 169.471C82.7803 169.771 82.7394 170.062 82.7068 170.353C82.5271 171.756 82.3638 173.158 82.1515 174.529C82.078 175.009 81.9882 175.482 81.9066 175.954C81.9066 175.639 81.9066 175.372 81.9066 175.332C81.7432 174.095 80.6654 171.795 79.2446 171.543C79.0048 171.507 78.7599 171.521 78.526 171.583C78.292 171.645 78.0743 171.754 77.887 171.902C77.6996 172.051 77.547 172.236 77.439 172.446C77.331 172.655 77.2701 172.885 77.2603 173.119C77.2816 173.62 77.4162 174.111 77.6545 174.558C77.8929 175.004 78.2293 175.394 78.6403 175.702C79.5795 176.314 80.6129 176.78 81.7024 177.081C81.5963 177.562 81.4901 178.042 81.3676 178.507C81.2696 178.822 81.2043 179.129 81.0982 179.444C80.992 179.759 80.8859 180.059 80.7879 180.358C80.5674 180.941 80.3469 181.532 80.1183 182.091C79.9631 182.485 79.808 182.879 79.6528 183.226C79.7345 182.745 79.8652 181.8 79.8733 181.721C79.8592 180.614 79.5499 179.528 78.9751 178.57C78.9913 178.45 78.9913 178.328 78.9751 178.208C78.9448 177.977 78.8646 177.755 78.7398 177.556C78.615 177.357 78.4483 177.186 78.2506 177.053C78.0528 176.92 77.8283 176.828 77.5916 176.784C77.3549 176.74 77.1113 176.745 76.8765 176.797C75.4802 177.16 74.5902 179.531 74.5248 180.783C74.5248 180.854 74.5248 181.658 74.6065 182.162C74.5412 181.871 74.4758 181.579 74.3942 181.28C74.2472 180.681 74.0839 180.09 73.9124 179.452L73.6185 178.53C73.5286 178.215 73.398 177.9 73.2837 177.585C73.006 176.853 72.6876 176.128 72.3528 175.395C73.4977 175.173 74.5997 174.779 75.619 174.229C76.0506 173.949 76.4142 173.583 76.6848 173.154C76.9554 172.726 77.1267 172.246 77.1868 171.748C77.1934 171.516 77.1491 171.285 77.0569 171.07C76.9647 170.855 76.8267 170.662 76.6519 170.502C76.477 170.342 76.2692 170.22 76.042 170.142C75.8148 170.065 75.5733 170.035 75.3332 170.054C73.8961 170.204 72.6467 172.417 72.3854 173.638C72.3854 173.717 72.2793 174.615 72.2466 175.112C72.0343 174.67 71.8302 174.237 71.6097 173.804C70.9646 172.551 70.2705 171.307 69.5846 170.062C69.3805 169.676 69.1764 169.274 68.964 168.912C70.1378 168.675 71.2688 168.271 72.3201 167.714C72.7528 167.436 73.1172 167.069 73.388 166.641C73.6588 166.212 73.8294 165.732 73.8879 165.233C73.8956 165.001 73.8524 164.77 73.7612 164.556C73.67 164.341 73.5327 164.147 73.3585 163.987C73.1842 163.827 72.9769 163.705 72.7501 163.628C72.5233 163.55 72.2822 163.52 72.0425 163.539C70.5972 163.689 69.3478 165.903 69.0865 167.124C69.0865 167.218 68.9477 168.51 68.9314 168.841C68.4741 167.998 68.0332 167.155 67.6249 166.304C67.075 165.159 66.6031 163.98 66.2122 162.775C67.3925 162.542 68.5294 162.138 69.5846 161.578C70.0185 161.299 70.3842 160.933 70.6564 160.505C70.9285 160.076 71.1006 159.596 71.1606 159.096C71.1671 158.864 71.1229 158.633 71.0307 158.418C70.9385 158.204 70.8005 158.01 70.6256 157.85C70.4508 157.691 70.243 157.568 70.0158 157.491C69.7886 157.414 69.5471 157.384 69.307 157.403C67.8617 157.552 66.6124 159.766 66.3511 160.987C66.3511 161.089 66.2041 162.476 66.1959 162.728L66.1224 162.523C65.7656 161.304 65.5197 160.057 65.3875 158.797C65.3059 158.104 65.2732 157.434 65.2487 156.78C66.4192 156.69 67.568 156.424 68.6538 155.992C69.116 155.759 69.5203 155.432 69.8389 155.034C70.1575 154.635 70.3827 154.175 70.4992 153.684C70.5325 153.456 70.5156 153.223 70.4496 153.001C70.3835 152.779 70.2698 152.573 70.1158 152.396C69.9617 152.219 69.7709 152.075 69.5556 151.974C69.3403 151.873 69.1053 151.817 68.8661 151.809C67.4207 151.809 65.9264 153.873 65.5263 155.063C65.5263 155.126 65.3548 155.803 65.2569 156.3C65.2569 156.008 65.2569 155.709 65.2569 155.425C65.2569 154.37 65.3303 153.401 65.4038 152.542C65.4447 152.054 65.4937 151.613 65.5427 151.203C66.5278 150.591 67.4092 149.837 68.1557 148.966C68.4542 148.555 68.657 148.086 68.75 147.593C68.843 147.099 68.8241 146.592 68.6946 146.106C68.6204 145.866 68.4906 145.646 68.3148 145.461C68.1391 145.277 67.9221 145.134 67.6804 145.043C67.4387 144.952 67.1786 144.915 66.92 144.935C66.6613 144.956 66.4109 145.033 66.1877 145.161C64.8976 145.799 64.5546 148.312 64.7751 149.533C64.7751 149.643 65.2732 151.274 65.2977 151.258C65.2405 151.652 65.1834 152.046 65.1344 152.542C65.0446 153.401 64.9547 154.37 64.9302 155.425C64.8857 156.571 64.9129 157.718 65.0119 158.86C65.1155 160.137 65.3369 161.402 65.6733 162.641C65.6698 162.657 65.6698 162.673 65.6733 162.689C65.4447 162.342 64.7751 161.397 64.7098 161.326C63.8932 160.38 61.6558 159.041 60.3167 159.585C60.0959 159.681 59.8989 159.822 59.7386 159.997C59.5782 160.172 59.4582 160.378 59.3865 160.602C59.3147 160.825 59.2928 161.06 59.3223 161.293C59.3517 161.525 59.4318 161.748 59.5573 161.948C59.8702 162.354 60.2713 162.689 60.7326 162.93C61.1938 163.171 61.7039 163.312 62.2274 163.342ZM76.6071 181.674C77.4813 182.397 78.4538 183.001 79.4977 183.47C79.2364 184.084 78.9751 184.675 78.722 185.234C77.8564 187.172 77.048 188.748 76.4764 189.843L76.158 190.442H76.06C76.06 190.226 76.0273 189.99 75.962 189.733C75.7905 188.496 75.5129 186.747 75.0801 184.651C74.9494 183.998 74.7943 183.289 74.6228 182.572C75.3016 182.31 75.9642 182.01 76.6071 181.674Z" fill="#000D19"/>
<path d="M87.092 156.773C87.092 156.773 87.5492 155.142 87.5656 155.032C87.7452 153.795 87.3369 151.306 86.0304 150.691C85.8104 150.597 85.5723 150.548 85.3315 150.548C85.0907 150.548 84.8527 150.597 84.6326 150.691C84.4126 150.786 84.2155 150.923 84.054 151.096C83.8925 151.268 83.7702 151.471 83.6951 151.692C83.5783 152.182 83.5733 152.691 83.6805 153.183C83.7876 153.676 84.0043 154.14 84.3157 154.543C85.123 155.414 86.0584 156.165 87.092 156.773Z" fill="#000D19"/>
<path d="M24.8433 200.368L369.428 200.368" stroke="#000D19" stroke-width="0.929128" stroke-linecap="round" stroke-linejoin="round"/>
<defs>
<filter id="filter0_d_65_1782" x="9.4443" y="4.10622" width="321.762" height="194.154" filterUnits="userSpaceOnUse" color-interpolation-filters="sRGB">
<feFlood flood-opacity="0" result="BackgroundImageFix"/>
<feColorMatrix in="SourceAlpha" type="matrix" values="0 0 0 0 0 0 0 0 0 0 0 0 0 0 0 0 0 0 127 0" result="hardAlpha"/>
<feOffset dy="15.3306"/>
<feGaussianBlur stdDeviation="13.5188"/>
<feComposite in2="hardAlpha" operator="out"/>
<feColorMatrix type="matrix" values="0 0 0 0 0.00842256 0 0 0 0 0.10829 0 0 0 0 0.0642694 0 0 0 0.44 0"/>
<feBlend mode="normal" in2="BackgroundImageFix" result="effect1_dropShadow_65_1782"/>
<feBlend mode="normal" in="SourceGraphic" in2="effect1_dropShadow_65_1782" result="shape"/>
</filter>
<linearGradient id="paint0_linear_65_1782" x1="134.763" y1="97.8712" x2="317.621" y2="97.8712" gradientUnits="userSpaceOnUse">
<stop stop-color="#0274B6"/>
<stop offset="1" stop-color="#5FA3DA"/>
</linearGradient>
<linearGradient id="paint1_linear_65_1782" x1="267.32" y1="114.174" x2="276.053" y2="114.174" gradientUnits="userSpaceOnUse">
<stop stop-color="#0274B6"/>
<stop offset="1" stop-color="#5FA3DA"/>
</linearGradient>
<linearGradient id="paint2_linear_65_1782" x1="15.095" y1="74.2145" x2="197.976" y2="74.2145" gradientUnits="userSpaceOnUse">
<stop stop-color="#0274B6"/>
<stop offset="1" stop-color="#5FA3DA"/>
</linearGradient>
<linearGradient id="paint3_linear_65_1782" x1="47.7424" y1="35.2165" x2="49.6369" y2="35.2165" gradientUnits="userSpaceOnUse">
<stop stop-color="#E6E9F0"/>
<stop offset="1" stop-color="#EEF1F5"/>
</linearGradient>
<linearGradient id="paint4_linear_65_1782" x1="47.7424" y1="35.5864" x2="51.8007" y2="35.5864" gradientUnits="userSpaceOnUse">
<stop stop-color="#E6E9F0"/>
<stop offset="1" stop-color="#EEF1F5"/>
</linearGradient>
<linearGradient id="paint5_linear_65_1782" x1="59.8357" y1="35.2165" x2="61.7301" y2="35.2165" gradientUnits="userSpaceOnUse">
<stop stop-color="#E6E9F0"/>
<stop offset="1" stop-color="#EEF1F5"/>
</linearGradient>
<linearGradient id="paint6_linear_65_1782" x1="57.6719" y1="35.5864" x2="61.7302" y2="35.5864" gradientUnits="userSpaceOnUse">
<stop stop-color="#E6E9F0"/>
<stop offset="1" stop-color="#EEF1F5"/>
</linearGradient>
<linearGradient id="paint7_linear_65_1782" x1="66.8657" y1="35.2321" x2="70.4344" y2="35.2321" gradientUnits="userSpaceOnUse">
<stop stop-color="#E6E9F0"/>
<stop offset="1" stop-color="#EEF1F5"/>
</linearGradient>
<linearGradient id="paint8_linear_65_1782" x1="69.2017" y1="34.2435" x2="70.6225" y2="34.2435" gradientUnits="userSpaceOnUse">
<stop stop-color="#E6E9F0"/>
<stop offset="1" stop-color="#EEF1F5"/>
</linearGradient>
<linearGradient id="paint9_linear_65_1782" x1="76.8118" y1="35.2519" x2="80.0943" y2="35.2519" gradientUnits="userSpaceOnUse">
<stop stop-color="#E6E9F0"/>
<stop offset="1" stop-color="#EEF1F5"/>
</linearGradient>
<linearGradient id="paint10_linear_65_1782" x1="77.7675" y1="36.2443" x2="79.0495" y2="36.2443" gradientUnits="userSpaceOnUse">
<stop stop-color="#E6E9F0"/>
<stop offset="1" stop-color="#EEF1F5"/>
</linearGradient>
<linearGradient id="paint11_linear_65_1782" x1="77.7675" y1="36.2443" x2="79.0495" y2="36.2443" gradientUnits="userSpaceOnUse">
<stop stop-color="#E6E9F0"/>
<stop offset="1" stop-color="#EEF1F5"/>
</linearGradient>
<linearGradient id="paint12_linear_65_1782" x1="75.8484" y1="34.9051" x2="76.8119" y2="34.9051" gradientUnits="userSpaceOnUse">
<stop stop-color="#E6E9F0"/>
<stop offset="1" stop-color="#EEF1F5"/>
</linearGradient>
<linearGradient id="paint13_linear_65_1782" x1="80.0945" y1="34.8657" x2="81.0009" y2="34.8657" gradientUnits="userSpaceOnUse">
<stop stop-color="#E6E9F0"/>
<stop offset="1" stop-color="#EEF1F5"/>
</linearGradient>
<linearGradient id="paint14_linear_65_1782" x1="79.4902" y1="29.4066" x2="82.0461" y2="29.4066" gradientUnits="userSpaceOnUse">
<stop stop-color="#E6E9F0"/>
<stop offset="1" stop-color="#EEF1F5"/>
</linearGradient>
<linearGradient id="paint15_linear_65_1782" x1="79.4495" y1="29.4067" x2="82.087" y2="29.4067" gradientUnits="userSpaceOnUse">
<stop stop-color="#E6E9F0"/>
<stop offset="1" stop-color="#EEF1F5"/>
</linearGradient>
<linearGradient id="paint16_linear_65_1782" x1="221.518" y1="132.885" x2="224.799" y2="132.885" gradientUnits="userSpaceOnUse">
<stop stop-color="#F6D365"/>
<stop offset="1" stop-color="#FF9900"/>
</linearGradient>
<linearGradient id="paint17_linear_65_1782" x1="214.227" y1="128.155" x2="217.507" y2="128.155" gradientUnits="userSpaceOnUse">
<stop stop-color="#F6D365"/>
<stop offset="1" stop-color="#FF9900"/>
</linearGradient>
<linearGradient id="paint18_linear_65_1782" x1="206.94" y1="131.533" x2="210.22" y2="131.533" gradientUnits="userSpaceOnUse">
<stop stop-color="#F6D365"/>
<stop offset="1" stop-color="#FF9900"/>
</linearGradient>
<linearGradient id="paint19_linear_65_1782" x1="185.067" y1="129.503" x2="188.347" y2="129.503" gradientUnits="userSpaceOnUse">
<stop stop-color="#F6D365"/>
<stop offset="1" stop-color="#FF9900"/>
</linearGradient>
<linearGradient id="paint20_linear_65_1782" x1="173.207" y1="86.9859" x2="177.31" y2="86.9859" gradientUnits="userSpaceOnUse">
<stop stop-color="#F77062"/>
<stop offset="1" stop-color="#FE5196"/>
</linearGradient>
<linearGradient id="paint21_linear_65_1782" x1="177.31" y1="75.3626" x2="181.416" y2="75.3626" gradientUnits="userSpaceOnUse">
<stop stop-color="#F77062"/>
<stop offset="1" stop-color="#FE5196"/>
</linearGradient>
<linearGradient id="paint22_linear_65_1782" x1="181.416" y1="86.0687" x2="185.519" y2="86.0687" gradientUnits="userSpaceOnUse">
<stop stop-color="#F77062"/>
<stop offset="1" stop-color="#FE5196"/>
</linearGradient>
<linearGradient id="paint23_linear_65_1782" x1="185.519" y1="98.9161" x2="189.622" y2="98.9161" gradientUnits="userSpaceOnUse">
<stop stop-color="#F77062"/>
<stop offset="1" stop-color="#FE5196"/>
</linearGradient>
<linearGradient id="paint24_linear_65_1782" x1="206.038" y1="95.5512" x2="210.141" y2="95.5512" gradientUnits="userSpaceOnUse">
<stop stop-color="#F77062"/>
<stop offset="1" stop-color="#FE5196"/>
</linearGradient>
<linearGradient id="paint25_linear_65_1782" x1="210.141" y1="90.3506" x2="214.248" y2="90.3506" gradientUnits="userSpaceOnUse">
<stop stop-color="#F77062"/>
<stop offset="1" stop-color="#FE5196"/>
</linearGradient>
<linearGradient id="paint26_linear_65_1782" x1="214.248" y1="83.0091" x2="218.351" y2="83.0091" gradientUnits="userSpaceOnUse">
<stop stop-color="#F77062"/>
<stop offset="1" stop-color="#FE5196"/>
</linearGradient>
<linearGradient id="paint27_linear_65_1782" x1="218.351" y1="80.8684" x2="222.454" y2="80.8684" gradientUnits="userSpaceOnUse">
<stop stop-color="#F77062"/>
<stop offset="1" stop-color="#FE5196"/>
</linearGradient>
<linearGradient id="paint28_linear_65_1782" x1="222.454" y1="80.8684" x2="226.56" y2="80.8684" gradientUnits="userSpaceOnUse">
<stop stop-color="#F77062"/>
<stop offset="1" stop-color="#FE5196"/>
</linearGradient>
<linearGradient id="paint29_linear_65_1782" x1="226.56" y1="83.3159" x2="230.663" y2="83.3159" gradientUnits="userSpaceOnUse">
<stop stop-color="#F77062"/>
<stop offset="1" stop-color="#FE5196"/>
</linearGradient>
<linearGradient id="paint30_linear_65_1782" x1="176.586" y1="78.436" x2="178.036" y2="78.436" gradientUnits="userSpaceOnUse">
<stop stop-color="#F77062"/>
<stop offset="1" stop-color="#FE5196"/>
</linearGradient>
<linearGradient id="paint31_linear_65_1782" x1="180.689" y1="72.3029" x2="182.139" y2="72.3029" gradientUnits="userSpaceOnUse">
<stop stop-color="#F77062"/>
<stop offset="1" stop-color="#FE5196"/>
</linearGradient>
<linearGradient id="paint32_linear_65_1782" x1="184.793" y1="99.8344" x2="186.243" y2="99.8344" gradientUnits="userSpaceOnUse">
<stop stop-color="#F77062"/>
<stop offset="1" stop-color="#FE5196"/>
</linearGradient>
<linearGradient id="paint33_linear_65_1782" x1="188.896" y1="97.997" x2="190.349" y2="97.997" gradientUnits="userSpaceOnUse">
<stop stop-color="#F77062"/>
<stop offset="1" stop-color="#FE5196"/>
</linearGradient>
<linearGradient id="paint34_linear_65_1782" x1="205.315" y1="94.3274" x2="206.765" y2="94.3274" gradientUnits="userSpaceOnUse">
<stop stop-color="#F77062"/>
<stop offset="1" stop-color="#FE5196"/>
</linearGradient>
<linearGradient id="paint35_linear_65_1782" x1="209.418" y1="96.7751" x2="210.868" y2="96.7751" gradientUnits="userSpaceOnUse">
<stop stop-color="#F77062"/>
<stop offset="1" stop-color="#FE5196"/>
</linearGradient>
<linearGradient id="paint36_linear_65_1782" x1="213.521" y1="83.9211" x2="214.971" y2="83.9211" gradientUnits="userSpaceOnUse">
<stop stop-color="#F77062"/>
<stop offset="1" stop-color="#FE5196"/>
</linearGradient>
<linearGradient id="paint37_linear_65_1782" x1="217.624" y1="82.0922" x2="219.077" y2="82.0922" gradientUnits="userSpaceOnUse">
<stop stop-color="#F77062"/>
<stop offset="1" stop-color="#FE5196"/>
</linearGradient>
<linearGradient id="paint38_linear_65_1782" x1="221.724" y1="79.6445" x2="223.18" y2="79.6445" gradientUnits="userSpaceOnUse">
<stop stop-color="#F77062"/>
<stop offset="1" stop-color="#FE5196"/>
</linearGradient>
<linearGradient id="paint39_linear_65_1782" x1="225.833" y1="82.0922" x2="227.283" y2="82.0922" gradientUnits="userSpaceOnUse">
<stop stop-color="#F77062"/>
<stop offset="1" stop-color="#FE5196"/>
</linearGradient>
<linearGradient id="paint40_linear_65_1782" x1="229.937" y1="84.5383" x2="231.387" y2="84.5383" gradientUnits="userSpaceOnUse">
<stop stop-color="#F77062"/>
<stop offset="1" stop-color="#FE5196"/>
</linearGradient>
<linearGradient id="paint41_linear_65_1782" x1="265.457" y1="129.977" x2="300.714" y2="129.977" gradientUnits="userSpaceOnUse">
<stop stop-color="#0274B6"/>
<stop offset="1" stop-color="#5FA3DA"/>
</linearGradient>
<linearGradient id="paint42_linear_65_1782" x1="290.39" y1="164.138" x2="365.66" y2="164.138" gradientUnits="userSpaceOnUse">
<stop stop-color="#0274B6"/>
<stop offset="1" stop-color="#5FA3DA"/>
</linearGradient>
<linearGradient id="paint43_linear_65_1782" x1="214.926" y1="166.106" x2="339.951" y2="166.106" gradientUnits="userSpaceOnUse">
<stop stop-color="#0274B6"/>
<stop offset="1" stop-color="#5FA3DA"/>
</linearGradient>
<linearGradient id="paint44_linear_65_1782" x1="157.869" y1="153.549" x2="195.255" y2="153.549" gradientUnits="userSpaceOnUse">
<stop stop-color="#0274B6"/>
<stop offset="1" stop-color="#5FA3DA"/>
</linearGradient>
<linearGradient id="paint45_linear_65_1782" x1="122.91" y1="131.814" x2="208.51" y2="131.814" gradientUnits="userSpaceOnUse">
<stop stop-color="#0274B6"/>
<stop offset="1" stop-color="#5FA3DA"/>
</linearGradient>
<linearGradient id="paint46_linear_65_1782" x1="186.795" y1="88.1225" x2="222.196" y2="88.1225" gradientUnits="userSpaceOnUse">
<stop stop-color="#0274B6"/>
<stop offset="1" stop-color="#5FA3DA"/>
</linearGradient>
<linearGradient id="paint47_linear_65_1782" x1="193.836" y1="145.472" x2="244.865" y2="145.472" gradientUnits="userSpaceOnUse">
<stop stop-color="#0274B6"/>
<stop offset="1" stop-color="#5FA3DA"/>
</linearGradient>
<linearGradient id="paint48_linear_65_1782" x1="194.245" y1="157.245" x2="219.009" y2="157.245" gradientUnits="userSpaceOnUse">
<stop stop-color="#0274B6"/>
<stop offset="1" stop-color="#5FA3DA"/>
</linearGradient>
<linearGradient id="paint49_linear_65_1782" x1="207.082" y1="151.573" x2="246.041" y2="151.573" gradientUnits="userSpaceOnUse">
<stop stop-color="#0274B6"/>
<stop offset="1" stop-color="#5FA3DA"/>
</linearGradient>
<clipPath id="clip0_65_1782">
<rect width="60.6867" height="71.0783" fill="white" transform="translate(176.56 70.2649)"/>
</clipPath>
</defs>
</svg>
