<svg width="171" height="140" viewBox="0 0 171 140" fill="none" xmlns="http://www.w3.org/2000/svg">
<path fill-rule="evenodd" clip-rule="evenodd" d="M74.0213 0H74.9787C87.129 0 96.9787 9.84974 96.9787 22V77C96.9787 80.3137 94.2924 83 90.9787 83H74.0213V0ZM44 51.3192C44 42.4827 51.1634 35.3192 60 35.3192H66.9574V83.0001H50C46.6863 83.0001 44 80.3138 44 77.0001V51.3192ZM104.043 0C116.722 0 127 10.2784 127 22.9575V83H110.043C106.729 83 104.043 80.3137 104.043 77V0Z" fill="url(#paint0_linear_61_1501)"/>
<path d="M1.71535 114.725C1.71535 112.662 2.12047 110.833 2.9307 109.237C3.76549 107.641 4.89491 106.414 6.31896 105.554C7.74301 104.695 9.32665 104.265 11.0699 104.265C12.3957 104.265 13.6602 104.56 14.8632 105.149C16.0663 105.714 17.0239 106.475 17.7359 107.433V97.7467H22.9656V125H17.7359V121.98C17.0975 122.987 16.2014 123.797 15.0474 124.411C13.8934 125.025 12.5553 125.331 11.033 125.331C9.31437 125.331 7.74301 124.89 6.31896 124.006C4.89491 123.122 3.76549 121.882 2.9307 120.286C2.12047 118.665 1.71535 116.812 1.71535 114.725ZM17.7727 114.798C17.7727 113.546 17.5272 112.478 17.0362 111.594C16.5451 110.686 15.8822 109.998 15.0474 109.532C14.2126 109.041 13.3164 108.795 12.3589 108.795C11.4013 108.795 10.5174 109.029 9.70721 109.495C8.89698 109.962 8.23406 110.649 7.71845 111.557C7.2274 112.441 6.98188 113.497 6.98188 114.725C6.98188 115.952 7.2274 117.033 7.71845 117.966C8.23406 118.874 8.89698 119.574 9.70721 120.065C10.542 120.556 11.4259 120.802 12.3589 120.802C13.3164 120.802 14.2126 120.568 15.0474 120.102C15.8822 119.611 16.5451 118.923 17.0362 118.039C17.5272 117.131 17.7727 116.051 17.7727 114.798ZM26.6755 114.725C26.6755 112.662 27.0806 110.833 27.8909 109.237C28.7257 107.641 29.8428 106.414 31.2423 105.554C32.6663 104.695 34.25 104.265 35.9932 104.265C37.5155 104.265 38.8413 104.572 39.9707 105.186C41.1247 105.8 42.0454 106.573 42.7329 107.506V104.597H47.9258V125H42.7329V122.017C42.07 122.974 41.1493 123.772 39.9707 124.411C38.8168 125.025 37.4787 125.331 35.9564 125.331C34.2377 125.331 32.6663 124.89 31.2423 124.006C29.8428 123.122 28.7257 121.882 27.8909 120.286C27.0806 118.665 26.6755 116.812 26.6755 114.725ZM42.7329 114.798C42.7329 113.546 42.4874 112.478 41.9963 111.594C41.5053 110.686 40.8424 109.998 40.0076 109.532C39.1728 109.041 38.2766 108.795 37.3191 108.795C36.3615 108.795 35.4776 109.029 34.6674 109.495C33.8571 109.962 33.1942 110.649 32.6786 111.557C32.1876 112.441 31.942 113.497 31.942 114.725C31.942 115.952 32.1876 117.033 32.6786 117.966C33.1942 118.874 33.8571 119.574 34.6674 120.065C35.5022 120.556 36.3861 120.802 37.3191 120.802C38.2766 120.802 39.1728 120.568 40.0076 120.102C40.8424 119.611 41.5053 118.923 41.9963 118.039C42.4874 117.131 42.7329 116.051 42.7329 114.798ZM58.9646 108.832V118.702C58.9646 119.39 59.1242 119.893 59.4434 120.212C59.7871 120.507 60.3519 120.654 61.1375 120.654H63.5314V125H60.2905C55.9447 125 53.7718 122.888 53.7718 118.665V108.832H51.3411V104.597H53.7718V99.5513H58.9646V104.597H63.5314V108.832H58.9646ZM65.9141 114.725C65.9141 112.662 66.3192 110.833 67.1294 109.237C67.9642 107.641 69.0813 106.414 70.4808 105.554C71.9049 104.695 73.4885 104.265 75.2318 104.265C76.754 104.265 78.0799 104.572 79.2093 105.186C80.3633 105.8 81.284 106.573 81.9714 107.506V104.597H87.1643V125H81.9714V122.017C81.3085 122.974 80.3878 123.772 79.2093 124.411C78.0553 125.025 76.7172 125.331 75.1949 125.331C73.4763 125.331 71.9049 124.89 70.4808 124.006C69.0813 123.122 67.9642 121.882 67.1294 120.286C66.3192 118.665 65.9141 116.812 65.9141 114.725ZM81.9714 114.798C81.9714 113.546 81.7259 112.478 81.2349 111.594C80.7438 110.686 80.0809 109.998 79.2461 109.532C78.4113 109.041 77.5152 108.795 76.5576 108.795C75.6001 108.795 74.7162 109.029 73.9059 109.495C73.0957 109.962 72.4328 110.649 71.9172 111.557C71.4261 112.441 71.1806 113.497 71.1806 114.725C71.1806 115.952 71.4261 117.033 71.9172 117.966C72.4328 118.874 73.0957 119.574 73.9059 120.065C74.7407 120.556 75.6246 120.802 76.5576 120.802C77.5152 120.802 78.4113 120.568 79.2461 120.102C80.0809 119.611 80.7438 118.923 81.2349 118.039C81.7259 117.131 81.9714 116.051 81.9714 114.798ZM97.3561 97.7467V125H92.2001V97.7467H97.3561ZM101.124 114.725C101.124 112.662 101.53 110.833 102.34 109.237C103.175 107.641 104.292 106.414 105.691 105.554C107.115 104.695 108.699 104.265 110.442 104.265C111.964 104.265 113.29 104.572 114.42 105.186C115.574 105.8 116.494 106.573 117.182 107.506V104.597H122.375V125H117.182V122.017C116.519 122.974 115.598 123.772 114.42 124.411C113.266 125.025 111.928 125.331 110.405 125.331C108.687 125.331 107.115 124.89 105.691 124.006C104.292 123.122 103.175 121.882 102.34 120.286C101.53 118.665 101.124 116.812 101.124 114.725ZM117.182 114.798C117.182 113.546 116.936 112.478 116.445 111.594C115.954 110.686 115.291 109.998 114.456 109.532C113.622 109.041 112.726 108.795 111.768 108.795C110.81 108.795 109.927 109.029 109.116 109.495C108.306 109.962 107.643 110.649 107.128 111.557C106.637 112.441 106.391 113.497 106.391 114.725C106.391 115.952 106.637 117.033 107.128 117.966C107.643 118.874 108.306 119.574 109.116 120.065C109.951 120.556 110.835 120.802 111.768 120.802C112.726 120.802 113.622 120.568 114.456 120.102C115.291 119.611 115.954 118.923 116.445 118.039C116.936 117.131 117.182 116.051 117.182 114.798ZM132.567 107.58C133.229 106.598 134.138 105.8 135.292 105.186C136.47 104.572 137.808 104.265 139.306 104.265C141.049 104.265 142.621 104.695 144.02 105.554C145.444 106.414 146.561 107.641 147.372 109.237C148.206 110.809 148.624 112.638 148.624 114.725C148.624 116.812 148.206 118.665 147.372 120.286C146.561 121.882 145.444 123.122 144.02 124.006C142.621 124.89 141.049 125.331 139.306 125.331C137.784 125.331 136.446 125.037 135.292 124.448C134.162 123.834 133.254 123.048 132.567 122.091V125H127.41V97.7467H132.567V107.58ZM143.357 114.725C143.357 113.497 143.1 112.441 142.584 111.557C142.093 110.649 141.43 109.962 140.595 109.495C139.785 109.029 138.901 108.795 137.944 108.795C137.011 108.795 136.127 109.041 135.292 109.532C134.482 109.998 133.819 110.686 133.303 111.594C132.812 112.503 132.567 113.571 132.567 114.798C132.567 116.026 132.812 117.094 133.303 118.003C133.819 118.911 134.482 119.611 135.292 120.102C136.127 120.568 137.011 120.802 137.944 120.802C138.901 120.802 139.785 120.556 140.595 120.065C141.43 119.574 142.093 118.874 142.584 117.966C143.1 117.057 143.357 115.977 143.357 114.725ZM160.178 125.331C158.509 125.331 157.011 125.037 155.685 124.448C154.359 123.834 153.304 123.011 152.518 121.98C151.757 120.949 151.339 119.807 151.266 118.555H156.459C156.557 119.341 156.937 119.991 157.6 120.507C158.288 121.022 159.135 121.28 160.142 121.28C161.124 121.28 161.885 121.084 162.425 120.691C162.99 120.298 163.272 119.795 163.272 119.181C163.272 118.518 162.928 118.027 162.241 117.708C161.578 117.364 160.51 116.996 159.037 116.603C157.514 116.235 156.262 115.854 155.28 115.461C154.323 115.068 153.488 114.467 152.776 113.657C152.088 112.846 151.745 111.754 151.745 110.379C151.745 109.25 152.064 108.218 152.702 107.285C153.365 106.352 154.298 105.616 155.501 105.076C156.729 104.535 158.165 104.265 159.81 104.265C162.241 104.265 164.18 104.879 165.629 106.107C167.078 107.31 167.876 108.943 168.023 111.005H163.088C163.014 110.195 162.67 109.556 162.057 109.09C161.467 108.599 160.669 108.353 159.663 108.353C158.73 108.353 158.005 108.525 157.49 108.869C156.999 109.213 156.753 109.691 156.753 110.305C156.753 110.993 157.097 111.521 157.784 111.889C158.472 112.233 159.54 112.589 160.989 112.957C162.462 113.325 163.677 113.706 164.635 114.099C165.592 114.492 166.415 115.105 167.102 115.94C167.814 116.75 168.182 117.831 168.207 119.181C168.207 120.36 167.876 121.415 167.213 122.348C166.574 123.281 165.641 124.018 164.414 124.558C163.211 125.074 161.799 125.331 160.178 125.331Z" fill="#0274B6"/>
<defs>
<linearGradient id="paint0_linear_61_1501" x1="83.2599" y1="98.9162" x2="83.2599" y2="-15.9162" gradientUnits="userSpaceOnUse">
<stop offset="0.0590417" stop-color="#127CBD"/>
<stop offset="1" stop-color="#BDD7EC"/>
</linearGradient>
</defs>
</svg>
