<svg width="249" height="59" viewBox="0 0 249 59" fill="none" xmlns="http://www.w3.org/2000/svg">
<path fill-rule="evenodd" clip-rule="evenodd" d="M21.3404 0C30.3532 0 37.6596 7.30633 37.6596 16.3192V53C37.6596 56.3137 34.9733 59 31.6596 59H21.3404V0ZM0 41.1064C0 32.2698 7.16344 25.1064 16 25.1064H16.3191V59H6C2.68629 59 0 56.3137 0 53V41.1064ZM42.6809 0C51.6937 0 59 7.30634 59 16.3192V59H48.6809C45.3671 59 42.6809 56.3137 42.6809 53V0Z" fill="url(#paint0_linear_3_1062)"/>
<path d="M80.2154 33.7248C80.2154 31.6623 80.6205 29.8332 81.4307 28.2373C82.2655 26.6413 83.3949 25.4137 84.819 24.5544C86.243 23.695 87.8266 23.2654 89.5699 23.2654C90.8957 23.2654 92.1602 23.56 93.3632 24.1493C94.5663 24.714 95.5239 25.4751 96.2359 26.4326V16.7467H101.466V44H96.2359V40.98C95.5975 41.9867 94.7014 42.7969 93.5474 43.4107C92.3934 44.0246 91.0553 44.3315 89.533 44.3315C87.8144 44.3315 86.243 43.8895 84.819 43.0056C83.3949 42.1217 82.2655 40.8818 81.4307 39.2859C80.6205 37.6654 80.2154 35.8117 80.2154 33.7248ZM96.2727 33.7984C96.2727 32.5462 96.0272 31.4782 95.5362 30.5943C95.0451 29.6859 94.3822 28.9984 93.5474 28.5319C92.7126 28.0408 91.8164 27.7953 90.8589 27.7953C89.9013 27.7953 89.0174 28.0286 88.2072 28.4951C87.397 28.9616 86.7341 29.649 86.2185 30.5575C85.7274 31.4414 85.4819 32.4971 85.4819 33.7248C85.4819 34.9524 85.7274 36.0327 86.2185 36.9657C86.7341 37.8741 87.397 38.5739 88.2072 39.0649C89.042 39.556 89.9259 39.8015 90.8589 39.8015C91.8164 39.8015 92.7126 39.5683 93.5474 39.1018C94.3822 38.6107 95.0451 37.9232 95.5362 37.0393C96.0272 36.1309 96.2727 35.0506 96.2727 33.7984ZM105.176 33.7248C105.176 31.6623 105.581 29.8332 106.391 28.2373C107.226 26.6413 108.343 25.4137 109.742 24.5544C111.166 23.695 112.75 23.2654 114.493 23.2654C116.015 23.2654 117.341 23.5723 118.471 24.1861C119.625 24.7999 120.545 25.5733 121.233 26.5063V23.5968H126.426V44H121.233V41.0169C120.57 41.9744 119.649 42.7724 118.471 43.4107C117.317 44.0246 115.979 44.3315 114.456 44.3315C112.738 44.3315 111.166 43.8895 109.742 43.0056C108.343 42.1217 107.226 40.8818 106.391 39.2859C105.581 37.6654 105.176 35.8117 105.176 33.7248ZM121.233 33.7984C121.233 32.5462 120.987 31.4782 120.496 30.5943C120.005 29.6859 119.342 28.9984 118.508 28.5319C117.673 28.0408 116.777 27.7953 115.819 27.7953C114.862 27.7953 113.978 28.0286 113.167 28.4951C112.357 28.9616 111.694 29.649 111.179 30.5575C110.688 31.4414 110.442 32.4971 110.442 33.7248C110.442 34.9524 110.688 36.0327 111.179 36.9657C111.694 37.8741 112.357 38.5739 113.167 39.0649C114.002 39.556 114.886 39.8015 115.819 39.8015C116.777 39.8015 117.673 39.5683 118.508 39.1018C119.342 38.6107 120.005 37.9232 120.496 37.0393C120.987 36.1309 121.233 35.0506 121.233 33.7984ZM137.465 27.8321V37.7023C137.465 38.3897 137.624 38.8931 137.943 39.2123C138.287 39.5069 138.852 39.6542 139.638 39.6542H142.031V44H138.79C134.445 44 132.272 41.8885 132.272 37.6654V27.8321H129.841V23.5968H132.272V18.5513H137.465V23.5968H142.031V27.8321H137.465ZM144.414 33.7248C144.414 31.6623 144.819 29.8332 145.629 28.2373C146.464 26.6413 147.581 25.4137 148.981 24.5544C150.405 23.695 151.989 23.2654 153.732 23.2654C155.254 23.2654 156.58 23.5723 157.709 24.1861C158.863 24.7999 159.784 25.5733 160.471 26.5063V23.5968H165.664V44H160.471V41.0169C159.809 41.9744 158.888 42.7724 157.709 43.4107C156.555 44.0246 155.217 44.3315 153.695 44.3315C151.976 44.3315 150.405 43.8895 148.981 43.0056C147.581 42.1217 146.464 40.8818 145.629 39.2859C144.819 37.6654 144.414 35.8117 144.414 33.7248ZM160.471 33.7984C160.471 32.5462 160.226 31.4782 159.735 30.5943C159.244 29.6859 158.581 28.9984 157.746 28.5319C156.911 28.0408 156.015 27.7953 155.058 27.7953C154.1 27.7953 153.216 28.0286 152.406 28.4951C151.596 28.9616 150.933 29.649 150.417 30.5575C149.926 31.4414 149.681 32.4971 149.681 33.7248C149.681 34.9524 149.926 36.0327 150.417 36.9657C150.933 37.8741 151.596 38.5739 152.406 39.0649C153.241 39.556 154.125 39.8015 155.058 39.8015C156.015 39.8015 156.911 39.5683 157.746 39.1018C158.581 38.6107 159.244 37.9232 159.735 37.0393C160.226 36.1309 160.471 35.0506 160.471 33.7984Z" fill="#F7FBFF"/>
<path d="M175.856 16.7467V44H170.7V16.7467H175.856ZM179.624 33.7248C179.624 31.6623 180.03 29.8332 180.84 28.2373C181.675 26.6413 182.792 25.4137 184.191 24.5544C185.615 23.695 187.199 23.2654 188.942 23.2654C190.464 23.2654 191.79 23.5723 192.92 24.1861C194.074 24.7999 194.994 25.5733 195.682 26.5063V23.5968H200.875V44H195.682V41.0169C195.019 41.9744 194.098 42.7724 192.92 43.4107C191.766 44.0246 190.428 44.3315 188.905 44.3315C187.187 44.3315 185.615 43.8895 184.191 43.0056C182.792 42.1217 181.675 40.8818 180.84 39.2859C180.03 37.6654 179.624 35.8117 179.624 33.7248ZM195.682 33.7984C195.682 32.5462 195.436 31.4782 194.945 30.5943C194.454 29.6859 193.791 28.9984 192.956 28.5319C192.122 28.0408 191.226 27.7953 190.268 27.7953C189.31 27.7953 188.427 28.0286 187.616 28.4951C186.806 28.9616 186.143 29.649 185.628 30.5575C185.137 31.4414 184.891 32.4971 184.891 33.7248C184.891 34.9524 185.137 36.0327 185.628 36.9657C186.143 37.8741 186.806 38.5739 187.616 39.0649C188.451 39.556 189.335 39.8015 190.268 39.8015C191.226 39.8015 192.122 39.5683 192.956 39.1018C193.791 38.6107 194.454 37.9232 194.945 37.0393C195.436 36.1309 195.682 35.0506 195.682 33.7984ZM211.067 26.58C211.729 25.5979 212.638 24.7999 213.792 24.1861C214.97 23.5723 216.308 23.2654 217.806 23.2654C219.549 23.2654 221.121 23.695 222.52 24.5544C223.944 25.4137 225.061 26.6413 225.872 28.2373C226.706 29.8086 227.124 31.6378 227.124 33.7248C227.124 35.8117 226.706 37.6654 225.872 39.2859C225.061 40.8818 223.944 42.1217 222.52 43.0056C221.121 43.8895 219.549 44.3315 217.806 44.3315C216.284 44.3315 214.946 44.0368 213.792 43.4476C212.662 42.8338 211.754 42.0481 211.067 41.0905V44H205.91V16.7467H211.067V26.58ZM221.857 33.7248C221.857 32.4971 221.6 31.4414 221.084 30.5575C220.593 29.649 219.93 28.9616 219.095 28.4951C218.285 28.0286 217.401 27.7953 216.444 27.7953C215.511 27.7953 214.627 28.0408 213.792 28.5319C212.982 28.9984 212.319 29.6859 211.803 30.5943C211.312 31.5027 211.067 32.5708 211.067 33.7984C211.067 35.026 211.312 36.0941 211.803 37.0025C212.319 37.911 212.982 38.6107 213.792 39.1018C214.627 39.5683 215.511 39.8015 216.444 39.8015C217.401 39.8015 218.285 39.556 219.095 39.0649C219.93 38.5739 220.593 37.8741 221.084 36.9657C221.6 36.0572 221.857 34.9769 221.857 33.7248ZM238.678 44.3315C237.009 44.3315 235.511 44.0368 234.185 43.4476C232.859 42.8338 231.804 42.0112 231.018 40.98C230.257 39.9488 229.839 38.8071 229.766 37.555H234.959C235.057 38.3406 235.437 38.9913 236.1 39.5069C236.788 40.0225 237.635 40.2803 238.642 40.2803C239.624 40.2803 240.385 40.0839 240.925 39.691C241.49 39.2982 241.772 38.7949 241.772 38.181C241.772 37.5181 241.428 37.0271 240.741 36.7079C240.078 36.3642 239.01 35.9959 237.537 35.603C236.014 35.2347 234.762 34.8542 233.78 34.4613C232.823 34.0685 231.988 33.467 231.276 32.6567C230.588 31.8465 230.245 30.7539 230.245 29.3789C230.245 28.2495 230.564 27.2183 231.202 26.2853C231.865 25.3523 232.798 24.6158 234.001 24.0756C235.229 23.5354 236.665 23.2654 238.31 23.2654C240.741 23.2654 242.68 23.8792 244.129 25.1068C245.578 26.3099 246.376 27.9426 246.523 30.005H241.588C241.514 29.1948 241.17 28.5564 240.557 28.0899C239.967 27.5989 239.169 27.3534 238.163 27.3534C237.23 27.3534 236.505 27.5252 235.99 27.869C235.499 28.2127 235.253 28.6915 235.253 29.3053C235.253 29.9928 235.597 30.5206 236.284 30.8889C236.972 31.2327 238.04 31.5887 239.489 31.957C240.962 32.3253 242.177 32.7058 243.135 33.0987C244.092 33.4915 244.915 34.1053 245.602 34.9401C246.314 35.7503 246.682 36.8307 246.707 38.181C246.707 39.3596 246.376 40.4153 245.713 41.3483C245.074 42.2813 244.141 43.0179 242.914 43.5581C241.711 44.0737 240.299 44.3315 238.678 44.3315Z" fill="#DFEDF7"/>
<defs>
<linearGradient id="paint0_linear_3_1062" x1="27.9077" y1="104" x2="27.9077" y2="-22.5" gradientUnits="userSpaceOnUse">
<stop offset="0.0590417" stop-color="#127CBD"/>
<stop offset="0.702081" stop-color="#BDD7EC"/>
</linearGradient>
</defs>
</svg>
