<svg width="131" height="31" viewBox="0 0 131 31" fill="none" xmlns="http://www.w3.org/2000/svg">
<path fill-rule="evenodd" clip-rule="evenodd" d="M11.5985 0.195068C16.2858 0.195068 20.0856 3.99487 20.0856 8.68216V27.8731C20.0856 29.5998 18.6858 30.9996 16.9591 30.9996H11.5985V0.195068ZM0.5 21.6412C0.5 17.0365 4.23279 13.3038 8.83742 13.3038H8.98709V31H3.62653C1.8998 31 0.5 29.6002 0.5 27.8734V21.6412ZM22.697 0.195068C27.3843 0.195068 31.1841 3.99487 31.1841 8.68216V30.9996H25.8235C24.0968 30.9996 22.697 29.5998 22.697 27.8731V0.195068Z" fill="url(#paint0_linear_58_891)"/>
<path d="M42.2392 17.6457C42.2392 16.571 42.4503 15.6178 42.8725 14.7862C43.3075 13.9546 43.896 13.3149 44.6381 12.8671C45.3801 12.4193 46.2053 12.1954 47.1137 12.1954C47.8046 12.1954 48.4635 12.3489 49.0904 12.656C49.7173 12.9503 50.2163 13.3469 50.5873 13.8458V8.79859H53.3124V23H50.5873V21.4263C50.2547 21.9509 49.7877 22.3731 49.1864 22.6929C48.585 23.0128 47.8878 23.1727 47.0945 23.1727C46.1989 23.1727 45.3801 22.9424 44.6381 22.4818C43.896 22.0213 43.3075 21.3752 42.8725 20.5435C42.4503 19.6991 42.2392 18.7332 42.2392 17.6457ZM50.6065 17.6841C50.6065 17.0316 50.4786 16.475 50.2227 16.0144C49.9668 15.5411 49.6213 15.1828 49.1864 14.9397C48.7514 14.6839 48.2844 14.5559 47.7854 14.5559C47.2864 14.5559 46.8258 14.6775 46.4036 14.9205C45.9814 15.1636 45.636 15.5219 45.3673 15.9952C45.1114 16.4558 44.9835 17.006 44.9835 17.6457C44.9835 18.2854 45.1114 18.8483 45.3673 19.3345C45.636 19.8079 45.9814 20.1725 46.4036 20.4284C46.8386 20.6843 47.2992 20.8122 47.7854 20.8122C48.2844 20.8122 48.7514 20.6907 49.1864 20.4476C49.6213 20.1917 49.9668 19.8335 50.2227 19.3729C50.4786 18.8995 50.6065 18.3366 50.6065 17.6841ZM55.2456 17.6457C55.2456 16.571 55.4567 15.6178 55.8789 14.7862C56.3139 13.9546 56.8961 13.3149 57.6253 12.8671C58.3674 12.4193 59.1926 12.1954 60.101 12.1954C60.8942 12.1954 61.5851 12.3553 62.1736 12.6752C62.7749 12.995 63.2547 13.3981 63.613 13.8842V12.3681H66.3189V23H63.613V21.4455C63.2675 21.9445 62.7877 22.3603 62.1736 22.6929C61.5723 23.0128 60.875 23.1727 60.0818 23.1727C59.1862 23.1727 58.3674 22.9424 57.6253 22.4818C56.8961 22.0213 56.3139 21.3752 55.8789 20.5435C55.4567 19.6991 55.2456 18.7332 55.2456 17.6457ZM63.613 17.6841C63.613 17.0316 63.485 16.475 63.2291 16.0144C62.9733 15.5411 62.6278 15.1828 62.1928 14.9397C61.7578 14.6839 61.2908 14.5559 60.7919 14.5559C60.2929 14.5559 59.8323 14.6775 59.4101 14.9205C58.9879 15.1636 58.6425 15.5219 58.3738 15.9952C58.1179 16.4558 57.99 17.006 57.99 17.6457C57.99 18.2854 58.1179 18.8483 58.3738 19.3345C58.6425 19.8079 58.9879 20.1725 59.4101 20.4284C59.8451 20.6843 60.3057 20.8122 60.7919 20.8122C61.2908 20.8122 61.7578 20.6907 62.1928 20.4476C62.6278 20.1917 62.9733 19.8335 63.2291 19.3729C63.485 18.8995 63.613 18.3366 63.613 17.6841ZM72.0711 14.5751V19.7183C72.0711 20.0766 72.1543 20.3388 72.3206 20.5052C72.4997 20.6587 72.794 20.7354 73.2034 20.7354H74.4508V23H72.762C70.4975 23 69.3652 21.8997 69.3652 19.6991V14.5751H68.0986V12.3681H69.3652V9.73895H72.0711V12.3681H74.4508V14.5751H72.0711ZM75.6924 17.6457C75.6924 16.571 75.9035 15.6178 76.3257 14.7862C76.7607 13.9546 77.3428 13.3149 78.0721 12.8671C78.8142 12.4193 79.6394 12.1954 80.5478 12.1954C81.341 12.1954 82.0319 12.3553 82.6204 12.6752C83.2217 12.995 83.7015 13.3981 84.0597 13.8842V12.3681H86.7657V23H84.0597V21.4455C83.7143 21.9445 83.2345 22.3603 82.6204 22.6929C82.0191 23.0128 81.3218 23.1727 80.5286 23.1727C79.633 23.1727 78.8142 22.9424 78.0721 22.4818C77.3428 22.0213 76.7607 21.3752 76.3257 20.5435C75.9035 19.6991 75.6924 18.7332 75.6924 17.6457ZM84.0597 17.6841C84.0597 17.0316 83.9318 16.475 83.6759 16.0144C83.42 15.5411 83.0746 15.1828 82.6396 14.9397C82.2046 14.6839 81.7376 14.5559 81.2386 14.5559C80.7397 14.5559 80.2791 14.6775 79.8569 14.9205C79.4347 15.1636 79.0892 15.5219 78.8206 15.9952C78.5647 16.4558 78.4367 17.006 78.4367 17.6457C78.4367 18.2854 78.5647 18.8483 78.8206 19.3345C79.0892 19.8079 79.4347 20.1725 79.8569 20.4284C80.2919 20.6843 80.7525 20.8122 81.2386 20.8122C81.7376 20.8122 82.2046 20.6907 82.6396 20.4476C83.0746 20.1917 83.42 19.8335 83.6759 19.3729C83.9318 18.8995 84.0597 18.3366 84.0597 17.6841Z" fill="#F7FBFF"/>
<path d="M92.0765 8.79859V23H89.3898V8.79859H92.0765ZM94.0402 17.6457C94.0402 16.571 94.2513 15.6178 94.6735 14.7862C95.1085 13.9546 95.6906 13.3149 96.4198 12.8671C97.1619 12.4193 97.9871 12.1954 98.8955 12.1954C99.6887 12.1954 100.38 12.3553 100.968 12.6752C101.569 12.995 102.049 13.3981 102.407 13.8842V12.3681H105.113V23H102.407V21.4455C102.062 21.9445 101.582 22.3603 100.968 22.6929C100.367 23.0128 99.6695 23.1727 98.8763 23.1727C97.9807 23.1727 97.1619 22.9424 96.4198 22.4818C95.6906 22.0213 95.1085 21.3752 94.6735 20.5435C94.2513 19.6991 94.0402 18.7332 94.0402 17.6457ZM102.407 17.6841C102.407 17.0316 102.28 16.475 102.024 16.0144C101.768 15.5411 101.422 15.1828 100.987 14.9397C100.552 14.6839 100.085 14.5559 99.5864 14.5559C99.0874 14.5559 98.6268 14.6775 98.2046 14.9205C97.7824 15.1636 97.437 15.5219 97.1683 15.9952C96.9124 16.4558 96.7845 17.006 96.7845 17.6457C96.7845 18.2854 96.9124 18.8483 97.1683 19.3345C97.437 19.8079 97.7824 20.1725 98.2046 20.4284C98.6396 20.6843 99.1002 20.8122 99.5864 20.8122C100.085 20.8122 100.552 20.6907 100.987 20.4476C101.422 20.1917 101.768 19.8335 102.024 19.3729C102.28 18.8995 102.407 18.3366 102.407 17.6841ZM110.424 13.9226C110.77 13.4108 111.243 12.995 111.844 12.6752C112.459 12.3553 113.156 12.1954 113.936 12.1954C114.845 12.1954 115.663 12.4193 116.393 12.8671C117.135 13.3149 117.717 13.9546 118.139 14.7862C118.574 15.605 118.792 16.5582 118.792 17.6457C118.792 18.7332 118.574 19.6991 118.139 20.5435C117.717 21.3752 117.135 22.0213 116.393 22.4818C115.663 22.9424 114.845 23.1727 113.936 23.1727C113.143 23.1727 112.446 23.0192 111.844 22.7121C111.256 22.3923 110.782 21.9829 110.424 21.4839V23H107.738V8.79859H110.424V13.9226ZM116.047 17.6457C116.047 17.006 115.913 16.4558 115.644 15.9952C115.388 15.5219 115.043 15.1636 114.608 14.9205C114.186 14.6775 113.725 14.5559 113.226 14.5559C112.74 14.5559 112.279 14.6839 111.844 14.9397C111.422 15.1828 111.077 15.5411 110.808 16.0144C110.552 16.4878 110.424 17.0444 110.424 17.6841C110.424 18.3238 110.552 18.8803 110.808 19.3537C111.077 19.8271 111.422 20.1917 111.844 20.4476C112.279 20.6907 112.74 20.8122 113.226 20.8122C113.725 20.8122 114.186 20.6843 114.608 20.4284C115.043 20.1725 115.388 19.8079 115.644 19.3345C115.913 18.8611 116.047 18.2982 116.047 17.6457ZM124.812 23.1727C123.942 23.1727 123.162 23.0192 122.471 22.7121C121.78 22.3923 121.23 21.9637 120.821 21.4263C120.424 20.889 120.207 20.2941 120.168 19.6416H122.874C122.925 20.051 123.124 20.39 123.469 20.6587C123.827 20.9274 124.269 21.0617 124.793 21.0617C125.305 21.0617 125.702 20.9593 125.983 20.7546C126.277 20.5499 126.425 20.2877 126.425 19.9678C126.425 19.6224 126.245 19.3665 125.887 19.2002C125.542 19.021 124.985 18.8291 124.218 18.6244C123.424 18.4325 122.772 18.2342 122.26 18.0295C121.761 17.8248 121.326 17.5113 120.955 17.0891C120.597 16.6669 120.418 16.0976 120.418 15.3811C120.418 14.7926 120.584 14.2553 120.917 13.7691C121.262 13.2829 121.748 12.8991 122.375 12.6176C123.015 12.3361 123.763 12.1954 124.621 12.1954C125.887 12.1954 126.898 12.5153 127.653 13.155C128.408 13.7819 128.823 14.6327 128.9 15.7074H126.329C126.29 15.2852 126.111 14.9525 125.791 14.7094C125.484 14.4536 125.068 14.3256 124.544 14.3256C124.058 14.3256 123.68 14.4152 123.412 14.5943C123.156 14.7734 123.028 15.0229 123.028 15.3428C123.028 15.701 123.207 15.9761 123.565 16.168C123.923 16.3471 124.48 16.5326 125.235 16.7245C126.002 16.9164 126.636 17.1147 127.135 17.3194C127.634 17.5241 128.062 17.844 128.42 18.279C128.791 18.7012 128.983 19.2641 128.996 19.9678C128.996 20.5819 128.823 21.1321 128.478 21.6182C128.145 22.1044 127.659 22.4882 127.019 22.7697C126.393 23.0384 125.657 23.1727 124.812 23.1727Z" fill="#DFEDF7"/>
<defs>
<linearGradient id="paint0_linear_58_891" x1="15.0139" y1="54.4952" x2="15.0139" y2="-11.5526" gradientUnits="userSpaceOnUse">
<stop offset="0.0590417" stop-color="#127CBD"/>
<stop offset="0.702081" stop-color="#BDD7EC"/>
</linearGradient>
</defs>
</svg>
